{"glyphs":{"0":{"ha":2375,"x_min":218,"x_max":2164,"o":"m 339 288 l 304 101 l 271 288 l 222 288 l 218 -10 l 263 -10 l 264 111 l 288 -10 l 322 -10 l 346 113 l 347 -10 l 392 -10 l 389 288 l 339 288 m 1304 865 q 1256 881 1275 865 q 1233 924 1238 896 q 1231 950 1231 938 q 1231 976 1231 963 q 1229 1035 1231 1004 q 1236 1093 1228 1065 q 1260 1127 1243 1117 q 1300 1139 1276 1138 q 1343 1132 1324 1140 q 1371 1100 1363 1124 q 1381 1042 1382 1074 q 1379 982 1379 1010 q 1378 951 1379 967 q 1375 919 1378 935 q 1304 865 1363 865 m 1235 557 q 1163 615 1174 557 q 1160 642 1160 629 q 1161 669 1161 656 q 1160 728 1161 697 q 1165 785 1158 758 q 1189 819 1172 808 q 1229 831 1206 831 q 1272 824 1253 832 q 1301 792 1292 815 q 1310 734 1313 765 q 1307 675 1307 703 q 1307 643 1307 658 q 1304 613 1307 628 q 1281 571 1299 585 q 1235 557 1263 557 m 2096 288 l 2029 288 l 2029 -10 l 2079 -10 l 2079 121 l 2093 121 l 2113 -10 l 2163 -10 l 2138 133 q 2163 186 2158 151 q 2162 222 2164 204 q 2152 255 2160 240 q 2131 278 2144 269 q 2096 288 2117 288 m 518 144 l 467 288 l 429 288 l 429 -10 l 475 -10 l 475 136 l 526 -10 l 564 -10 l 564 288 l 518 288 l 518 144 m 1665 144 l 1615 288 l 1576 288 l 1576 -10 l 1624 -10 l 1624 136 l 1675 -10 l 1713 -10 l 1713 288 l 1665 288 l 1665 144 m 892 101 l 921 101 q 921 82 921 94 q 919 57 921 69 q 910 37 917 44 q 892 33 904 29 q 881 44 883 36 q 876 61 878 51 q 876 81 875 71 q 876 97 876 90 l 876 168 q 876 200 876 183 q 879 232 875 217 q 901 244 886 247 q 917 226 915 240 q 919 204 919 215 q 918 182 918 193 l 968 182 q 965 236 968 207 q 936 281 961 265 q 903 290 921 289 q 869 286 885 290 q 840 262 849 279 q 826 225 831 244 q 824 183 824 204 q 825 139 825 161 q 824 98 825 118 q 826 57 824 78 q 835 22 829 39 q 857 -4 842 6 q 894 -15 872 -15 q 929 0 915 -14 l 931 -10 l 969 -10 l 969 144 l 892 144 l 892 101 m 1363 288 l 1308 -10 l 1358 -10 l 1369 60 l 1401 60 l 1413 -10 l 1463 -10 l 1410 288 l 1363 288 m 1239 288 l 1174 288 l 1174 -10 l 1224 -10 l 1224 121 q 1249 122 1236 121 q 1274 128 1261 122 q 1296 152 1289 136 q 1306 186 1303 168 q 1306 222 1308 204 q 1297 255 1304 240 q 1274 278 1289 269 q 1239 288 1260 288 m 906 868 l 906 1138 q 959 1138 931 1138 q 1010 1126 988 1139 q 1033 1100 1025 1118 q 1040 1062 1040 1082 q 1032 1025 1040 1042 q 1007 1003 1024 1008 l 1044 868 l 1007 868 l 972 994 l 943 994 l 943 868 l 906 868 m 768 144 l 743 172 q 728 187 736 179 q 717 206 719 194 q 716 231 713 217 q 735 244 719 246 q 747 237 743 243 q 751 222 750 231 q 753 203 753 213 q 754 189 754 194 l 800 192 q 794 245 800 218 q 763 285 788 272 q 730 290 746 292 q 701 281 714 289 q 678 260 688 274 q 668 231 669 247 q 668 195 665 213 q 682 163 671 178 q 693 148 686 154 q 706 135 700 142 q 738 100 721 118 q 754 58 754 82 q 752 43 754 51 q 742 33 750 35 q 722 44 729 29 q 715 69 715 56 q 713 97 714 83 l 667 93 q 669 58 667 75 q 678 22 671 40 q 708 -8 689 1 q 750 -12 728 -17 q 787 9 774 -8 q 803 47 800 26 q 797 100 806 75 q 768 144 788 125 m 610 868 l 610 1138 l 668 1138 q 706 1133 688 1138 q 735 1108 724 1128 q 744 1054 746 1085 q 722 1007 743 1024 q 687 994 707 994 q 647 993 667 993 l 647 868 l 610 868 m 1939 122 l 1986 122 l 1986 164 l 1939 164 l 1939 243 l 1997 243 l 1997 288 l 1889 288 l 1889 -10 l 1997 -10 l 1997 33 l 1939 33 l 1939 122 m 1344 560 l 1344 829 l 1369 829 l 1447 650 l 1447 829 l 1479 829 l 1479 560 l 1454 560 l 1376 743 l 1376 560 l 1344 560 m 1417 868 l 1417 1138 l 1442 1138 l 1518 958 l 1518 1138 l 1549 1138 l 1549 868 l 1525 868 l 1447 1051 l 1447 868 l 1417 868 m 714 561 q 660 560 689 551 q 621 596 632 568 q 613 627 614 611 q 613 661 613 643 l 613 829 l 649 829 l 649 650 q 651 615 649 635 q 672 588 653 594 q 696 586 686 582 q 711 600 706 590 q 719 622 717 610 q 721 644 721 633 q 722 688 722 667 q 721 731 721 708 l 721 829 l 757 829 l 757 706 q 758 667 757 689 q 756 624 760 644 q 744 585 753 603 q 714 561 735 568 m 1576 868 l 1635 1138 l 1669 1138 l 1726 868 l 1692 868 l 1679 935 l 1624 935 l 1611 868 l 1576 868 m 1826 243 l 1868 243 l 1868 288 l 1735 288 l 1735 243 l 1776 243 l 1776 -10 l 1826 -10 l 1826 243 m 860 557 q 808 580 825 557 q 789 636 790 603 l 822 644 q 826 619 824 632 q 838 596 828 606 q 858 587 846 588 q 881 593 871 586 q 890 619 892 603 q 882 646 889 635 q 869 661 876 654 q 853 675 861 668 q 825 700 840 688 q 800 728 810 713 q 791 787 783 754 q 829 829 799 819 q 863 832 844 833 q 894 821 882 831 q 913 794 908 810 q 919 763 918 778 l 889 753 q 883 784 888 768 q 860 803 878 800 q 837 799 847 804 q 824 779 826 793 q 824 759 821 768 q 835 742 828 750 q 851 726 842 733 q 867 714 860 719 q 901 681 885 699 q 922 640 917 664 q 912 583 929 608 q 860 557 894 557 m 1142 865 q 1090 888 1108 865 q 1071 943 1072 911 l 1104 951 q 1108 926 1106 939 q 1119 904 1111 913 q 1140 894 1128 896 q 1163 901 1153 893 q 1172 927 1174 911 q 1164 954 1171 943 q 1151 969 1158 963 q 1135 983 1143 976 q 1107 1007 1122 994 q 1082 1035 1092 1019 q 1072 1065 1074 1049 q 1073 1095 1069 1081 q 1086 1121 1076 1110 q 1111 1136 1096 1132 q 1145 1139 1126 1140 q 1176 1128 1164 1138 q 1195 1101 1190 1118 q 1201 1069 1200 1085 l 1171 1061 q 1165 1092 1169 1076 q 1142 1111 1160 1108 q 1119 1106 1129 1113 q 1106 1088 1108 1100 q 1117 1049 1101 1064 q 1149 1021 1133 1033 q 1183 989 1167 1006 q 1204 949 1199 972 q 1194 891 1211 917 q 1142 865 1176 865 m 992 -47 l 1036 -47 l 1118 325 l 1071 325 l 992 -47 m 771 868 l 771 1138 l 875 1138 l 875 1110 l 808 1110 l 808 1021 l 863 1021 l 863 993 l 808 993 l 808 894 l 876 894 l 876 868 l 771 868 m 1538 288 l 1486 288 l 1486 -10 l 1538 -10 l 1538 288 m 954 560 l 954 829 l 1058 829 l 1058 801 l 992 801 l 992 713 l 1046 713 l 1046 686 l 992 686 l 992 586 l 1058 586 l 1058 560 l 954 560 m 1288 897 q 1324 897 1304 890 q 1336 912 1333 903 q 1340 931 1339 921 l 1340 963 l 1340 1056 q 1340 1079 1340 1067 q 1331 1101 1339 1092 q 1315 1110 1324 1108 q 1297 1110 1306 1113 q 1271 1086 1278 1108 q 1267 1043 1265 1067 q 1269 1000 1269 1019 l 1269 950 q 1271 920 1269 936 q 1288 897 1272 904 m 1215 589 q 1233 586 1222 586 q 1251 589 1244 586 q 1265 604 1261 594 q 1269 624 1268 614 q 1270 639 1271 631 q 1269 654 1269 647 l 1269 749 q 1269 772 1269 760 q 1260 793 1268 785 q 1244 802 1253 800 q 1225 803 1235 804 q 1200 778 1206 799 q 1197 735 1196 758 q 1199 692 1199 713 l 1199 643 q 1200 612 1199 628 q 1215 589 1201 596 m 1693 560 l 1693 617 q 1694 637 1693 626 q 1693 657 1696 647 q 1685 683 1690 671 q 1675 708 1681 696 l 1636 829 l 1671 829 l 1713 700 l 1751 829 l 1788 829 q 1770 774 1779 801 q 1751 718 1761 746 l 1732 661 q 1729 644 1729 653 q 1729 626 1729 635 l 1729 560 l 1693 560 m 1754 868 l 1754 1138 l 1792 1138 l 1792 894 l 1861 894 l 1861 868 l 1754 868 m 1521 560 l 1521 829 l 1558 829 l 1558 586 l 1626 586 l 1626 560 l 1521 560 m 763 -225 q 739 -217 747 -225 q 727 -199 731 -210 q 724 -174 724 -187 q 724 -150 724 -161 q 724 -126 724 -139 q 729 -105 725 -114 q 742 -90 733 -96 q 767 -85 750 -83 q 788 -93 781 -86 q 798 -110 794 -100 q 801 -133 801 -121 q 801 -156 801 -146 q 801 -178 801 -167 q 797 -201 800 -190 q 785 -218 793 -211 q 763 -225 778 -225 m 1726 -224 l 1726 -86 q 1758 -85 1740 -86 q 1786 -94 1775 -85 q 1797 -123 1797 -106 q 1797 -156 1797 -140 q 1797 -188 1797 -169 q 1783 -217 1797 -207 q 1756 -224 1772 -225 q 1726 -224 1739 -224 m 1807 -396 q 1783 -388 1792 -396 q 1772 -369 1775 -381 q 1769 -345 1769 -358 q 1769 -321 1769 -332 q 1770 -297 1769 -308 q 1775 -275 1771 -285 q 1788 -260 1779 -265 q 1813 -256 1796 -254 q 1833 -264 1826 -257 q 1842 -281 1840 -271 q 1844 -304 1844 -292 q 1844 -326 1844 -317 q 1844 -349 1844 -337 q 1841 -372 1844 -361 q 1830 -389 1838 -382 q 1807 -396 1822 -396 m 646 -396 q 622 -388 629 -396 q 611 -369 614 -381 q 608 -345 608 -358 q 608 -321 608 -332 q 609 -297 608 -308 q 614 -275 610 -285 q 626 -260 618 -265 q 650 -256 635 -254 q 671 -264 664 -257 q 681 -281 678 -271 q 683 -304 683 -292 q 683 -326 683 -317 q 683 -349 683 -337 q 680 -372 683 -361 q 669 -389 676 -382 q 646 -396 661 -396 m 996 -394 l 996 -257 q 1023 -256 1008 -257 q 1049 -261 1038 -254 q 1061 -274 1057 -265 q 1065 -294 1065 -283 q 1061 -313 1065 -304 q 1047 -325 1057 -322 l 1068 -394 l 1049 -394 l 1032 -329 l 1017 -329 l 1017 -394 l 996 -394 m 701 -394 l 704 -257 l 724 -257 l 749 -368 l 772 -257 l 790 -257 l 793 -394 l 778 -394 l 776 -294 l 753 -394 l 742 -394 l 719 -294 l 718 -394 l 701 -394 m 814 -394 l 817 -257 l 836 -257 l 860 -368 l 885 -257 l 904 -257 l 906 -394 l 892 -394 l 889 -294 l 865 -394 l 854 -394 l 832 -294 l 829 -394 l 814 -394 m 1561 -394 l 1561 -257 q 1588 -256 1574 -257 q 1613 -261 1601 -254 q 1625 -274 1621 -265 q 1629 -294 1629 -283 q 1625 -313 1629 -304 q 1613 -325 1621 -322 l 1632 -394 l 1613 -394 l 1596 -329 l 1581 -329 l 1581 -394 l 1561 -394 m 819 -224 l 819 -86 q 846 -85 832 -86 q 871 -90 860 -83 q 883 -104 879 -94 q 888 -124 888 -114 q 885 -144 889 -135 q 871 -156 881 -153 l 890 -224 l 872 -224 l 853 -160 l 839 -160 l 839 -224 l 819 -224 m 833 356 l 833 494 q 869 494 849 494 q 897 479 889 494 q 902 452 903 468 q 890 428 901 436 q 872 420 882 421 q 853 419 863 419 l 853 356 l 833 356 m 1636 -224 l 1636 -86 l 1649 -86 l 1688 -178 l 1688 -86 l 1704 -86 l 1704 -224 l 1692 -224 l 1653 -131 l 1653 -224 l 1636 -224 m 1015 -224 l 1015 -86 l 1033 -86 l 1033 -146 l 1071 -146 l 1071 -86 l 1089 -86 l 1089 -224 l 1071 -224 l 1071 -160 l 1033 -160 l 1033 -224 l 1015 -224 m 1865 -394 l 1865 -257 l 1878 -257 l 1917 -349 l 1917 -257 l 1932 -257 l 1932 -394 l 1919 -394 l 1881 -301 l 1881 -394 l 1865 -394 m 1044 356 l 1074 494 l 1093 494 l 1122 356 l 1103 356 l 1097 392 l 1069 392 l 1063 356 l 1044 356 m 1207 -394 l 1238 -257 l 1256 -257 l 1285 -394 l 1267 -394 l 1261 -360 l 1232 -360 l 1225 -394 l 1207 -394 m 1546 -224 l 1574 -86 l 1593 -86 l 1622 -224 l 1604 -224 l 1597 -189 l 1569 -189 l 1563 -224 l 1546 -224 m 1819 618 l 1808 829 l 1844 829 l 1832 618 l 1819 618 m 1336 -224 q 1302 -221 1317 -231 q 1285 -192 1288 -211 q 1284 -175 1283 -183 q 1285 -160 1285 -167 l 1285 -86 l 1303 -86 l 1303 -147 q 1302 -165 1303 -154 q 1302 -185 1301 -175 q 1307 -203 1303 -196 q 1321 -211 1311 -211 q 1335 -203 1331 -211 q 1340 -185 1339 -196 q 1341 -165 1342 -175 q 1340 -147 1340 -154 l 1340 -86 l 1357 -86 l 1357 -149 q 1358 -169 1357 -157 q 1357 -191 1358 -181 q 1351 -210 1356 -201 q 1336 -224 1346 -219 m 647 1021 q 667 1020 657 1021 q 686 1022 676 1019 q 705 1038 701 1026 q 708 1061 708 1049 q 706 1090 710 1076 q 686 1108 703 1104 q 667 1110 676 1111 q 647 1110 657 1110 l 647 1021 m 943 1021 q 963 1021 953 1021 q 982 1024 972 1021 q 1000 1042 996 1031 q 1003 1068 1004 1054 q 999 1091 1003 1081 q 982 1107 996 1101 q 963 1110 972 1110 q 943 1110 953 1110 l 943 1021 m 557 -396 q 531 -386 539 -396 q 521 -362 524 -376 q 519 -331 518 -347 q 519 -301 519 -314 q 529 -267 519 -282 q 561 -256 539 -253 q 588 -274 583 -258 q 592 -306 592 -289 l 574 -306 q 574 -292 574 -299 q 572 -279 575 -286 q 559 -270 569 -271 q 543 -276 549 -269 q 539 -301 538 -285 q 540 -326 540 -317 q 539 -351 540 -336 q 544 -375 538 -367 q 559 -381 549 -382 q 572 -371 569 -379 q 574 -357 575 -364 q 574 -343 574 -350 l 592 -343 q 586 -379 592 -362 q 557 -396 581 -396 m 1119 -396 q 1094 -386 1101 -396 q 1084 -362 1086 -376 q 1083 -331 1082 -347 q 1083 -301 1083 -314 q 1092 -267 1083 -282 q 1124 -256 1101 -253 q 1150 -274 1146 -258 q 1154 -306 1154 -289 l 1136 -306 q 1137 -292 1136 -299 q 1135 -279 1138 -286 q 1122 -270 1132 -271 q 1106 -276 1111 -269 q 1100 -301 1099 -285 q 1101 -326 1101 -317 q 1101 -351 1101 -336 q 1107 -375 1100 -367 q 1122 -381 1111 -382 q 1135 -371 1132 -379 q 1137 -357 1138 -364 q 1136 -343 1136 -350 l 1154 -343 q 1149 -379 1154 -362 q 1119 -396 1143 -396 m 1485 354 q 1458 366 1467 354 q 1449 394 1450 378 l 1467 400 q 1469 383 1467 393 q 1479 371 1472 374 q 1494 373 1489 368 q 1500 386 1500 378 q 1489 411 1501 401 q 1467 431 1476 421 q 1449 459 1454 442 q 1460 489 1444 476 q 1478 495 1467 494 q 1497 493 1489 496 q 1511 479 1507 489 q 1517 460 1515 469 l 1500 456 q 1497 469 1499 463 q 1489 481 1496 476 q 1476 481 1483 483 q 1468 471 1469 478 q 1472 451 1463 460 q 1488 436 1481 443 q 1505 420 1496 429 q 1517 399 1514 411 q 1513 368 1521 382 q 1485 354 1504 354 m 1168 354 q 1142 366 1150 354 q 1132 394 1133 378 l 1149 400 q 1151 383 1149 393 q 1161 371 1154 374 q 1177 373 1171 368 q 1183 386 1183 378 q 1171 411 1183 401 q 1149 431 1158 421 q 1133 459 1138 442 q 1143 489 1128 476 q 1161 495 1150 494 q 1181 493 1172 496 q 1194 479 1190 489 q 1200 460 1199 469 l 1183 456 q 1181 469 1182 463 q 1172 481 1179 476 q 1159 481 1165 483 q 1150 471 1153 478 q 1154 451 1146 460 q 1169 436 1163 443 q 1188 420 1179 429 q 1200 399 1197 411 q 1195 368 1204 382 q 1168 354 1186 354 m 1682 -396 q 1656 -384 1664 -396 q 1646 -356 1647 -372 l 1663 -351 q 1665 -367 1663 -358 q 1675 -379 1668 -376 q 1691 -378 1685 -383 q 1697 -365 1697 -374 q 1685 -340 1697 -350 q 1663 -321 1672 -329 q 1647 -292 1651 -310 q 1657 -262 1642 -274 q 1675 -255 1664 -256 q 1694 -258 1686 -254 q 1708 -271 1704 -261 q 1714 -290 1713 -281 l 1697 -296 q 1694 -281 1696 -289 q 1686 -271 1693 -274 q 1673 -270 1679 -268 q 1664 -279 1667 -272 q 1668 -299 1660 -290 q 1683 -314 1676 -307 q 1702 -331 1693 -322 q 1714 -353 1711 -340 q 1709 -383 1718 -369 q 1682 -396 1700 -396 m 1349 356 l 1318 494 l 1336 494 l 1357 393 l 1379 494 l 1396 494 l 1365 356 l 1349 356 m 1431 -394 l 1399 -257 l 1417 -257 l 1439 -358 l 1458 -257 l 1476 -257 l 1446 -394 l 1431 -394 m 1215 356 l 1215 494 l 1269 494 l 1269 481 l 1236 481 l 1236 435 l 1264 435 l 1264 421 l 1236 421 l 1236 369 l 1271 369 l 1271 356 l 1215 356 m 1110 -224 l 1110 -86 l 1164 -86 l 1164 -100 l 1131 -100 l 1131 -146 l 1158 -146 l 1158 -160 l 1131 -160 l 1131 -211 l 1164 -211 l 1164 -224 l 1110 -224 m 1492 -394 l 1492 -257 l 1546 -257 l 1546 -271 l 1511 -271 l 1511 -315 l 1539 -315 l 1539 -329 l 1511 -329 l 1511 -381 l 1546 -381 l 1546 -394 l 1492 -394 m 928 -394 l 928 -257 l 981 -257 l 981 -271 l 946 -271 l 946 -315 l 975 -315 l 975 -329 l 946 -329 l 946 -381 l 981 -381 l 981 -394 l 928 -394 m 982 356 l 982 494 l 1036 494 l 1036 481 l 1001 481 l 1001 435 l 1029 435 l 1029 421 l 1001 421 l 1001 369 l 1036 369 l 1036 356 l 982 356 m 753 -208 q 771 -210 765 -214 q 778 -197 776 -206 q 781 -178 781 -189 q 781 -161 781 -168 q 782 -128 781 -150 q 772 -101 783 -107 q 751 -103 758 -94 q 744 -124 744 -112 l 744 -146 q 744 -160 744 -150 q 743 -179 743 -169 q 745 -197 743 -189 q 753 -208 747 -206 m 1799 -378 q 1816 -380 1810 -383 q 1824 -368 1822 -376 q 1826 -349 1826 -360 q 1826 -332 1826 -339 q 1827 -317 1826 -326 q 1827 -299 1828 -308 q 1824 -283 1826 -290 q 1817 -272 1822 -275 q 1797 -274 1803 -265 q 1790 -294 1790 -283 l 1790 -315 q 1790 -329 1790 -319 q 1789 -349 1789 -339 q 1791 -368 1789 -360 q 1799 -378 1793 -376 m 636 -378 q 653 -380 647 -383 q 662 -368 660 -376 q 664 -349 664 -360 q 664 -332 664 -339 q 665 -317 664 -326 q 665 -299 665 -308 q 663 -283 665 -290 q 656 -272 661 -275 q 634 -274 640 -265 q 628 -294 628 -283 q 627 -305 626 -300 q 628 -315 628 -310 q 627 -329 628 -319 q 626 -349 626 -339 q 628 -368 626 -360 q 636 -378 631 -376 m 660 -224 l 660 -86 l 714 -86 l 714 -100 l 681 -100 l 681 -146 l 707 -146 l 707 -160 l 681 -160 l 681 -224 l 660 -224 m 1219 -224 l 1219 -86 l 1272 -86 l 1272 -100 l 1238 -100 l 1238 -146 l 1264 -146 l 1264 -160 l 1238 -160 l 1238 -224 l 1219 -224 m 1746 -211 q 1766 -209 1757 -211 q 1778 -192 1775 -207 l 1778 -156 l 1778 -121 q 1767 -103 1776 -106 q 1746 -100 1758 -100 l 1746 -211 m 961 -224 l 961 -100 l 936 -100 l 936 -86 l 1006 -86 l 1006 -100 l 981 -100 l 981 -224 l 961 -224 m 1590 356 l 1590 481 l 1565 481 l 1565 494 l 1633 494 l 1633 481 l 1610 481 l 1610 356 l 1590 356 m 1300 -394 l 1300 -257 l 1318 -257 l 1318 -381 l 1354 -381 l 1354 -394 l 1300 -394 m 1379 -224 l 1379 -86 l 1397 -86 l 1397 -211 l 1432 -211 l 1432 -224 l 1379 -224 m 1446 -224 l 1446 -86 l 1465 -86 l 1465 -211 l 1500 -211 l 1500 -224 l 1446 -224 m 915 356 l 915 494 l 933 494 l 933 369 l 968 369 l 968 356 l 915 356 m 1411 356 l 1411 494 l 1431 494 l 1431 356 l 1411 356 m 1629 963 l 1675 963 l 1651 1085 l 1629 963 m 596 -10 l 646 -10 l 646 46 l 596 46 l 596 -10 m 1224 243 q 1240 244 1231 243 q 1253 239 1249 244 q 1260 205 1261 228 q 1251 171 1260 182 q 1238 164 1246 164 q 1224 164 1231 164 l 1224 243 m 2079 243 q 2095 244 2086 243 q 2110 239 2104 244 q 2116 205 2117 228 q 2108 171 2115 182 q 2094 164 2101 164 q 2079 164 2086 164 l 2079 243 m 1174 -394 l 1174 -257 l 1193 -257 l 1193 -394 l 1174 -394 m 1731 -394 l 1731 -257 l 1750 -257 l 1750 -394 l 1731 -394 m 1533 356 l 1533 494 l 1553 494 l 1553 356 l 1533 356 m 1808 560 l 1808 597 l 1844 597 l 1844 560 l 1808 560 m 853 433 q 863 433 857 433 q 874 436 868 433 q 882 447 881 439 q 883 461 883 454 q 874 478 882 476 q 853 481 865 481 l 853 433 m 839 -146 q 860 -142 851 -146 q 869 -122 869 -137 q 861 -103 869 -107 q 839 -100 853 -100 l 839 -146 m 1581 -315 q 1602 -312 1593 -315 q 1611 -293 1611 -308 q 1602 -274 1611 -278 q 1581 -271 1593 -271 l 1581 -315 m 1017 -315 q 1038 -312 1029 -315 q 1046 -293 1046 -308 q 1038 -274 1046 -278 q 1017 -271 1029 -271 l 1017 -315 m 1235 -346 l 1258 -346 l 1247 -283 l 1235 -346 m 1572 -175 l 1596 -175 l 1585 -112 l 1572 -175 m 1071 406 l 1094 406 l 1083 468 l 1071 406 m 1376 104 l 1386 163 l 1394 104 l 1376 104 z "},"1":{"ha":2375,"x_min":218,"x_max":2164,"o":"m 339 288 l 304 101 l 271 288 l 222 288 l 218 -10 l 263 -10 l 264 111 l 288 -10 l 322 -10 l 346 113 l 347 -10 l 392 -10 l 389 288 l 339 288 m 1304 865 q 1256 881 1275 865 q 1233 924 1238 896 q 1231 950 1231 938 q 1231 976 1231 963 q 1229 1035 1231 1004 q 1236 1093 1228 1065 q 1260 1127 1243 1117 q 1300 1139 1276 1138 q 1343 1132 1324 1140 q 1371 1100 1363 1124 q 1381 1042 1382 1074 q 1379 982 1379 1010 q 1378 951 1379 967 q 1375 919 1378 935 q 1304 865 1363 865 m 1235 557 q 1163 615 1174 557 q 1160 642 1160 629 q 1161 669 1161 656 q 1160 728 1161 697 q 1165 785 1158 758 q 1189 819 1172 808 q 1229 831 1206 831 q 1272 824 1253 832 q 1301 792 1292 815 q 1310 734 1313 765 q 1307 675 1307 703 q 1307 643 1307 658 q 1304 613 1307 628 q 1281 571 1299 585 q 1235 557 1263 557 m 2096 288 l 2029 288 l 2029 -10 l 2079 -10 l 2079 121 l 2093 121 l 2113 -10 l 2163 -10 l 2138 133 q 2163 186 2158 151 q 2162 222 2164 204 q 2152 255 2160 240 q 2131 278 2144 269 q 2096 288 2117 288 m 518 144 l 467 288 l 429 288 l 429 -10 l 475 -10 l 475 136 l 526 -10 l 564 -10 l 564 288 l 518 288 l 518 144 m 1665 144 l 1615 288 l 1576 288 l 1576 -10 l 1624 -10 l 1624 136 l 1675 -10 l 1713 -10 l 1713 288 l 1665 288 l 1665 144 m 892 101 l 921 101 q 921 82 921 94 q 919 57 921 69 q 910 37 917 44 q 892 33 904 29 q 881 44 883 36 q 876 61 878 51 q 876 81 875 71 q 876 97 876 90 l 876 168 q 876 200 876 183 q 879 232 875 217 q 901 244 886 247 q 917 226 915 240 q 919 204 919 215 q 918 182 918 193 l 968 182 q 965 236 968 207 q 936 281 961 265 q 903 290 921 289 q 869 286 885 290 q 840 262 849 279 q 826 225 831 244 q 824 183 824 204 q 825 139 825 161 q 824 98 825 118 q 826 57 824 78 q 835 22 829 39 q 857 -4 842 6 q 894 -15 872 -15 q 929 0 915 -14 l 931 -10 l 969 -10 l 969 144 l 892 144 l 892 101 m 1363 288 l 1308 -10 l 1358 -10 l 1369 60 l 1401 60 l 1413 -10 l 1463 -10 l 1410 288 l 1363 288 m 1239 288 l 1174 288 l 1174 -10 l 1224 -10 l 1224 121 q 1249 122 1236 121 q 1274 128 1261 122 q 1296 152 1289 136 q 1306 186 1303 168 q 1306 222 1308 204 q 1297 255 1304 240 q 1274 278 1289 269 q 1239 288 1260 288 m 906 868 l 906 1138 q 959 1138 931 1138 q 1010 1126 988 1139 q 1033 1100 1025 1118 q 1040 1062 1040 1082 q 1032 1025 1040 1042 q 1007 1003 1024 1008 l 1044 868 l 1007 868 l 972 994 l 943 994 l 943 868 l 906 868 m 768 144 l 743 172 q 728 187 736 179 q 717 206 719 194 q 716 231 713 217 q 735 244 719 246 q 747 237 743 243 q 751 222 750 231 q 753 203 753 213 q 754 189 754 194 l 800 192 q 794 245 800 218 q 763 285 788 272 q 730 290 746 292 q 701 281 714 289 q 678 260 688 274 q 668 231 669 247 q 668 195 665 213 q 682 163 671 178 q 693 148 686 154 q 706 135 700 142 q 738 100 721 118 q 754 58 754 82 q 752 43 754 51 q 742 33 750 35 q 722 44 729 29 q 715 69 715 56 q 713 97 714 83 l 667 93 q 669 58 667 75 q 678 22 671 40 q 708 -8 689 1 q 750 -12 728 -17 q 787 9 774 -8 q 803 47 800 26 q 797 100 806 75 q 768 144 788 125 m 610 868 l 610 1138 l 668 1138 q 706 1133 688 1138 q 735 1108 724 1128 q 744 1054 746 1085 q 722 1007 743 1024 q 687 994 707 994 q 647 993 667 993 l 647 868 l 610 868 m 1939 122 l 1986 122 l 1986 164 l 1939 164 l 1939 243 l 1997 243 l 1997 288 l 1889 288 l 1889 -10 l 1997 -10 l 1997 33 l 1939 33 l 1939 122 m 1344 560 l 1344 829 l 1369 829 l 1447 650 l 1447 829 l 1479 829 l 1479 560 l 1454 560 l 1376 743 l 1376 560 l 1344 560 m 1417 868 l 1417 1138 l 1442 1138 l 1518 958 l 1518 1138 l 1549 1138 l 1549 868 l 1525 868 l 1447 1051 l 1447 868 l 1417 868 m 714 561 q 660 560 689 551 q 621 596 632 568 q 613 627 614 611 q 613 661 613 643 l 613 829 l 649 829 l 649 650 q 651 615 649 635 q 672 588 653 594 q 696 586 686 582 q 711 600 706 590 q 719 622 717 610 q 721 644 721 633 q 722 688 722 667 q 721 731 721 708 l 721 829 l 757 829 l 757 706 q 758 667 757 689 q 756 624 760 644 q 744 585 753 603 q 714 561 735 568 m 1576 868 l 1635 1138 l 1669 1138 l 1726 868 l 1692 868 l 1679 935 l 1624 935 l 1611 868 l 1576 868 m 1826 243 l 1868 243 l 1868 288 l 1735 288 l 1735 243 l 1776 243 l 1776 -10 l 1826 -10 l 1826 243 m 860 557 q 808 580 825 557 q 789 636 790 603 l 822 644 q 826 619 824 632 q 838 596 828 606 q 858 587 846 588 q 881 593 871 586 q 890 619 892 603 q 882 646 889 635 q 869 661 876 654 q 853 675 861 668 q 825 700 840 688 q 800 728 810 713 q 791 787 783 754 q 829 829 799 819 q 863 832 844 833 q 894 821 882 831 q 913 794 908 810 q 919 763 918 778 l 889 753 q 883 784 888 768 q 860 803 878 800 q 837 799 847 804 q 824 779 826 793 q 824 759 821 768 q 835 742 828 750 q 851 726 842 733 q 867 714 860 719 q 901 681 885 699 q 922 640 917 664 q 912 583 929 608 q 860 557 894 557 m 1142 865 q 1090 888 1108 865 q 1071 943 1072 911 l 1104 951 q 1108 926 1106 939 q 1119 904 1111 913 q 1140 894 1128 896 q 1163 901 1153 893 q 1172 927 1174 911 q 1164 954 1171 943 q 1151 969 1158 963 q 1135 983 1143 976 q 1107 1007 1122 994 q 1082 1035 1092 1019 q 1072 1065 1074 1049 q 1073 1095 1069 1081 q 1086 1121 1076 1110 q 1111 1136 1096 1132 q 1145 1139 1126 1140 q 1176 1128 1164 1138 q 1195 1101 1190 1118 q 1201 1069 1200 1085 l 1171 1061 q 1165 1092 1169 1076 q 1142 1111 1160 1108 q 1119 1106 1129 1113 q 1106 1088 1108 1100 q 1117 1049 1101 1064 q 1149 1021 1133 1033 q 1183 989 1167 1006 q 1204 949 1199 972 q 1194 891 1211 917 q 1142 865 1176 865 m 992 -47 l 1036 -47 l 1118 325 l 1071 325 l 992 -47 m 771 868 l 771 1138 l 875 1138 l 875 1110 l 808 1110 l 808 1021 l 863 1021 l 863 993 l 808 993 l 808 894 l 876 894 l 876 868 l 771 868 m 1538 288 l 1486 288 l 1486 -10 l 1538 -10 l 1538 288 m 954 560 l 954 829 l 1058 829 l 1058 801 l 992 801 l 992 713 l 1046 713 l 1046 686 l 992 686 l 992 586 l 1058 586 l 1058 560 l 954 560 m 1288 897 q 1324 897 1304 890 q 1336 912 1333 903 q 1340 931 1339 921 l 1340 963 l 1340 1056 q 1340 1079 1340 1067 q 1331 1101 1339 1092 q 1315 1110 1324 1108 q 1297 1110 1306 1113 q 1271 1086 1278 1108 q 1267 1043 1265 1067 q 1269 1000 1269 1019 l 1269 950 q 1271 920 1269 936 q 1288 897 1272 904 m 1215 589 q 1233 586 1222 586 q 1251 589 1244 586 q 1265 604 1261 594 q 1269 624 1268 614 q 1270 639 1271 631 q 1269 654 1269 647 l 1269 749 q 1269 772 1269 760 q 1260 793 1268 785 q 1244 802 1253 800 q 1225 803 1235 804 q 1200 778 1206 799 q 1197 735 1196 758 q 1199 692 1199 713 l 1199 643 q 1200 612 1199 628 q 1215 589 1201 596 m 1693 560 l 1693 617 q 1694 637 1693 626 q 1693 657 1696 647 q 1685 683 1690 671 q 1675 708 1681 696 l 1636 829 l 1671 829 l 1713 700 l 1751 829 l 1788 829 q 1770 774 1779 801 q 1751 718 1761 746 l 1732 661 q 1729 644 1729 653 q 1729 626 1729 635 l 1729 560 l 1693 560 m 1754 868 l 1754 1138 l 1792 1138 l 1792 894 l 1861 894 l 1861 868 l 1754 868 m 1521 560 l 1521 829 l 1558 829 l 1558 586 l 1626 586 l 1626 560 l 1521 560 m 763 -225 q 739 -217 747 -225 q 727 -199 731 -210 q 724 -174 724 -187 q 724 -150 724 -161 q 724 -126 724 -139 q 729 -105 725 -114 q 742 -90 733 -96 q 767 -85 750 -83 q 788 -93 781 -86 q 798 -110 794 -100 q 801 -133 801 -121 q 801 -156 801 -146 q 801 -178 801 -167 q 797 -201 800 -190 q 785 -218 793 -211 q 763 -225 778 -225 m 1726 -224 l 1726 -86 q 1758 -85 1740 -86 q 1786 -94 1775 -85 q 1797 -123 1797 -106 q 1797 -156 1797 -140 q 1797 -188 1797 -169 q 1783 -217 1797 -207 q 1756 -224 1772 -225 q 1726 -224 1739 -224 m 1807 -396 q 1783 -388 1792 -396 q 1772 -369 1775 -381 q 1769 -345 1769 -358 q 1769 -321 1769 -332 q 1770 -297 1769 -308 q 1775 -275 1771 -285 q 1788 -260 1779 -265 q 1813 -256 1796 -254 q 1833 -264 1826 -257 q 1842 -281 1840 -271 q 1844 -304 1844 -292 q 1844 -326 1844 -317 q 1844 -349 1844 -337 q 1841 -372 1844 -361 q 1830 -389 1838 -382 q 1807 -396 1822 -396 m 646 -396 q 622 -388 629 -396 q 611 -369 614 -381 q 608 -345 608 -358 q 608 -321 608 -332 q 609 -297 608 -308 q 614 -275 610 -285 q 626 -260 618 -265 q 650 -256 635 -254 q 671 -264 664 -257 q 681 -281 678 -271 q 683 -304 683 -292 q 683 -326 683 -317 q 683 -349 683 -337 q 680 -372 683 -361 q 669 -389 676 -382 q 646 -396 661 -396 m 996 -394 l 996 -257 q 1023 -256 1008 -257 q 1049 -261 1038 -254 q 1061 -274 1057 -265 q 1065 -294 1065 -283 q 1061 -313 1065 -304 q 1047 -325 1057 -322 l 1068 -394 l 1049 -394 l 1032 -329 l 1017 -329 l 1017 -394 l 996 -394 m 701 -394 l 704 -257 l 724 -257 l 749 -368 l 772 -257 l 790 -257 l 793 -394 l 778 -394 l 776 -294 l 753 -394 l 742 -394 l 719 -294 l 718 -394 l 701 -394 m 814 -394 l 817 -257 l 836 -257 l 860 -368 l 885 -257 l 904 -257 l 906 -394 l 892 -394 l 889 -294 l 865 -394 l 854 -394 l 832 -294 l 829 -394 l 814 -394 m 1561 -394 l 1561 -257 q 1588 -256 1574 -257 q 1613 -261 1601 -254 q 1625 -274 1621 -265 q 1629 -294 1629 -283 q 1625 -313 1629 -304 q 1613 -325 1621 -322 l 1632 -394 l 1613 -394 l 1596 -329 l 1581 -329 l 1581 -394 l 1561 -394 m 819 -224 l 819 -86 q 846 -85 832 -86 q 871 -90 860 -83 q 883 -104 879 -94 q 888 -124 888 -114 q 885 -144 889 -135 q 871 -156 881 -153 l 890 -224 l 872 -224 l 853 -160 l 839 -160 l 839 -224 l 819 -224 m 833 356 l 833 494 q 869 494 849 494 q 897 479 889 494 q 902 452 903 468 q 890 428 901 436 q 872 420 882 421 q 853 419 863 419 l 853 356 l 833 356 m 1636 -224 l 1636 -86 l 1649 -86 l 1688 -178 l 1688 -86 l 1704 -86 l 1704 -224 l 1692 -224 l 1653 -131 l 1653 -224 l 1636 -224 m 1015 -224 l 1015 -86 l 1033 -86 l 1033 -146 l 1071 -146 l 1071 -86 l 1089 -86 l 1089 -224 l 1071 -224 l 1071 -160 l 1033 -160 l 1033 -224 l 1015 -224 m 1865 -394 l 1865 -257 l 1878 -257 l 1917 -349 l 1917 -257 l 1932 -257 l 1932 -394 l 1919 -394 l 1881 -301 l 1881 -394 l 1865 -394 m 1044 356 l 1074 494 l 1093 494 l 1122 356 l 1103 356 l 1097 392 l 1069 392 l 1063 356 l 1044 356 m 1207 -394 l 1238 -257 l 1256 -257 l 1285 -394 l 1267 -394 l 1261 -360 l 1232 -360 l 1225 -394 l 1207 -394 m 1546 -224 l 1574 -86 l 1593 -86 l 1622 -224 l 1604 -224 l 1597 -189 l 1569 -189 l 1563 -224 l 1546 -224 m 1819 618 l 1808 829 l 1844 829 l 1832 618 l 1819 618 m 1336 -224 q 1302 -221 1317 -231 q 1285 -192 1288 -211 q 1284 -175 1283 -183 q 1285 -160 1285 -167 l 1285 -86 l 1303 -86 l 1303 -147 q 1302 -165 1303 -154 q 1302 -185 1301 -175 q 1307 -203 1303 -196 q 1321 -211 1311 -211 q 1335 -203 1331 -211 q 1340 -185 1339 -196 q 1341 -165 1342 -175 q 1340 -147 1340 -154 l 1340 -86 l 1357 -86 l 1357 -149 q 1358 -169 1357 -157 q 1357 -191 1358 -181 q 1351 -210 1356 -201 q 1336 -224 1346 -219 m 647 1021 q 667 1020 657 1021 q 686 1022 676 1019 q 705 1038 701 1026 q 708 1061 708 1049 q 706 1090 710 1076 q 686 1108 703 1104 q 667 1110 676 1111 q 647 1110 657 1110 l 647 1021 m 943 1021 q 963 1021 953 1021 q 982 1024 972 1021 q 1000 1042 996 1031 q 1003 1068 1004 1054 q 999 1091 1003 1081 q 982 1107 996 1101 q 963 1110 972 1110 q 943 1110 953 1110 l 943 1021 m 557 -396 q 531 -386 539 -396 q 521 -362 524 -376 q 519 -331 518 -347 q 519 -301 519 -314 q 529 -267 519 -282 q 561 -256 539 -253 q 588 -274 583 -258 q 592 -306 592 -289 l 574 -306 q 574 -292 574 -299 q 572 -279 575 -286 q 559 -270 569 -271 q 543 -276 549 -269 q 539 -301 538 -285 q 540 -326 540 -317 q 539 -351 540 -336 q 544 -375 538 -367 q 559 -381 549 -382 q 572 -371 569 -379 q 574 -357 575 -364 q 574 -343 574 -350 l 592 -343 q 586 -379 592 -362 q 557 -396 581 -396 m 1119 -396 q 1094 -386 1101 -396 q 1084 -362 1086 -376 q 1083 -331 1082 -347 q 1083 -301 1083 -314 q 1092 -267 1083 -282 q 1124 -256 1101 -253 q 1150 -274 1146 -258 q 1154 -306 1154 -289 l 1136 -306 q 1137 -292 1136 -299 q 1135 -279 1138 -286 q 1122 -270 1132 -271 q 1106 -276 1111 -269 q 1100 -301 1099 -285 q 1101 -326 1101 -317 q 1101 -351 1101 -336 q 1107 -375 1100 -367 q 1122 -381 1111 -382 q 1135 -371 1132 -379 q 1137 -357 1138 -364 q 1136 -343 1136 -350 l 1154 -343 q 1149 -379 1154 -362 q 1119 -396 1143 -396 m 1485 354 q 1458 366 1467 354 q 1449 394 1450 378 l 1467 400 q 1469 383 1467 393 q 1479 371 1472 374 q 1494 373 1489 368 q 1500 386 1500 378 q 1489 411 1501 401 q 1467 431 1476 421 q 1449 459 1454 442 q 1460 489 1444 476 q 1478 495 1467 494 q 1497 493 1489 496 q 1511 479 1507 489 q 1517 460 1515 469 l 1500 456 q 1497 469 1499 463 q 1489 481 1496 476 q 1476 481 1483 483 q 1468 471 1469 478 q 1472 451 1463 460 q 1488 436 1481 443 q 1505 420 1496 429 q 1517 399 1514 411 q 1513 368 1521 382 q 1485 354 1504 354 m 1168 354 q 1142 366 1150 354 q 1132 394 1133 378 l 1149 400 q 1151 383 1149 393 q 1161 371 1154 374 q 1177 373 1171 368 q 1183 386 1183 378 q 1171 411 1183 401 q 1149 431 1158 421 q 1133 459 1138 442 q 1143 489 1128 476 q 1161 495 1150 494 q 1181 493 1172 496 q 1194 479 1190 489 q 1200 460 1199 469 l 1183 456 q 1181 469 1182 463 q 1172 481 1179 476 q 1159 481 1165 483 q 1150 471 1153 478 q 1154 451 1146 460 q 1169 436 1163 443 q 1188 420 1179 429 q 1200 399 1197 411 q 1195 368 1204 382 q 1168 354 1186 354 m 1682 -396 q 1656 -384 1664 -396 q 1646 -356 1647 -372 l 1663 -351 q 1665 -367 1663 -358 q 1675 -379 1668 -376 q 1691 -378 1685 -383 q 1697 -365 1697 -374 q 1685 -340 1697 -350 q 1663 -321 1672 -329 q 1647 -292 1651 -310 q 1657 -262 1642 -274 q 1675 -255 1664 -256 q 1694 -258 1686 -254 q 1708 -271 1704 -261 q 1714 -290 1713 -281 l 1697 -296 q 1694 -281 1696 -289 q 1686 -271 1693 -274 q 1673 -270 1679 -268 q 1664 -279 1667 -272 q 1668 -299 1660 -290 q 1683 -314 1676 -307 q 1702 -331 1693 -322 q 1714 -353 1711 -340 q 1709 -383 1718 -369 q 1682 -396 1700 -396 m 1349 356 l 1318 494 l 1336 494 l 1357 393 l 1379 494 l 1396 494 l 1365 356 l 1349 356 m 1431 -394 l 1399 -257 l 1417 -257 l 1439 -358 l 1458 -257 l 1476 -257 l 1446 -394 l 1431 -394 m 1215 356 l 1215 494 l 1269 494 l 1269 481 l 1236 481 l 1236 435 l 1264 435 l 1264 421 l 1236 421 l 1236 369 l 1271 369 l 1271 356 l 1215 356 m 1110 -224 l 1110 -86 l 1164 -86 l 1164 -100 l 1131 -100 l 1131 -146 l 1158 -146 l 1158 -160 l 1131 -160 l 1131 -211 l 1164 -211 l 1164 -224 l 1110 -224 m 1492 -394 l 1492 -257 l 1546 -257 l 1546 -271 l 1511 -271 l 1511 -315 l 1539 -315 l 1539 -329 l 1511 -329 l 1511 -381 l 1546 -381 l 1546 -394 l 1492 -394 m 928 -394 l 928 -257 l 981 -257 l 981 -271 l 946 -271 l 946 -315 l 975 -315 l 975 -329 l 946 -329 l 946 -381 l 981 -381 l 981 -394 l 928 -394 m 982 356 l 982 494 l 1036 494 l 1036 481 l 1001 481 l 1001 435 l 1029 435 l 1029 421 l 1001 421 l 1001 369 l 1036 369 l 1036 356 l 982 356 m 753 -208 q 771 -210 765 -214 q 778 -197 776 -206 q 781 -178 781 -189 q 781 -161 781 -168 q 782 -128 781 -150 q 772 -101 783 -107 q 751 -103 758 -94 q 744 -124 744 -112 l 744 -146 q 744 -160 744 -150 q 743 -179 743 -169 q 745 -197 743 -189 q 753 -208 747 -206 m 1799 -378 q 1816 -380 1810 -383 q 1824 -368 1822 -376 q 1826 -349 1826 -360 q 1826 -332 1826 -339 q 1827 -317 1826 -326 q 1827 -299 1828 -308 q 1824 -283 1826 -290 q 1817 -272 1822 -275 q 1797 -274 1803 -265 q 1790 -294 1790 -283 l 1790 -315 q 1790 -329 1790 -319 q 1789 -349 1789 -339 q 1791 -368 1789 -360 q 1799 -378 1793 -376 m 636 -378 q 653 -380 647 -383 q 662 -368 660 -376 q 664 -349 664 -360 q 664 -332 664 -339 q 665 -317 664 -326 q 665 -299 665 -308 q 663 -283 665 -290 q 656 -272 661 -275 q 634 -274 640 -265 q 628 -294 628 -283 q 627 -305 626 -300 q 628 -315 628 -310 q 627 -329 628 -319 q 626 -349 626 -339 q 628 -368 626 -360 q 636 -378 631 -376 m 660 -224 l 660 -86 l 714 -86 l 714 -100 l 681 -100 l 681 -146 l 707 -146 l 707 -160 l 681 -160 l 681 -224 l 660 -224 m 1219 -224 l 1219 -86 l 1272 -86 l 1272 -100 l 1238 -100 l 1238 -146 l 1264 -146 l 1264 -160 l 1238 -160 l 1238 -224 l 1219 -224 m 1746 -211 q 1766 -209 1757 -211 q 1778 -192 1775 -207 l 1778 -156 l 1778 -121 q 1767 -103 1776 -106 q 1746 -100 1758 -100 l 1746 -211 m 961 -224 l 961 -100 l 936 -100 l 936 -86 l 1006 -86 l 1006 -100 l 981 -100 l 981 -224 l 961 -224 m 1590 356 l 1590 481 l 1565 481 l 1565 494 l 1633 494 l 1633 481 l 1610 481 l 1610 356 l 1590 356 m 1300 -394 l 1300 -257 l 1318 -257 l 1318 -381 l 1354 -381 l 1354 -394 l 1300 -394 m 1379 -224 l 1379 -86 l 1397 -86 l 1397 -211 l 1432 -211 l 1432 -224 l 1379 -224 m 1446 -224 l 1446 -86 l 1465 -86 l 1465 -211 l 1500 -211 l 1500 -224 l 1446 -224 m 915 356 l 915 494 l 933 494 l 933 369 l 968 369 l 968 356 l 915 356 m 1411 356 l 1411 494 l 1431 494 l 1431 356 l 1411 356 m 1629 963 l 1675 963 l 1651 1085 l 1629 963 m 596 -10 l 646 -10 l 646 46 l 596 46 l 596 -10 m 1224 243 q 1240 244 1231 243 q 1253 239 1249 244 q 1260 205 1261 228 q 1251 171 1260 182 q 1238 164 1246 164 q 1224 164 1231 164 l 1224 243 m 2079 243 q 2095 244 2086 243 q 2110 239 2104 244 q 2116 205 2117 228 q 2108 171 2115 182 q 2094 164 2101 164 q 2079 164 2086 164 l 2079 243 m 1174 -394 l 1174 -257 l 1193 -257 l 1193 -394 l 1174 -394 m 1731 -394 l 1731 -257 l 1750 -257 l 1750 -394 l 1731 -394 m 1533 356 l 1533 494 l 1553 494 l 1553 356 l 1533 356 m 1808 560 l 1808 597 l 1844 597 l 1844 560 l 1808 560 m 853 433 q 863 433 857 433 q 874 436 868 433 q 882 447 881 439 q 883 461 883 454 q 874 478 882 476 q 853 481 865 481 l 853 433 m 839 -146 q 860 -142 851 -146 q 869 -122 869 -137 q 861 -103 869 -107 q 839 -100 853 -100 l 839 -146 m 1581 -315 q 1602 -312 1593 -315 q 1611 -293 1611 -308 q 1602 -274 1611 -278 q 1581 -271 1593 -271 l 1581 -315 m 1017 -315 q 1038 -312 1029 -315 q 1046 -293 1046 -308 q 1038 -274 1046 -278 q 1017 -271 1029 -271 l 1017 -315 m 1235 -346 l 1258 -346 l 1247 -283 l 1235 -346 m 1572 -175 l 1596 -175 l 1585 -112 l 1572 -175 m 1071 406 l 1094 406 l 1083 468 l 1071 406 m 1376 104 l 1386 163 l 1394 104 l 1376 104 z "},"2":{"ha":2375,"x_min":218,"x_max":2164,"o":"m 339 288 l 304 101 l 271 288 l 222 288 l 218 -10 l 263 -10 l 264 111 l 288 -10 l 322 -10 l 346 113 l 347 -10 l 392 -10 l 389 288 l 339 288 m 1304 865 q 1256 881 1275 865 q 1233 924 1238 896 q 1231 950 1231 938 q 1231 976 1231 963 q 1229 1035 1231 1004 q 1236 1093 1228 1065 q 1260 1127 1243 1117 q 1300 1139 1276 1138 q 1343 1132 1324 1140 q 1371 1100 1363 1124 q 1381 1042 1382 1074 q 1379 982 1379 1010 q 1378 951 1379 967 q 1375 919 1378 935 q 1304 865 1363 865 m 1235 557 q 1163 615 1174 557 q 1160 642 1160 629 q 1161 669 1161 656 q 1160 728 1161 697 q 1165 785 1158 758 q 1189 819 1172 808 q 1229 831 1206 831 q 1272 824 1253 832 q 1301 792 1292 815 q 1310 734 1313 765 q 1307 675 1307 703 q 1307 643 1307 658 q 1304 613 1307 628 q 1281 571 1299 585 q 1235 557 1263 557 m 2096 288 l 2029 288 l 2029 -10 l 2079 -10 l 2079 121 l 2093 121 l 2113 -10 l 2163 -10 l 2138 133 q 2163 186 2158 151 q 2162 222 2164 204 q 2152 255 2160 240 q 2131 278 2144 269 q 2096 288 2117 288 m 518 144 l 467 288 l 429 288 l 429 -10 l 475 -10 l 475 136 l 526 -10 l 564 -10 l 564 288 l 518 288 l 518 144 m 1665 144 l 1615 288 l 1576 288 l 1576 -10 l 1624 -10 l 1624 136 l 1675 -10 l 1713 -10 l 1713 288 l 1665 288 l 1665 144 m 892 101 l 921 101 q 921 82 921 94 q 919 57 921 69 q 910 37 917 44 q 892 33 904 29 q 881 44 883 36 q 876 61 878 51 q 876 81 875 71 q 876 97 876 90 l 876 168 q 876 200 876 183 q 879 232 875 217 q 901 244 886 247 q 917 226 915 240 q 919 204 919 215 q 918 182 918 193 l 968 182 q 965 236 968 207 q 936 281 961 265 q 903 290 921 289 q 869 286 885 290 q 840 262 849 279 q 826 225 831 244 q 824 183 824 204 q 825 139 825 161 q 824 98 825 118 q 826 57 824 78 q 835 22 829 39 q 857 -4 842 6 q 894 -15 872 -15 q 929 0 915 -14 l 931 -10 l 969 -10 l 969 144 l 892 144 l 892 101 m 1363 288 l 1308 -10 l 1358 -10 l 1369 60 l 1401 60 l 1413 -10 l 1463 -10 l 1410 288 l 1363 288 m 1239 288 l 1174 288 l 1174 -10 l 1224 -10 l 1224 121 q 1249 122 1236 121 q 1274 128 1261 122 q 1296 152 1289 136 q 1306 186 1303 168 q 1306 222 1308 204 q 1297 255 1304 240 q 1274 278 1289 269 q 1239 288 1260 288 m 906 868 l 906 1138 q 959 1138 931 1138 q 1010 1126 988 1139 q 1033 1100 1025 1118 q 1040 1062 1040 1082 q 1032 1025 1040 1042 q 1007 1003 1024 1008 l 1044 868 l 1007 868 l 972 994 l 943 994 l 943 868 l 906 868 m 768 144 l 743 172 q 728 187 736 179 q 717 206 719 194 q 716 231 713 217 q 735 244 719 246 q 747 237 743 243 q 751 222 750 231 q 753 203 753 213 q 754 189 754 194 l 800 192 q 794 245 800 218 q 763 285 788 272 q 730 290 746 292 q 701 281 714 289 q 678 260 688 274 q 668 231 669 247 q 668 195 665 213 q 682 163 671 178 q 693 148 686 154 q 706 135 700 142 q 738 100 721 118 q 754 58 754 82 q 752 43 754 51 q 742 33 750 35 q 722 44 729 29 q 715 69 715 56 q 713 97 714 83 l 667 93 q 669 58 667 75 q 678 22 671 40 q 708 -8 689 1 q 750 -12 728 -17 q 787 9 774 -8 q 803 47 800 26 q 797 100 806 75 q 768 144 788 125 m 610 868 l 610 1138 l 668 1138 q 706 1133 688 1138 q 735 1108 724 1128 q 744 1054 746 1085 q 722 1007 743 1024 q 687 994 707 994 q 647 993 667 993 l 647 868 l 610 868 m 1939 122 l 1986 122 l 1986 164 l 1939 164 l 1939 243 l 1997 243 l 1997 288 l 1889 288 l 1889 -10 l 1997 -10 l 1997 33 l 1939 33 l 1939 122 m 1344 560 l 1344 829 l 1369 829 l 1447 650 l 1447 829 l 1479 829 l 1479 560 l 1454 560 l 1376 743 l 1376 560 l 1344 560 m 1417 868 l 1417 1138 l 1442 1138 l 1518 958 l 1518 1138 l 1549 1138 l 1549 868 l 1525 868 l 1447 1051 l 1447 868 l 1417 868 m 714 561 q 660 560 689 551 q 621 596 632 568 q 613 627 614 611 q 613 661 613 643 l 613 829 l 649 829 l 649 650 q 651 615 649 635 q 672 588 653 594 q 696 586 686 582 q 711 600 706 590 q 719 622 717 610 q 721 644 721 633 q 722 688 722 667 q 721 731 721 708 l 721 829 l 757 829 l 757 706 q 758 667 757 689 q 756 624 760 644 q 744 585 753 603 q 714 561 735 568 m 1576 868 l 1635 1138 l 1669 1138 l 1726 868 l 1692 868 l 1679 935 l 1624 935 l 1611 868 l 1576 868 m 1826 243 l 1868 243 l 1868 288 l 1735 288 l 1735 243 l 1776 243 l 1776 -10 l 1826 -10 l 1826 243 m 860 557 q 808 580 825 557 q 789 636 790 603 l 822 644 q 826 619 824 632 q 838 596 828 606 q 858 587 846 588 q 881 593 871 586 q 890 619 892 603 q 882 646 889 635 q 869 661 876 654 q 853 675 861 668 q 825 700 840 688 q 800 728 810 713 q 791 787 783 754 q 829 829 799 819 q 863 832 844 833 q 894 821 882 831 q 913 794 908 810 q 919 763 918 778 l 889 753 q 883 784 888 768 q 860 803 878 800 q 837 799 847 804 q 824 779 826 793 q 824 759 821 768 q 835 742 828 750 q 851 726 842 733 q 867 714 860 719 q 901 681 885 699 q 922 640 917 664 q 912 583 929 608 q 860 557 894 557 m 1142 865 q 1090 888 1108 865 q 1071 943 1072 911 l 1104 951 q 1108 926 1106 939 q 1119 904 1111 913 q 1140 894 1128 896 q 1163 901 1153 893 q 1172 927 1174 911 q 1164 954 1171 943 q 1151 969 1158 963 q 1135 983 1143 976 q 1107 1007 1122 994 q 1082 1035 1092 1019 q 1072 1065 1074 1049 q 1073 1095 1069 1081 q 1086 1121 1076 1110 q 1111 1136 1096 1132 q 1145 1139 1126 1140 q 1176 1128 1164 1138 q 1195 1101 1190 1118 q 1201 1069 1200 1085 l 1171 1061 q 1165 1092 1169 1076 q 1142 1111 1160 1108 q 1119 1106 1129 1113 q 1106 1088 1108 1100 q 1117 1049 1101 1064 q 1149 1021 1133 1033 q 1183 989 1167 1006 q 1204 949 1199 972 q 1194 891 1211 917 q 1142 865 1176 865 m 992 -47 l 1036 -47 l 1118 325 l 1071 325 l 992 -47 m 771 868 l 771 1138 l 875 1138 l 875 1110 l 808 1110 l 808 1021 l 863 1021 l 863 993 l 808 993 l 808 894 l 876 894 l 876 868 l 771 868 m 1538 288 l 1486 288 l 1486 -10 l 1538 -10 l 1538 288 m 954 560 l 954 829 l 1058 829 l 1058 801 l 992 801 l 992 713 l 1046 713 l 1046 686 l 992 686 l 992 586 l 1058 586 l 1058 560 l 954 560 m 1288 897 q 1324 897 1304 890 q 1336 912 1333 903 q 1340 931 1339 921 l 1340 963 l 1340 1056 q 1340 1079 1340 1067 q 1331 1101 1339 1092 q 1315 1110 1324 1108 q 1297 1110 1306 1113 q 1271 1086 1278 1108 q 1267 1043 1265 1067 q 1269 1000 1269 1019 l 1269 950 q 1271 920 1269 936 q 1288 897 1272 904 m 1215 589 q 1233 586 1222 586 q 1251 589 1244 586 q 1265 604 1261 594 q 1269 624 1268 614 q 1270 639 1271 631 q 1269 654 1269 647 l 1269 749 q 1269 772 1269 760 q 1260 793 1268 785 q 1244 802 1253 800 q 1225 803 1235 804 q 1200 778 1206 799 q 1197 735 1196 758 q 1199 692 1199 713 l 1199 643 q 1200 612 1199 628 q 1215 589 1201 596 m 1693 560 l 1693 617 q 1694 637 1693 626 q 1693 657 1696 647 q 1685 683 1690 671 q 1675 708 1681 696 l 1636 829 l 1671 829 l 1713 700 l 1751 829 l 1788 829 q 1770 774 1779 801 q 1751 718 1761 746 l 1732 661 q 1729 644 1729 653 q 1729 626 1729 635 l 1729 560 l 1693 560 m 1754 868 l 1754 1138 l 1792 1138 l 1792 894 l 1861 894 l 1861 868 l 1754 868 m 1521 560 l 1521 829 l 1558 829 l 1558 586 l 1626 586 l 1626 560 l 1521 560 m 763 -225 q 739 -217 747 -225 q 727 -199 731 -210 q 724 -174 724 -187 q 724 -150 724 -161 q 724 -126 724 -139 q 729 -105 725 -114 q 742 -90 733 -96 q 767 -85 750 -83 q 788 -93 781 -86 q 798 -110 794 -100 q 801 -133 801 -121 q 801 -156 801 -146 q 801 -178 801 -167 q 797 -201 800 -190 q 785 -218 793 -211 q 763 -225 778 -225 m 1726 -224 l 1726 -86 q 1758 -85 1740 -86 q 1786 -94 1775 -85 q 1797 -123 1797 -106 q 1797 -156 1797 -140 q 1797 -188 1797 -169 q 1783 -217 1797 -207 q 1756 -224 1772 -225 q 1726 -224 1739 -224 m 1807 -396 q 1783 -388 1792 -396 q 1772 -369 1775 -381 q 1769 -345 1769 -358 q 1769 -321 1769 -332 q 1770 -297 1769 -308 q 1775 -275 1771 -285 q 1788 -260 1779 -265 q 1813 -256 1796 -254 q 1833 -264 1826 -257 q 1842 -281 1840 -271 q 1844 -304 1844 -292 q 1844 -326 1844 -317 q 1844 -349 1844 -337 q 1841 -372 1844 -361 q 1830 -389 1838 -382 q 1807 -396 1822 -396 m 646 -396 q 622 -388 629 -396 q 611 -369 614 -381 q 608 -345 608 -358 q 608 -321 608 -332 q 609 -297 608 -308 q 614 -275 610 -285 q 626 -260 618 -265 q 650 -256 635 -254 q 671 -264 664 -257 q 681 -281 678 -271 q 683 -304 683 -292 q 683 -326 683 -317 q 683 -349 683 -337 q 680 -372 683 -361 q 669 -389 676 -382 q 646 -396 661 -396 m 996 -394 l 996 -257 q 1023 -256 1008 -257 q 1049 -261 1038 -254 q 1061 -274 1057 -265 q 1065 -294 1065 -283 q 1061 -313 1065 -304 q 1047 -325 1057 -322 l 1068 -394 l 1049 -394 l 1032 -329 l 1017 -329 l 1017 -394 l 996 -394 m 701 -394 l 704 -257 l 724 -257 l 749 -368 l 772 -257 l 790 -257 l 793 -394 l 778 -394 l 776 -294 l 753 -394 l 742 -394 l 719 -294 l 718 -394 l 701 -394 m 814 -394 l 817 -257 l 836 -257 l 860 -368 l 885 -257 l 904 -257 l 906 -394 l 892 -394 l 889 -294 l 865 -394 l 854 -394 l 832 -294 l 829 -394 l 814 -394 m 1561 -394 l 1561 -257 q 1588 -256 1574 -257 q 1613 -261 1601 -254 q 1625 -274 1621 -265 q 1629 -294 1629 -283 q 1625 -313 1629 -304 q 1613 -325 1621 -322 l 1632 -394 l 1613 -394 l 1596 -329 l 1581 -329 l 1581 -394 l 1561 -394 m 819 -224 l 819 -86 q 846 -85 832 -86 q 871 -90 860 -83 q 883 -104 879 -94 q 888 -124 888 -114 q 885 -144 889 -135 q 871 -156 881 -153 l 890 -224 l 872 -224 l 853 -160 l 839 -160 l 839 -224 l 819 -224 m 833 356 l 833 494 q 869 494 849 494 q 897 479 889 494 q 902 452 903 468 q 890 428 901 436 q 872 420 882 421 q 853 419 863 419 l 853 356 l 833 356 m 1636 -224 l 1636 -86 l 1649 -86 l 1688 -178 l 1688 -86 l 1704 -86 l 1704 -224 l 1692 -224 l 1653 -131 l 1653 -224 l 1636 -224 m 1015 -224 l 1015 -86 l 1033 -86 l 1033 -146 l 1071 -146 l 1071 -86 l 1089 -86 l 1089 -224 l 1071 -224 l 1071 -160 l 1033 -160 l 1033 -224 l 1015 -224 m 1865 -394 l 1865 -257 l 1878 -257 l 1917 -349 l 1917 -257 l 1932 -257 l 1932 -394 l 1919 -394 l 1881 -301 l 1881 -394 l 1865 -394 m 1044 356 l 1074 494 l 1093 494 l 1122 356 l 1103 356 l 1097 392 l 1069 392 l 1063 356 l 1044 356 m 1207 -394 l 1238 -257 l 1256 -257 l 1285 -394 l 1267 -394 l 1261 -360 l 1232 -360 l 1225 -394 l 1207 -394 m 1546 -224 l 1574 -86 l 1593 -86 l 1622 -224 l 1604 -224 l 1597 -189 l 1569 -189 l 1563 -224 l 1546 -224 m 1819 618 l 1808 829 l 1844 829 l 1832 618 l 1819 618 m 1336 -224 q 1302 -221 1317 -231 q 1285 -192 1288 -211 q 1284 -175 1283 -183 q 1285 -160 1285 -167 l 1285 -86 l 1303 -86 l 1303 -147 q 1302 -165 1303 -154 q 1302 -185 1301 -175 q 1307 -203 1303 -196 q 1321 -211 1311 -211 q 1335 -203 1331 -211 q 1340 -185 1339 -196 q 1341 -165 1342 -175 q 1340 -147 1340 -154 l 1340 -86 l 1357 -86 l 1357 -149 q 1358 -169 1357 -157 q 1357 -191 1358 -181 q 1351 -210 1356 -201 q 1336 -224 1346 -219 m 647 1021 q 667 1020 657 1021 q 686 1022 676 1019 q 705 1038 701 1026 q 708 1061 708 1049 q 706 1090 710 1076 q 686 1108 703 1104 q 667 1110 676 1111 q 647 1110 657 1110 l 647 1021 m 943 1021 q 963 1021 953 1021 q 982 1024 972 1021 q 1000 1042 996 1031 q 1003 1068 1004 1054 q 999 1091 1003 1081 q 982 1107 996 1101 q 963 1110 972 1110 q 943 1110 953 1110 l 943 1021 m 557 -396 q 531 -386 539 -396 q 521 -362 524 -376 q 519 -331 518 -347 q 519 -301 519 -314 q 529 -267 519 -282 q 561 -256 539 -253 q 588 -274 583 -258 q 592 -306 592 -289 l 574 -306 q 574 -292 574 -299 q 572 -279 575 -286 q 559 -270 569 -271 q 543 -276 549 -269 q 539 -301 538 -285 q 540 -326 540 -317 q 539 -351 540 -336 q 544 -375 538 -367 q 559 -381 549 -382 q 572 -371 569 -379 q 574 -357 575 -364 q 574 -343 574 -350 l 592 -343 q 586 -379 592 -362 q 557 -396 581 -396 m 1119 -396 q 1094 -386 1101 -396 q 1084 -362 1086 -376 q 1083 -331 1082 -347 q 1083 -301 1083 -314 q 1092 -267 1083 -282 q 1124 -256 1101 -253 q 1150 -274 1146 -258 q 1154 -306 1154 -289 l 1136 -306 q 1137 -292 1136 -299 q 1135 -279 1138 -286 q 1122 -270 1132 -271 q 1106 -276 1111 -269 q 1100 -301 1099 -285 q 1101 -326 1101 -317 q 1101 -351 1101 -336 q 1107 -375 1100 -367 q 1122 -381 1111 -382 q 1135 -371 1132 -379 q 1137 -357 1138 -364 q 1136 -343 1136 -350 l 1154 -343 q 1149 -379 1154 -362 q 1119 -396 1143 -396 m 1485 354 q 1458 366 1467 354 q 1449 394 1450 378 l 1467 400 q 1469 383 1467 393 q 1479 371 1472 374 q 1494 373 1489 368 q 1500 386 1500 378 q 1489 411 1501 401 q 1467 431 1476 421 q 1449 459 1454 442 q 1460 489 1444 476 q 1478 495 1467 494 q 1497 493 1489 496 q 1511 479 1507 489 q 1517 460 1515 469 l 1500 456 q 1497 469 1499 463 q 1489 481 1496 476 q 1476 481 1483 483 q 1468 471 1469 478 q 1472 451 1463 460 q 1488 436 1481 443 q 1505 420 1496 429 q 1517 399 1514 411 q 1513 368 1521 382 q 1485 354 1504 354 m 1168 354 q 1142 366 1150 354 q 1132 394 1133 378 l 1149 400 q 1151 383 1149 393 q 1161 371 1154 374 q 1177 373 1171 368 q 1183 386 1183 378 q 1171 411 1183 401 q 1149 431 1158 421 q 1133 459 1138 442 q 1143 489 1128 476 q 1161 495 1150 494 q 1181 493 1172 496 q 1194 479 1190 489 q 1200 460 1199 469 l 1183 456 q 1181 469 1182 463 q 1172 481 1179 476 q 1159 481 1165 483 q 1150 471 1153 478 q 1154 451 1146 460 q 1169 436 1163 443 q 1188 420 1179 429 q 1200 399 1197 411 q 1195 368 1204 382 q 1168 354 1186 354 m 1682 -396 q 1656 -384 1664 -396 q 1646 -356 1647 -372 l 1663 -351 q 1665 -367 1663 -358 q 1675 -379 1668 -376 q 1691 -378 1685 -383 q 1697 -365 1697 -374 q 1685 -340 1697 -350 q 1663 -321 1672 -329 q 1647 -292 1651 -310 q 1657 -262 1642 -274 q 1675 -255 1664 -256 q 1694 -258 1686 -254 q 1708 -271 1704 -261 q 1714 -290 1713 -281 l 1697 -296 q 1694 -281 1696 -289 q 1686 -271 1693 -274 q 1673 -270 1679 -268 q 1664 -279 1667 -272 q 1668 -299 1660 -290 q 1683 -314 1676 -307 q 1702 -331 1693 -322 q 1714 -353 1711 -340 q 1709 -383 1718 -369 q 1682 -396 1700 -396 m 1349 356 l 1318 494 l 1336 494 l 1357 393 l 1379 494 l 1396 494 l 1365 356 l 1349 356 m 1431 -394 l 1399 -257 l 1417 -257 l 1439 -358 l 1458 -257 l 1476 -257 l 1446 -394 l 1431 -394 m 1215 356 l 1215 494 l 1269 494 l 1269 481 l 1236 481 l 1236 435 l 1264 435 l 1264 421 l 1236 421 l 1236 369 l 1271 369 l 1271 356 l 1215 356 m 1110 -224 l 1110 -86 l 1164 -86 l 1164 -100 l 1131 -100 l 1131 -146 l 1158 -146 l 1158 -160 l 1131 -160 l 1131 -211 l 1164 -211 l 1164 -224 l 1110 -224 m 1492 -394 l 1492 -257 l 1546 -257 l 1546 -271 l 1511 -271 l 1511 -315 l 1539 -315 l 1539 -329 l 1511 -329 l 1511 -381 l 1546 -381 l 1546 -394 l 1492 -394 m 928 -394 l 928 -257 l 981 -257 l 981 -271 l 946 -271 l 946 -315 l 975 -315 l 975 -329 l 946 -329 l 946 -381 l 981 -381 l 981 -394 l 928 -394 m 982 356 l 982 494 l 1036 494 l 1036 481 l 1001 481 l 1001 435 l 1029 435 l 1029 421 l 1001 421 l 1001 369 l 1036 369 l 1036 356 l 982 356 m 753 -208 q 771 -210 765 -214 q 778 -197 776 -206 q 781 -178 781 -189 q 781 -161 781 -168 q 782 -128 781 -150 q 772 -101 783 -107 q 751 -103 758 -94 q 744 -124 744 -112 l 744 -146 q 744 -160 744 -150 q 743 -179 743 -169 q 745 -197 743 -189 q 753 -208 747 -206 m 1799 -378 q 1816 -380 1810 -383 q 1824 -368 1822 -376 q 1826 -349 1826 -360 q 1826 -332 1826 -339 q 1827 -317 1826 -326 q 1827 -299 1828 -308 q 1824 -283 1826 -290 q 1817 -272 1822 -275 q 1797 -274 1803 -265 q 1790 -294 1790 -283 l 1790 -315 q 1790 -329 1790 -319 q 1789 -349 1789 -339 q 1791 -368 1789 -360 q 1799 -378 1793 -376 m 636 -378 q 653 -380 647 -383 q 662 -368 660 -376 q 664 -349 664 -360 q 664 -332 664 -339 q 665 -317 664 -326 q 665 -299 665 -308 q 663 -283 665 -290 q 656 -272 661 -275 q 634 -274 640 -265 q 628 -294 628 -283 q 627 -305 626 -300 q 628 -315 628 -310 q 627 -329 628 -319 q 626 -349 626 -339 q 628 -368 626 -360 q 636 -378 631 -376 m 660 -224 l 660 -86 l 714 -86 l 714 -100 l 681 -100 l 681 -146 l 707 -146 l 707 -160 l 681 -160 l 681 -224 l 660 -224 m 1219 -224 l 1219 -86 l 1272 -86 l 1272 -100 l 1238 -100 l 1238 -146 l 1264 -146 l 1264 -160 l 1238 -160 l 1238 -224 l 1219 -224 m 1746 -211 q 1766 -209 1757 -211 q 1778 -192 1775 -207 l 1778 -156 l 1778 -121 q 1767 -103 1776 -106 q 1746 -100 1758 -100 l 1746 -211 m 961 -224 l 961 -100 l 936 -100 l 936 -86 l 1006 -86 l 1006 -100 l 981 -100 l 981 -224 l 961 -224 m 1590 356 l 1590 481 l 1565 481 l 1565 494 l 1633 494 l 1633 481 l 1610 481 l 1610 356 l 1590 356 m 1300 -394 l 1300 -257 l 1318 -257 l 1318 -381 l 1354 -381 l 1354 -394 l 1300 -394 m 1379 -224 l 1379 -86 l 1397 -86 l 1397 -211 l 1432 -211 l 1432 -224 l 1379 -224 m 1446 -224 l 1446 -86 l 1465 -86 l 1465 -211 l 1500 -211 l 1500 -224 l 1446 -224 m 915 356 l 915 494 l 933 494 l 933 369 l 968 369 l 968 356 l 915 356 m 1411 356 l 1411 494 l 1431 494 l 1431 356 l 1411 356 m 1629 963 l 1675 963 l 1651 1085 l 1629 963 m 596 -10 l 646 -10 l 646 46 l 596 46 l 596 -10 m 1224 243 q 1240 244 1231 243 q 1253 239 1249 244 q 1260 205 1261 228 q 1251 171 1260 182 q 1238 164 1246 164 q 1224 164 1231 164 l 1224 243 m 2079 243 q 2095 244 2086 243 q 2110 239 2104 244 q 2116 205 2117 228 q 2108 171 2115 182 q 2094 164 2101 164 q 2079 164 2086 164 l 2079 243 m 1174 -394 l 1174 -257 l 1193 -257 l 1193 -394 l 1174 -394 m 1731 -394 l 1731 -257 l 1750 -257 l 1750 -394 l 1731 -394 m 1533 356 l 1533 494 l 1553 494 l 1553 356 l 1533 356 m 1808 560 l 1808 597 l 1844 597 l 1844 560 l 1808 560 m 853 433 q 863 433 857 433 q 874 436 868 433 q 882 447 881 439 q 883 461 883 454 q 874 478 882 476 q 853 481 865 481 l 853 433 m 839 -146 q 860 -142 851 -146 q 869 -122 869 -137 q 861 -103 869 -107 q 839 -100 853 -100 l 839 -146 m 1581 -315 q 1602 -312 1593 -315 q 1611 -293 1611 -308 q 1602 -274 1611 -278 q 1581 -271 1593 -271 l 1581 -315 m 1017 -315 q 1038 -312 1029 -315 q 1046 -293 1046 -308 q 1038 -274 1046 -278 q 1017 -271 1029 -271 l 1017 -315 m 1235 -346 l 1258 -346 l 1247 -283 l 1235 -346 m 1572 -175 l 1596 -175 l 1585 -112 l 1572 -175 m 1071 406 l 1094 406 l 1083 468 l 1071 406 m 1376 104 l 1386 163 l 1394 104 l 1376 104 z "},"3":{"ha":2375,"x_min":218,"x_max":2164,"o":"m 339 288 l 304 101 l 271 288 l 222 288 l 218 -10 l 263 -10 l 264 111 l 288 -10 l 322 -10 l 346 113 l 347 -10 l 392 -10 l 389 288 l 339 288 m 1304 865 q 1256 881 1275 865 q 1233 924 1238 896 q 1231 950 1231 938 q 1231 976 1231 963 q 1229 1035 1231 1004 q 1236 1093 1228 1065 q 1260 1127 1243 1117 q 1300 1139 1276 1138 q 1343 1132 1324 1140 q 1371 1100 1363 1124 q 1381 1042 1382 1074 q 1379 982 1379 1010 q 1378 951 1379 967 q 1375 919 1378 935 q 1304 865 1363 865 m 1235 557 q 1163 615 1174 557 q 1160 642 1160 629 q 1161 669 1161 656 q 1160 728 1161 697 q 1165 785 1158 758 q 1189 819 1172 808 q 1229 831 1206 831 q 1272 824 1253 832 q 1301 792 1292 815 q 1310 734 1313 765 q 1307 675 1307 703 q 1307 643 1307 658 q 1304 613 1307 628 q 1281 571 1299 585 q 1235 557 1263 557 m 2096 288 l 2029 288 l 2029 -10 l 2079 -10 l 2079 121 l 2093 121 l 2113 -10 l 2163 -10 l 2138 133 q 2163 186 2158 151 q 2162 222 2164 204 q 2152 255 2160 240 q 2131 278 2144 269 q 2096 288 2117 288 m 518 144 l 467 288 l 429 288 l 429 -10 l 475 -10 l 475 136 l 526 -10 l 564 -10 l 564 288 l 518 288 l 518 144 m 1665 144 l 1615 288 l 1576 288 l 1576 -10 l 1624 -10 l 1624 136 l 1675 -10 l 1713 -10 l 1713 288 l 1665 288 l 1665 144 m 892 101 l 921 101 q 921 82 921 94 q 919 57 921 69 q 910 37 917 44 q 892 33 904 29 q 881 44 883 36 q 876 61 878 51 q 876 81 875 71 q 876 97 876 90 l 876 168 q 876 200 876 183 q 879 232 875 217 q 901 244 886 247 q 917 226 915 240 q 919 204 919 215 q 918 182 918 193 l 968 182 q 965 236 968 207 q 936 281 961 265 q 903 290 921 289 q 869 286 885 290 q 840 262 849 279 q 826 225 831 244 q 824 183 824 204 q 825 139 825 161 q 824 98 825 118 q 826 57 824 78 q 835 22 829 39 q 857 -4 842 6 q 894 -15 872 -15 q 929 0 915 -14 l 931 -10 l 969 -10 l 969 144 l 892 144 l 892 101 m 1363 288 l 1308 -10 l 1358 -10 l 1369 60 l 1401 60 l 1413 -10 l 1463 -10 l 1410 288 l 1363 288 m 1239 288 l 1174 288 l 1174 -10 l 1224 -10 l 1224 121 q 1249 122 1236 121 q 1274 128 1261 122 q 1296 152 1289 136 q 1306 186 1303 168 q 1306 222 1308 204 q 1297 255 1304 240 q 1274 278 1289 269 q 1239 288 1260 288 m 906 868 l 906 1138 q 959 1138 931 1138 q 1010 1126 988 1139 q 1033 1100 1025 1118 q 1040 1062 1040 1082 q 1032 1025 1040 1042 q 1007 1003 1024 1008 l 1044 868 l 1007 868 l 972 994 l 943 994 l 943 868 l 906 868 m 768 144 l 743 172 q 728 187 736 179 q 717 206 719 194 q 716 231 713 217 q 735 244 719 246 q 747 237 743 243 q 751 222 750 231 q 753 203 753 213 q 754 189 754 194 l 800 192 q 794 245 800 218 q 763 285 788 272 q 730 290 746 292 q 701 281 714 289 q 678 260 688 274 q 668 231 669 247 q 668 195 665 213 q 682 163 671 178 q 693 148 686 154 q 706 135 700 142 q 738 100 721 118 q 754 58 754 82 q 752 43 754 51 q 742 33 750 35 q 722 44 729 29 q 715 69 715 56 q 713 97 714 83 l 667 93 q 669 58 667 75 q 678 22 671 40 q 708 -8 689 1 q 750 -12 728 -17 q 787 9 774 -8 q 803 47 800 26 q 797 100 806 75 q 768 144 788 125 m 610 868 l 610 1138 l 668 1138 q 706 1133 688 1138 q 735 1108 724 1128 q 744 1054 746 1085 q 722 1007 743 1024 q 687 994 707 994 q 647 993 667 993 l 647 868 l 610 868 m 1939 122 l 1986 122 l 1986 164 l 1939 164 l 1939 243 l 1997 243 l 1997 288 l 1889 288 l 1889 -10 l 1997 -10 l 1997 33 l 1939 33 l 1939 122 m 1344 560 l 1344 829 l 1369 829 l 1447 650 l 1447 829 l 1479 829 l 1479 560 l 1454 560 l 1376 743 l 1376 560 l 1344 560 m 1417 868 l 1417 1138 l 1442 1138 l 1518 958 l 1518 1138 l 1549 1138 l 1549 868 l 1525 868 l 1447 1051 l 1447 868 l 1417 868 m 714 561 q 660 560 689 551 q 621 596 632 568 q 613 627 614 611 q 613 661 613 643 l 613 829 l 649 829 l 649 650 q 651 615 649 635 q 672 588 653 594 q 696 586 686 582 q 711 600 706 590 q 719 622 717 610 q 721 644 721 633 q 722 688 722 667 q 721 731 721 708 l 721 829 l 757 829 l 757 706 q 758 667 757 689 q 756 624 760 644 q 744 585 753 603 q 714 561 735 568 m 1576 868 l 1635 1138 l 1669 1138 l 1726 868 l 1692 868 l 1679 935 l 1624 935 l 1611 868 l 1576 868 m 1826 243 l 1868 243 l 1868 288 l 1735 288 l 1735 243 l 1776 243 l 1776 -10 l 1826 -10 l 1826 243 m 860 557 q 808 580 825 557 q 789 636 790 603 l 822 644 q 826 619 824 632 q 838 596 828 606 q 858 587 846 588 q 881 593 871 586 q 890 619 892 603 q 882 646 889 635 q 869 661 876 654 q 853 675 861 668 q 825 700 840 688 q 800 728 810 713 q 791 787 783 754 q 829 829 799 819 q 863 832 844 833 q 894 821 882 831 q 913 794 908 810 q 919 763 918 778 l 889 753 q 883 784 888 768 q 860 803 878 800 q 837 799 847 804 q 824 779 826 793 q 824 759 821 768 q 835 742 828 750 q 851 726 842 733 q 867 714 860 719 q 901 681 885 699 q 922 640 917 664 q 912 583 929 608 q 860 557 894 557 m 1142 865 q 1090 888 1108 865 q 1071 943 1072 911 l 1104 951 q 1108 926 1106 939 q 1119 904 1111 913 q 1140 894 1128 896 q 1163 901 1153 893 q 1172 927 1174 911 q 1164 954 1171 943 q 1151 969 1158 963 q 1135 983 1143 976 q 1107 1007 1122 994 q 1082 1035 1092 1019 q 1072 1065 1074 1049 q 1073 1095 1069 1081 q 1086 1121 1076 1110 q 1111 1136 1096 1132 q 1145 1139 1126 1140 q 1176 1128 1164 1138 q 1195 1101 1190 1118 q 1201 1069 1200 1085 l 1171 1061 q 1165 1092 1169 1076 q 1142 1111 1160 1108 q 1119 1106 1129 1113 q 1106 1088 1108 1100 q 1117 1049 1101 1064 q 1149 1021 1133 1033 q 1183 989 1167 1006 q 1204 949 1199 972 q 1194 891 1211 917 q 1142 865 1176 865 m 992 -47 l 1036 -47 l 1118 325 l 1071 325 l 992 -47 m 771 868 l 771 1138 l 875 1138 l 875 1110 l 808 1110 l 808 1021 l 863 1021 l 863 993 l 808 993 l 808 894 l 876 894 l 876 868 l 771 868 m 1538 288 l 1486 288 l 1486 -10 l 1538 -10 l 1538 288 m 954 560 l 954 829 l 1058 829 l 1058 801 l 992 801 l 992 713 l 1046 713 l 1046 686 l 992 686 l 992 586 l 1058 586 l 1058 560 l 954 560 m 1288 897 q 1324 897 1304 890 q 1336 912 1333 903 q 1340 931 1339 921 l 1340 963 l 1340 1056 q 1340 1079 1340 1067 q 1331 1101 1339 1092 q 1315 1110 1324 1108 q 1297 1110 1306 1113 q 1271 1086 1278 1108 q 1267 1043 1265 1067 q 1269 1000 1269 1019 l 1269 950 q 1271 920 1269 936 q 1288 897 1272 904 m 1215 589 q 1233 586 1222 586 q 1251 589 1244 586 q 1265 604 1261 594 q 1269 624 1268 614 q 1270 639 1271 631 q 1269 654 1269 647 l 1269 749 q 1269 772 1269 760 q 1260 793 1268 785 q 1244 802 1253 800 q 1225 803 1235 804 q 1200 778 1206 799 q 1197 735 1196 758 q 1199 692 1199 713 l 1199 643 q 1200 612 1199 628 q 1215 589 1201 596 m 1693 560 l 1693 617 q 1694 637 1693 626 q 1693 657 1696 647 q 1685 683 1690 671 q 1675 708 1681 696 l 1636 829 l 1671 829 l 1713 700 l 1751 829 l 1788 829 q 1770 774 1779 801 q 1751 718 1761 746 l 1732 661 q 1729 644 1729 653 q 1729 626 1729 635 l 1729 560 l 1693 560 m 1754 868 l 1754 1138 l 1792 1138 l 1792 894 l 1861 894 l 1861 868 l 1754 868 m 1521 560 l 1521 829 l 1558 829 l 1558 586 l 1626 586 l 1626 560 l 1521 560 m 763 -225 q 739 -217 747 -225 q 727 -199 731 -210 q 724 -174 724 -187 q 724 -150 724 -161 q 724 -126 724 -139 q 729 -105 725 -114 q 742 -90 733 -96 q 767 -85 750 -83 q 788 -93 781 -86 q 798 -110 794 -100 q 801 -133 801 -121 q 801 -156 801 -146 q 801 -178 801 -167 q 797 -201 800 -190 q 785 -218 793 -211 q 763 -225 778 -225 m 1726 -224 l 1726 -86 q 1758 -85 1740 -86 q 1786 -94 1775 -85 q 1797 -123 1797 -106 q 1797 -156 1797 -140 q 1797 -188 1797 -169 q 1783 -217 1797 -207 q 1756 -224 1772 -225 q 1726 -224 1739 -224 m 1807 -396 q 1783 -388 1792 -396 q 1772 -369 1775 -381 q 1769 -345 1769 -358 q 1769 -321 1769 -332 q 1770 -297 1769 -308 q 1775 -275 1771 -285 q 1788 -260 1779 -265 q 1813 -256 1796 -254 q 1833 -264 1826 -257 q 1842 -281 1840 -271 q 1844 -304 1844 -292 q 1844 -326 1844 -317 q 1844 -349 1844 -337 q 1841 -372 1844 -361 q 1830 -389 1838 -382 q 1807 -396 1822 -396 m 646 -396 q 622 -388 629 -396 q 611 -369 614 -381 q 608 -345 608 -358 q 608 -321 608 -332 q 609 -297 608 -308 q 614 -275 610 -285 q 626 -260 618 -265 q 650 -256 635 -254 q 671 -264 664 -257 q 681 -281 678 -271 q 683 -304 683 -292 q 683 -326 683 -317 q 683 -349 683 -337 q 680 -372 683 -361 q 669 -389 676 -382 q 646 -396 661 -396 m 996 -394 l 996 -257 q 1023 -256 1008 -257 q 1049 -261 1038 -254 q 1061 -274 1057 -265 q 1065 -294 1065 -283 q 1061 -313 1065 -304 q 1047 -325 1057 -322 l 1068 -394 l 1049 -394 l 1032 -329 l 1017 -329 l 1017 -394 l 996 -394 m 701 -394 l 704 -257 l 724 -257 l 749 -368 l 772 -257 l 790 -257 l 793 -394 l 778 -394 l 776 -294 l 753 -394 l 742 -394 l 719 -294 l 718 -394 l 701 -394 m 814 -394 l 817 -257 l 836 -257 l 860 -368 l 885 -257 l 904 -257 l 906 -394 l 892 -394 l 889 -294 l 865 -394 l 854 -394 l 832 -294 l 829 -394 l 814 -394 m 1561 -394 l 1561 -257 q 1588 -256 1574 -257 q 1613 -261 1601 -254 q 1625 -274 1621 -265 q 1629 -294 1629 -283 q 1625 -313 1629 -304 q 1613 -325 1621 -322 l 1632 -394 l 1613 -394 l 1596 -329 l 1581 -329 l 1581 -394 l 1561 -394 m 819 -224 l 819 -86 q 846 -85 832 -86 q 871 -90 860 -83 q 883 -104 879 -94 q 888 -124 888 -114 q 885 -144 889 -135 q 871 -156 881 -153 l 890 -224 l 872 -224 l 853 -160 l 839 -160 l 839 -224 l 819 -224 m 833 356 l 833 494 q 869 494 849 494 q 897 479 889 494 q 902 452 903 468 q 890 428 901 436 q 872 420 882 421 q 853 419 863 419 l 853 356 l 833 356 m 1636 -224 l 1636 -86 l 1649 -86 l 1688 -178 l 1688 -86 l 1704 -86 l 1704 -224 l 1692 -224 l 1653 -131 l 1653 -224 l 1636 -224 m 1015 -224 l 1015 -86 l 1033 -86 l 1033 -146 l 1071 -146 l 1071 -86 l 1089 -86 l 1089 -224 l 1071 -224 l 1071 -160 l 1033 -160 l 1033 -224 l 1015 -224 m 1865 -394 l 1865 -257 l 1878 -257 l 1917 -349 l 1917 -257 l 1932 -257 l 1932 -394 l 1919 -394 l 1881 -301 l 1881 -394 l 1865 -394 m 1044 356 l 1074 494 l 1093 494 l 1122 356 l 1103 356 l 1097 392 l 1069 392 l 1063 356 l 1044 356 m 1207 -394 l 1238 -257 l 1256 -257 l 1285 -394 l 1267 -394 l 1261 -360 l 1232 -360 l 1225 -394 l 1207 -394 m 1546 -224 l 1574 -86 l 1593 -86 l 1622 -224 l 1604 -224 l 1597 -189 l 1569 -189 l 1563 -224 l 1546 -224 m 1819 618 l 1808 829 l 1844 829 l 1832 618 l 1819 618 m 1336 -224 q 1302 -221 1317 -231 q 1285 -192 1288 -211 q 1284 -175 1283 -183 q 1285 -160 1285 -167 l 1285 -86 l 1303 -86 l 1303 -147 q 1302 -165 1303 -154 q 1302 -185 1301 -175 q 1307 -203 1303 -196 q 1321 -211 1311 -211 q 1335 -203 1331 -211 q 1340 -185 1339 -196 q 1341 -165 1342 -175 q 1340 -147 1340 -154 l 1340 -86 l 1357 -86 l 1357 -149 q 1358 -169 1357 -157 q 1357 -191 1358 -181 q 1351 -210 1356 -201 q 1336 -224 1346 -219 m 647 1021 q 667 1020 657 1021 q 686 1022 676 1019 q 705 1038 701 1026 q 708 1061 708 1049 q 706 1090 710 1076 q 686 1108 703 1104 q 667 1110 676 1111 q 647 1110 657 1110 l 647 1021 m 943 1021 q 963 1021 953 1021 q 982 1024 972 1021 q 1000 1042 996 1031 q 1003 1068 1004 1054 q 999 1091 1003 1081 q 982 1107 996 1101 q 963 1110 972 1110 q 943 1110 953 1110 l 943 1021 m 557 -396 q 531 -386 539 -396 q 521 -362 524 -376 q 519 -331 518 -347 q 519 -301 519 -314 q 529 -267 519 -282 q 561 -256 539 -253 q 588 -274 583 -258 q 592 -306 592 -289 l 574 -306 q 574 -292 574 -299 q 572 -279 575 -286 q 559 -270 569 -271 q 543 -276 549 -269 q 539 -301 538 -285 q 540 -326 540 -317 q 539 -351 540 -336 q 544 -375 538 -367 q 559 -381 549 -382 q 572 -371 569 -379 q 574 -357 575 -364 q 574 -343 574 -350 l 592 -343 q 586 -379 592 -362 q 557 -396 581 -396 m 1119 -396 q 1094 -386 1101 -396 q 1084 -362 1086 -376 q 1083 -331 1082 -347 q 1083 -301 1083 -314 q 1092 -267 1083 -282 q 1124 -256 1101 -253 q 1150 -274 1146 -258 q 1154 -306 1154 -289 l 1136 -306 q 1137 -292 1136 -299 q 1135 -279 1138 -286 q 1122 -270 1132 -271 q 1106 -276 1111 -269 q 1100 -301 1099 -285 q 1101 -326 1101 -317 q 1101 -351 1101 -336 q 1107 -375 1100 -367 q 1122 -381 1111 -382 q 1135 -371 1132 -379 q 1137 -357 1138 -364 q 1136 -343 1136 -350 l 1154 -343 q 1149 -379 1154 -362 q 1119 -396 1143 -396 m 1485 354 q 1458 366 1467 354 q 1449 394 1450 378 l 1467 400 q 1469 383 1467 393 q 1479 371 1472 374 q 1494 373 1489 368 q 1500 386 1500 378 q 1489 411 1501 401 q 1467 431 1476 421 q 1449 459 1454 442 q 1460 489 1444 476 q 1478 495 1467 494 q 1497 493 1489 496 q 1511 479 1507 489 q 1517 460 1515 469 l 1500 456 q 1497 469 1499 463 q 1489 481 1496 476 q 1476 481 1483 483 q 1468 471 1469 478 q 1472 451 1463 460 q 1488 436 1481 443 q 1505 420 1496 429 q 1517 399 1514 411 q 1513 368 1521 382 q 1485 354 1504 354 m 1168 354 q 1142 366 1150 354 q 1132 394 1133 378 l 1149 400 q 1151 383 1149 393 q 1161 371 1154 374 q 1177 373 1171 368 q 1183 386 1183 378 q 1171 411 1183 401 q 1149 431 1158 421 q 1133 459 1138 442 q 1143 489 1128 476 q 1161 495 1150 494 q 1181 493 1172 496 q 1194 479 1190 489 q 1200 460 1199 469 l 1183 456 q 1181 469 1182 463 q 1172 481 1179 476 q 1159 481 1165 483 q 1150 471 1153 478 q 1154 451 1146 460 q 1169 436 1163 443 q 1188 420 1179 429 q 1200 399 1197 411 q 1195 368 1204 382 q 1168 354 1186 354 m 1682 -396 q 1656 -384 1664 -396 q 1646 -356 1647 -372 l 1663 -351 q 1665 -367 1663 -358 q 1675 -379 1668 -376 q 1691 -378 1685 -383 q 1697 -365 1697 -374 q 1685 -340 1697 -350 q 1663 -321 1672 -329 q 1647 -292 1651 -310 q 1657 -262 1642 -274 q 1675 -255 1664 -256 q 1694 -258 1686 -254 q 1708 -271 1704 -261 q 1714 -290 1713 -281 l 1697 -296 q 1694 -281 1696 -289 q 1686 -271 1693 -274 q 1673 -270 1679 -268 q 1664 -279 1667 -272 q 1668 -299 1660 -290 q 1683 -314 1676 -307 q 1702 -331 1693 -322 q 1714 -353 1711 -340 q 1709 -383 1718 -369 q 1682 -396 1700 -396 m 1349 356 l 1318 494 l 1336 494 l 1357 393 l 1379 494 l 1396 494 l 1365 356 l 1349 356 m 1431 -394 l 1399 -257 l 1417 -257 l 1439 -358 l 1458 -257 l 1476 -257 l 1446 -394 l 1431 -394 m 1215 356 l 1215 494 l 1269 494 l 1269 481 l 1236 481 l 1236 435 l 1264 435 l 1264 421 l 1236 421 l 1236 369 l 1271 369 l 1271 356 l 1215 356 m 1110 -224 l 1110 -86 l 1164 -86 l 1164 -100 l 1131 -100 l 1131 -146 l 1158 -146 l 1158 -160 l 1131 -160 l 1131 -211 l 1164 -211 l 1164 -224 l 1110 -224 m 1492 -394 l 1492 -257 l 1546 -257 l 1546 -271 l 1511 -271 l 1511 -315 l 1539 -315 l 1539 -329 l 1511 -329 l 1511 -381 l 1546 -381 l 1546 -394 l 1492 -394 m 928 -394 l 928 -257 l 981 -257 l 981 -271 l 946 -271 l 946 -315 l 975 -315 l 975 -329 l 946 -329 l 946 -381 l 981 -381 l 981 -394 l 928 -394 m 982 356 l 982 494 l 1036 494 l 1036 481 l 1001 481 l 1001 435 l 1029 435 l 1029 421 l 1001 421 l 1001 369 l 1036 369 l 1036 356 l 982 356 m 753 -208 q 771 -210 765 -214 q 778 -197 776 -206 q 781 -178 781 -189 q 781 -161 781 -168 q 782 -128 781 -150 q 772 -101 783 -107 q 751 -103 758 -94 q 744 -124 744 -112 l 744 -146 q 744 -160 744 -150 q 743 -179 743 -169 q 745 -197 743 -189 q 753 -208 747 -206 m 1799 -378 q 1816 -380 1810 -383 q 1824 -368 1822 -376 q 1826 -349 1826 -360 q 1826 -332 1826 -339 q 1827 -317 1826 -326 q 1827 -299 1828 -308 q 1824 -283 1826 -290 q 1817 -272 1822 -275 q 1797 -274 1803 -265 q 1790 -294 1790 -283 l 1790 -315 q 1790 -329 1790 -319 q 1789 -349 1789 -339 q 1791 -368 1789 -360 q 1799 -378 1793 -376 m 636 -378 q 653 -380 647 -383 q 662 -368 660 -376 q 664 -349 664 -360 q 664 -332 664 -339 q 665 -317 664 -326 q 665 -299 665 -308 q 663 -283 665 -290 q 656 -272 661 -275 q 634 -274 640 -265 q 628 -294 628 -283 q 627 -305 626 -300 q 628 -315 628 -310 q 627 -329 628 -319 q 626 -349 626 -339 q 628 -368 626 -360 q 636 -378 631 -376 m 660 -224 l 660 -86 l 714 -86 l 714 -100 l 681 -100 l 681 -146 l 707 -146 l 707 -160 l 681 -160 l 681 -224 l 660 -224 m 1219 -224 l 1219 -86 l 1272 -86 l 1272 -100 l 1238 -100 l 1238 -146 l 1264 -146 l 1264 -160 l 1238 -160 l 1238 -224 l 1219 -224 m 1746 -211 q 1766 -209 1757 -211 q 1778 -192 1775 -207 l 1778 -156 l 1778 -121 q 1767 -103 1776 -106 q 1746 -100 1758 -100 l 1746 -211 m 961 -224 l 961 -100 l 936 -100 l 936 -86 l 1006 -86 l 1006 -100 l 981 -100 l 981 -224 l 961 -224 m 1590 356 l 1590 481 l 1565 481 l 1565 494 l 1633 494 l 1633 481 l 1610 481 l 1610 356 l 1590 356 m 1300 -394 l 1300 -257 l 1318 -257 l 1318 -381 l 1354 -381 l 1354 -394 l 1300 -394 m 1379 -224 l 1379 -86 l 1397 -86 l 1397 -211 l 1432 -211 l 1432 -224 l 1379 -224 m 1446 -224 l 1446 -86 l 1465 -86 l 1465 -211 l 1500 -211 l 1500 -224 l 1446 -224 m 915 356 l 915 494 l 933 494 l 933 369 l 968 369 l 968 356 l 915 356 m 1411 356 l 1411 494 l 1431 494 l 1431 356 l 1411 356 m 1629 963 l 1675 963 l 1651 1085 l 1629 963 m 596 -10 l 646 -10 l 646 46 l 596 46 l 596 -10 m 1224 243 q 1240 244 1231 243 q 1253 239 1249 244 q 1260 205 1261 228 q 1251 171 1260 182 q 1238 164 1246 164 q 1224 164 1231 164 l 1224 243 m 2079 243 q 2095 244 2086 243 q 2110 239 2104 244 q 2116 205 2117 228 q 2108 171 2115 182 q 2094 164 2101 164 q 2079 164 2086 164 l 2079 243 m 1174 -394 l 1174 -257 l 1193 -257 l 1193 -394 l 1174 -394 m 1731 -394 l 1731 -257 l 1750 -257 l 1750 -394 l 1731 -394 m 1533 356 l 1533 494 l 1553 494 l 1553 356 l 1533 356 m 1808 560 l 1808 597 l 1844 597 l 1844 560 l 1808 560 m 853 433 q 863 433 857 433 q 874 436 868 433 q 882 447 881 439 q 883 461 883 454 q 874 478 882 476 q 853 481 865 481 l 853 433 m 839 -146 q 860 -142 851 -146 q 869 -122 869 -137 q 861 -103 869 -107 q 839 -100 853 -100 l 839 -146 m 1581 -315 q 1602 -312 1593 -315 q 1611 -293 1611 -308 q 1602 -274 1611 -278 q 1581 -271 1593 -271 l 1581 -315 m 1017 -315 q 1038 -312 1029 -315 q 1046 -293 1046 -308 q 1038 -274 1046 -278 q 1017 -271 1029 -271 l 1017 -315 m 1235 -346 l 1258 -346 l 1247 -283 l 1235 -346 m 1572 -175 l 1596 -175 l 1585 -112 l 1572 -175 m 1071 406 l 1094 406 l 1083 468 l 1071 406 m 1376 104 l 1386 163 l 1394 104 l 1376 104 z "},"4":{"ha":2375,"x_min":218,"x_max":2164,"o":"m 339 288 l 304 101 l 271 288 l 222 288 l 218 -10 l 263 -10 l 264 111 l 288 -10 l 322 -10 l 346 113 l 347 -10 l 392 -10 l 389 288 l 339 288 m 1304 865 q 1256 881 1275 865 q 1233 924 1238 896 q 1231 950 1231 938 q 1231 976 1231 963 q 1229 1035 1231 1004 q 1236 1093 1228 1065 q 1260 1127 1243 1117 q 1300 1139 1276 1138 q 1343 1132 1324 1140 q 1371 1100 1363 1124 q 1381 1042 1382 1074 q 1379 982 1379 1010 q 1378 951 1379 967 q 1375 919 1378 935 q 1304 865 1363 865 m 1235 557 q 1163 615 1174 557 q 1160 642 1160 629 q 1161 669 1161 656 q 1160 728 1161 697 q 1165 785 1158 758 q 1189 819 1172 808 q 1229 831 1206 831 q 1272 824 1253 832 q 1301 792 1292 815 q 1310 734 1313 765 q 1307 675 1307 703 q 1307 643 1307 658 q 1304 613 1307 628 q 1281 571 1299 585 q 1235 557 1263 557 m 2096 288 l 2029 288 l 2029 -10 l 2079 -10 l 2079 121 l 2093 121 l 2113 -10 l 2163 -10 l 2138 133 q 2163 186 2158 151 q 2162 222 2164 204 q 2152 255 2160 240 q 2131 278 2144 269 q 2096 288 2117 288 m 518 144 l 467 288 l 429 288 l 429 -10 l 475 -10 l 475 136 l 526 -10 l 564 -10 l 564 288 l 518 288 l 518 144 m 1665 144 l 1615 288 l 1576 288 l 1576 -10 l 1624 -10 l 1624 136 l 1675 -10 l 1713 -10 l 1713 288 l 1665 288 l 1665 144 m 892 101 l 921 101 q 921 82 921 94 q 919 57 921 69 q 910 37 917 44 q 892 33 904 29 q 881 44 883 36 q 876 61 878 51 q 876 81 875 71 q 876 97 876 90 l 876 168 q 876 200 876 183 q 879 232 875 217 q 901 244 886 247 q 917 226 915 240 q 919 204 919 215 q 918 182 918 193 l 968 182 q 965 236 968 207 q 936 281 961 265 q 903 290 921 289 q 869 286 885 290 q 840 262 849 279 q 826 225 831 244 q 824 183 824 204 q 825 139 825 161 q 824 98 825 118 q 826 57 824 78 q 835 22 829 39 q 857 -4 842 6 q 894 -15 872 -15 q 929 0 915 -14 l 931 -10 l 969 -10 l 969 144 l 892 144 l 892 101 m 1363 288 l 1308 -10 l 1358 -10 l 1369 60 l 1401 60 l 1413 -10 l 1463 -10 l 1410 288 l 1363 288 m 1239 288 l 1174 288 l 1174 -10 l 1224 -10 l 1224 121 q 1249 122 1236 121 q 1274 128 1261 122 q 1296 152 1289 136 q 1306 186 1303 168 q 1306 222 1308 204 q 1297 255 1304 240 q 1274 278 1289 269 q 1239 288 1260 288 m 906 868 l 906 1138 q 959 1138 931 1138 q 1010 1126 988 1139 q 1033 1100 1025 1118 q 1040 1062 1040 1082 q 1032 1025 1040 1042 q 1007 1003 1024 1008 l 1044 868 l 1007 868 l 972 994 l 943 994 l 943 868 l 906 868 m 768 144 l 743 172 q 728 187 736 179 q 717 206 719 194 q 716 231 713 217 q 735 244 719 246 q 747 237 743 243 q 751 222 750 231 q 753 203 753 213 q 754 189 754 194 l 800 192 q 794 245 800 218 q 763 285 788 272 q 730 290 746 292 q 701 281 714 289 q 678 260 688 274 q 668 231 669 247 q 668 195 665 213 q 682 163 671 178 q 693 148 686 154 q 706 135 700 142 q 738 100 721 118 q 754 58 754 82 q 752 43 754 51 q 742 33 750 35 q 722 44 729 29 q 715 69 715 56 q 713 97 714 83 l 667 93 q 669 58 667 75 q 678 22 671 40 q 708 -8 689 1 q 750 -12 728 -17 q 787 9 774 -8 q 803 47 800 26 q 797 100 806 75 q 768 144 788 125 m 610 868 l 610 1138 l 668 1138 q 706 1133 688 1138 q 735 1108 724 1128 q 744 1054 746 1085 q 722 1007 743 1024 q 687 994 707 994 q 647 993 667 993 l 647 868 l 610 868 m 1939 122 l 1986 122 l 1986 164 l 1939 164 l 1939 243 l 1997 243 l 1997 288 l 1889 288 l 1889 -10 l 1997 -10 l 1997 33 l 1939 33 l 1939 122 m 1344 560 l 1344 829 l 1369 829 l 1447 650 l 1447 829 l 1479 829 l 1479 560 l 1454 560 l 1376 743 l 1376 560 l 1344 560 m 1417 868 l 1417 1138 l 1442 1138 l 1518 958 l 1518 1138 l 1549 1138 l 1549 868 l 1525 868 l 1447 1051 l 1447 868 l 1417 868 m 714 561 q 660 560 689 551 q 621 596 632 568 q 613 627 614 611 q 613 661 613 643 l 613 829 l 649 829 l 649 650 q 651 615 649 635 q 672 588 653 594 q 696 586 686 582 q 711 600 706 590 q 719 622 717 610 q 721 644 721 633 q 722 688 722 667 q 721 731 721 708 l 721 829 l 757 829 l 757 706 q 758 667 757 689 q 756 624 760 644 q 744 585 753 603 q 714 561 735 568 m 1576 868 l 1635 1138 l 1669 1138 l 1726 868 l 1692 868 l 1679 935 l 1624 935 l 1611 868 l 1576 868 m 1826 243 l 1868 243 l 1868 288 l 1735 288 l 1735 243 l 1776 243 l 1776 -10 l 1826 -10 l 1826 243 m 860 557 q 808 580 825 557 q 789 636 790 603 l 822 644 q 826 619 824 632 q 838 596 828 606 q 858 587 846 588 q 881 593 871 586 q 890 619 892 603 q 882 646 889 635 q 869 661 876 654 q 853 675 861 668 q 825 700 840 688 q 800 728 810 713 q 791 787 783 754 q 829 829 799 819 q 863 832 844 833 q 894 821 882 831 q 913 794 908 810 q 919 763 918 778 l 889 753 q 883 784 888 768 q 860 803 878 800 q 837 799 847 804 q 824 779 826 793 q 824 759 821 768 q 835 742 828 750 q 851 726 842 733 q 867 714 860 719 q 901 681 885 699 q 922 640 917 664 q 912 583 929 608 q 860 557 894 557 m 1142 865 q 1090 888 1108 865 q 1071 943 1072 911 l 1104 951 q 1108 926 1106 939 q 1119 904 1111 913 q 1140 894 1128 896 q 1163 901 1153 893 q 1172 927 1174 911 q 1164 954 1171 943 q 1151 969 1158 963 q 1135 983 1143 976 q 1107 1007 1122 994 q 1082 1035 1092 1019 q 1072 1065 1074 1049 q 1073 1095 1069 1081 q 1086 1121 1076 1110 q 1111 1136 1096 1132 q 1145 1139 1126 1140 q 1176 1128 1164 1138 q 1195 1101 1190 1118 q 1201 1069 1200 1085 l 1171 1061 q 1165 1092 1169 1076 q 1142 1111 1160 1108 q 1119 1106 1129 1113 q 1106 1088 1108 1100 q 1117 1049 1101 1064 q 1149 1021 1133 1033 q 1183 989 1167 1006 q 1204 949 1199 972 q 1194 891 1211 917 q 1142 865 1176 865 m 992 -47 l 1036 -47 l 1118 325 l 1071 325 l 992 -47 m 771 868 l 771 1138 l 875 1138 l 875 1110 l 808 1110 l 808 1021 l 863 1021 l 863 993 l 808 993 l 808 894 l 876 894 l 876 868 l 771 868 m 1538 288 l 1486 288 l 1486 -10 l 1538 -10 l 1538 288 m 954 560 l 954 829 l 1058 829 l 1058 801 l 992 801 l 992 713 l 1046 713 l 1046 686 l 992 686 l 992 586 l 1058 586 l 1058 560 l 954 560 m 1288 897 q 1324 897 1304 890 q 1336 912 1333 903 q 1340 931 1339 921 l 1340 963 l 1340 1056 q 1340 1079 1340 1067 q 1331 1101 1339 1092 q 1315 1110 1324 1108 q 1297 1110 1306 1113 q 1271 1086 1278 1108 q 1267 1043 1265 1067 q 1269 1000 1269 1019 l 1269 950 q 1271 920 1269 936 q 1288 897 1272 904 m 1215 589 q 1233 586 1222 586 q 1251 589 1244 586 q 1265 604 1261 594 q 1269 624 1268 614 q 1270 639 1271 631 q 1269 654 1269 647 l 1269 749 q 1269 772 1269 760 q 1260 793 1268 785 q 1244 802 1253 800 q 1225 803 1235 804 q 1200 778 1206 799 q 1197 735 1196 758 q 1199 692 1199 713 l 1199 643 q 1200 612 1199 628 q 1215 589 1201 596 m 1693 560 l 1693 617 q 1694 637 1693 626 q 1693 657 1696 647 q 1685 683 1690 671 q 1675 708 1681 696 l 1636 829 l 1671 829 l 1713 700 l 1751 829 l 1788 829 q 1770 774 1779 801 q 1751 718 1761 746 l 1732 661 q 1729 644 1729 653 q 1729 626 1729 635 l 1729 560 l 1693 560 m 1754 868 l 1754 1138 l 1792 1138 l 1792 894 l 1861 894 l 1861 868 l 1754 868 m 1521 560 l 1521 829 l 1558 829 l 1558 586 l 1626 586 l 1626 560 l 1521 560 m 763 -225 q 739 -217 747 -225 q 727 -199 731 -210 q 724 -174 724 -187 q 724 -150 724 -161 q 724 -126 724 -139 q 729 -105 725 -114 q 742 -90 733 -96 q 767 -85 750 -83 q 788 -93 781 -86 q 798 -110 794 -100 q 801 -133 801 -121 q 801 -156 801 -146 q 801 -178 801 -167 q 797 -201 800 -190 q 785 -218 793 -211 q 763 -225 778 -225 m 1726 -224 l 1726 -86 q 1758 -85 1740 -86 q 1786 -94 1775 -85 q 1797 -123 1797 -106 q 1797 -156 1797 -140 q 1797 -188 1797 -169 q 1783 -217 1797 -207 q 1756 -224 1772 -225 q 1726 -224 1739 -224 m 1807 -396 q 1783 -388 1792 -396 q 1772 -369 1775 -381 q 1769 -345 1769 -358 q 1769 -321 1769 -332 q 1770 -297 1769 -308 q 1775 -275 1771 -285 q 1788 -260 1779 -265 q 1813 -256 1796 -254 q 1833 -264 1826 -257 q 1842 -281 1840 -271 q 1844 -304 1844 -292 q 1844 -326 1844 -317 q 1844 -349 1844 -337 q 1841 -372 1844 -361 q 1830 -389 1838 -382 q 1807 -396 1822 -396 m 646 -396 q 622 -388 629 -396 q 611 -369 614 -381 q 608 -345 608 -358 q 608 -321 608 -332 q 609 -297 608 -308 q 614 -275 610 -285 q 626 -260 618 -265 q 650 -256 635 -254 q 671 -264 664 -257 q 681 -281 678 -271 q 683 -304 683 -292 q 683 -326 683 -317 q 683 -349 683 -337 q 680 -372 683 -361 q 669 -389 676 -382 q 646 -396 661 -396 m 996 -394 l 996 -257 q 1023 -256 1008 -257 q 1049 -261 1038 -254 q 1061 -274 1057 -265 q 1065 -294 1065 -283 q 1061 -313 1065 -304 q 1047 -325 1057 -322 l 1068 -394 l 1049 -394 l 1032 -329 l 1017 -329 l 1017 -394 l 996 -394 m 701 -394 l 704 -257 l 724 -257 l 749 -368 l 772 -257 l 790 -257 l 793 -394 l 778 -394 l 776 -294 l 753 -394 l 742 -394 l 719 -294 l 718 -394 l 701 -394 m 814 -394 l 817 -257 l 836 -257 l 860 -368 l 885 -257 l 904 -257 l 906 -394 l 892 -394 l 889 -294 l 865 -394 l 854 -394 l 832 -294 l 829 -394 l 814 -394 m 1561 -394 l 1561 -257 q 1588 -256 1574 -257 q 1613 -261 1601 -254 q 1625 -274 1621 -265 q 1629 -294 1629 -283 q 1625 -313 1629 -304 q 1613 -325 1621 -322 l 1632 -394 l 1613 -394 l 1596 -329 l 1581 -329 l 1581 -394 l 1561 -394 m 819 -224 l 819 -86 q 846 -85 832 -86 q 871 -90 860 -83 q 883 -104 879 -94 q 888 -124 888 -114 q 885 -144 889 -135 q 871 -156 881 -153 l 890 -224 l 872 -224 l 853 -160 l 839 -160 l 839 -224 l 819 -224 m 833 356 l 833 494 q 869 494 849 494 q 897 479 889 494 q 902 452 903 468 q 890 428 901 436 q 872 420 882 421 q 853 419 863 419 l 853 356 l 833 356 m 1636 -224 l 1636 -86 l 1649 -86 l 1688 -178 l 1688 -86 l 1704 -86 l 1704 -224 l 1692 -224 l 1653 -131 l 1653 -224 l 1636 -224 m 1015 -224 l 1015 -86 l 1033 -86 l 1033 -146 l 1071 -146 l 1071 -86 l 1089 -86 l 1089 -224 l 1071 -224 l 1071 -160 l 1033 -160 l 1033 -224 l 1015 -224 m 1865 -394 l 1865 -257 l 1878 -257 l 1917 -349 l 1917 -257 l 1932 -257 l 1932 -394 l 1919 -394 l 1881 -301 l 1881 -394 l 1865 -394 m 1044 356 l 1074 494 l 1093 494 l 1122 356 l 1103 356 l 1097 392 l 1069 392 l 1063 356 l 1044 356 m 1207 -394 l 1238 -257 l 1256 -257 l 1285 -394 l 1267 -394 l 1261 -360 l 1232 -360 l 1225 -394 l 1207 -394 m 1546 -224 l 1574 -86 l 1593 -86 l 1622 -224 l 1604 -224 l 1597 -189 l 1569 -189 l 1563 -224 l 1546 -224 m 1819 618 l 1808 829 l 1844 829 l 1832 618 l 1819 618 m 1336 -224 q 1302 -221 1317 -231 q 1285 -192 1288 -211 q 1284 -175 1283 -183 q 1285 -160 1285 -167 l 1285 -86 l 1303 -86 l 1303 -147 q 1302 -165 1303 -154 q 1302 -185 1301 -175 q 1307 -203 1303 -196 q 1321 -211 1311 -211 q 1335 -203 1331 -211 q 1340 -185 1339 -196 q 1341 -165 1342 -175 q 1340 -147 1340 -154 l 1340 -86 l 1357 -86 l 1357 -149 q 1358 -169 1357 -157 q 1357 -191 1358 -181 q 1351 -210 1356 -201 q 1336 -224 1346 -219 m 647 1021 q 667 1020 657 1021 q 686 1022 676 1019 q 705 1038 701 1026 q 708 1061 708 1049 q 706 1090 710 1076 q 686 1108 703 1104 q 667 1110 676 1111 q 647 1110 657 1110 l 647 1021 m 943 1021 q 963 1021 953 1021 q 982 1024 972 1021 q 1000 1042 996 1031 q 1003 1068 1004 1054 q 999 1091 1003 1081 q 982 1107 996 1101 q 963 1110 972 1110 q 943 1110 953 1110 l 943 1021 m 557 -396 q 531 -386 539 -396 q 521 -362 524 -376 q 519 -331 518 -347 q 519 -301 519 -314 q 529 -267 519 -282 q 561 -256 539 -253 q 588 -274 583 -258 q 592 -306 592 -289 l 574 -306 q 574 -292 574 -299 q 572 -279 575 -286 q 559 -270 569 -271 q 543 -276 549 -269 q 539 -301 538 -285 q 540 -326 540 -317 q 539 -351 540 -336 q 544 -375 538 -367 q 559 -381 549 -382 q 572 -371 569 -379 q 574 -357 575 -364 q 574 -343 574 -350 l 592 -343 q 586 -379 592 -362 q 557 -396 581 -396 m 1119 -396 q 1094 -386 1101 -396 q 1084 -362 1086 -376 q 1083 -331 1082 -347 q 1083 -301 1083 -314 q 1092 -267 1083 -282 q 1124 -256 1101 -253 q 1150 -274 1146 -258 q 1154 -306 1154 -289 l 1136 -306 q 1137 -292 1136 -299 q 1135 -279 1138 -286 q 1122 -270 1132 -271 q 1106 -276 1111 -269 q 1100 -301 1099 -285 q 1101 -326 1101 -317 q 1101 -351 1101 -336 q 1107 -375 1100 -367 q 1122 -381 1111 -382 q 1135 -371 1132 -379 q 1137 -357 1138 -364 q 1136 -343 1136 -350 l 1154 -343 q 1149 -379 1154 -362 q 1119 -396 1143 -396 m 1485 354 q 1458 366 1467 354 q 1449 394 1450 378 l 1467 400 q 1469 383 1467 393 q 1479 371 1472 374 q 1494 373 1489 368 q 1500 386 1500 378 q 1489 411 1501 401 q 1467 431 1476 421 q 1449 459 1454 442 q 1460 489 1444 476 q 1478 495 1467 494 q 1497 493 1489 496 q 1511 479 1507 489 q 1517 460 1515 469 l 1500 456 q 1497 469 1499 463 q 1489 481 1496 476 q 1476 481 1483 483 q 1468 471 1469 478 q 1472 451 1463 460 q 1488 436 1481 443 q 1505 420 1496 429 q 1517 399 1514 411 q 1513 368 1521 382 q 1485 354 1504 354 m 1168 354 q 1142 366 1150 354 q 1132 394 1133 378 l 1149 400 q 1151 383 1149 393 q 1161 371 1154 374 q 1177 373 1171 368 q 1183 386 1183 378 q 1171 411 1183 401 q 1149 431 1158 421 q 1133 459 1138 442 q 1143 489 1128 476 q 1161 495 1150 494 q 1181 493 1172 496 q 1194 479 1190 489 q 1200 460 1199 469 l 1183 456 q 1181 469 1182 463 q 1172 481 1179 476 q 1159 481 1165 483 q 1150 471 1153 478 q 1154 451 1146 460 q 1169 436 1163 443 q 1188 420 1179 429 q 1200 399 1197 411 q 1195 368 1204 382 q 1168 354 1186 354 m 1682 -396 q 1656 -384 1664 -396 q 1646 -356 1647 -372 l 1663 -351 q 1665 -367 1663 -358 q 1675 -379 1668 -376 q 1691 -378 1685 -383 q 1697 -365 1697 -374 q 1685 -340 1697 -350 q 1663 -321 1672 -329 q 1647 -292 1651 -310 q 1657 -262 1642 -274 q 1675 -255 1664 -256 q 1694 -258 1686 -254 q 1708 -271 1704 -261 q 1714 -290 1713 -281 l 1697 -296 q 1694 -281 1696 -289 q 1686 -271 1693 -274 q 1673 -270 1679 -268 q 1664 -279 1667 -272 q 1668 -299 1660 -290 q 1683 -314 1676 -307 q 1702 -331 1693 -322 q 1714 -353 1711 -340 q 1709 -383 1718 -369 q 1682 -396 1700 -396 m 1349 356 l 1318 494 l 1336 494 l 1357 393 l 1379 494 l 1396 494 l 1365 356 l 1349 356 m 1431 -394 l 1399 -257 l 1417 -257 l 1439 -358 l 1458 -257 l 1476 -257 l 1446 -394 l 1431 -394 m 1215 356 l 1215 494 l 1269 494 l 1269 481 l 1236 481 l 1236 435 l 1264 435 l 1264 421 l 1236 421 l 1236 369 l 1271 369 l 1271 356 l 1215 356 m 1110 -224 l 1110 -86 l 1164 -86 l 1164 -100 l 1131 -100 l 1131 -146 l 1158 -146 l 1158 -160 l 1131 -160 l 1131 -211 l 1164 -211 l 1164 -224 l 1110 -224 m 1492 -394 l 1492 -257 l 1546 -257 l 1546 -271 l 1511 -271 l 1511 -315 l 1539 -315 l 1539 -329 l 1511 -329 l 1511 -381 l 1546 -381 l 1546 -394 l 1492 -394 m 928 -394 l 928 -257 l 981 -257 l 981 -271 l 946 -271 l 946 -315 l 975 -315 l 975 -329 l 946 -329 l 946 -381 l 981 -381 l 981 -394 l 928 -394 m 982 356 l 982 494 l 1036 494 l 1036 481 l 1001 481 l 1001 435 l 1029 435 l 1029 421 l 1001 421 l 1001 369 l 1036 369 l 1036 356 l 982 356 m 753 -208 q 771 -210 765 -214 q 778 -197 776 -206 q 781 -178 781 -189 q 781 -161 781 -168 q 782 -128 781 -150 q 772 -101 783 -107 q 751 -103 758 -94 q 744 -124 744 -112 l 744 -146 q 744 -160 744 -150 q 743 -179 743 -169 q 745 -197 743 -189 q 753 -208 747 -206 m 1799 -378 q 1816 -380 1810 -383 q 1824 -368 1822 -376 q 1826 -349 1826 -360 q 1826 -332 1826 -339 q 1827 -317 1826 -326 q 1827 -299 1828 -308 q 1824 -283 1826 -290 q 1817 -272 1822 -275 q 1797 -274 1803 -265 q 1790 -294 1790 -283 l 1790 -315 q 1790 -329 1790 -319 q 1789 -349 1789 -339 q 1791 -368 1789 -360 q 1799 -378 1793 -376 m 636 -378 q 653 -380 647 -383 q 662 -368 660 -376 q 664 -349 664 -360 q 664 -332 664 -339 q 665 -317 664 -326 q 665 -299 665 -308 q 663 -283 665 -290 q 656 -272 661 -275 q 634 -274 640 -265 q 628 -294 628 -283 q 627 -305 626 -300 q 628 -315 628 -310 q 627 -329 628 -319 q 626 -349 626 -339 q 628 -368 626 -360 q 636 -378 631 -376 m 660 -224 l 660 -86 l 714 -86 l 714 -100 l 681 -100 l 681 -146 l 707 -146 l 707 -160 l 681 -160 l 681 -224 l 660 -224 m 1219 -224 l 1219 -86 l 1272 -86 l 1272 -100 l 1238 -100 l 1238 -146 l 1264 -146 l 1264 -160 l 1238 -160 l 1238 -224 l 1219 -224 m 1746 -211 q 1766 -209 1757 -211 q 1778 -192 1775 -207 l 1778 -156 l 1778 -121 q 1767 -103 1776 -106 q 1746 -100 1758 -100 l 1746 -211 m 961 -224 l 961 -100 l 936 -100 l 936 -86 l 1006 -86 l 1006 -100 l 981 -100 l 981 -224 l 961 -224 m 1590 356 l 1590 481 l 1565 481 l 1565 494 l 1633 494 l 1633 481 l 1610 481 l 1610 356 l 1590 356 m 1300 -394 l 1300 -257 l 1318 -257 l 1318 -381 l 1354 -381 l 1354 -394 l 1300 -394 m 1379 -224 l 1379 -86 l 1397 -86 l 1397 -211 l 1432 -211 l 1432 -224 l 1379 -224 m 1446 -224 l 1446 -86 l 1465 -86 l 1465 -211 l 1500 -211 l 1500 -224 l 1446 -224 m 915 356 l 915 494 l 933 494 l 933 369 l 968 369 l 968 356 l 915 356 m 1411 356 l 1411 494 l 1431 494 l 1431 356 l 1411 356 m 1629 963 l 1675 963 l 1651 1085 l 1629 963 m 596 -10 l 646 -10 l 646 46 l 596 46 l 596 -10 m 1224 243 q 1240 244 1231 243 q 1253 239 1249 244 q 1260 205 1261 228 q 1251 171 1260 182 q 1238 164 1246 164 q 1224 164 1231 164 l 1224 243 m 2079 243 q 2095 244 2086 243 q 2110 239 2104 244 q 2116 205 2117 228 q 2108 171 2115 182 q 2094 164 2101 164 q 2079 164 2086 164 l 2079 243 m 1174 -394 l 1174 -257 l 1193 -257 l 1193 -394 l 1174 -394 m 1731 -394 l 1731 -257 l 1750 -257 l 1750 -394 l 1731 -394 m 1533 356 l 1533 494 l 1553 494 l 1553 356 l 1533 356 m 1808 560 l 1808 597 l 1844 597 l 1844 560 l 1808 560 m 853 433 q 863 433 857 433 q 874 436 868 433 q 882 447 881 439 q 883 461 883 454 q 874 478 882 476 q 853 481 865 481 l 853 433 m 839 -146 q 860 -142 851 -146 q 869 -122 869 -137 q 861 -103 869 -107 q 839 -100 853 -100 l 839 -146 m 1581 -315 q 1602 -312 1593 -315 q 1611 -293 1611 -308 q 1602 -274 1611 -278 q 1581 -271 1593 -271 l 1581 -315 m 1017 -315 q 1038 -312 1029 -315 q 1046 -293 1046 -308 q 1038 -274 1046 -278 q 1017 -271 1029 -271 l 1017 -315 m 1235 -346 l 1258 -346 l 1247 -283 l 1235 -346 m 1572 -175 l 1596 -175 l 1585 -112 l 1572 -175 m 1071 406 l 1094 406 l 1083 468 l 1071 406 m 1376 104 l 1386 163 l 1394 104 l 1376 104 z "},"5":{"ha":2375,"x_min":218,"x_max":2164,"o":"m 339 288 l 304 101 l 271 288 l 222 288 l 218 -10 l 263 -10 l 264 111 l 288 -10 l 322 -10 l 346 113 l 347 -10 l 392 -10 l 389 288 l 339 288 m 1304 865 q 1256 881 1275 865 q 1233 924 1238 896 q 1231 950 1231 938 q 1231 976 1231 963 q 1229 1035 1231 1004 q 1236 1093 1228 1065 q 1260 1127 1243 1117 q 1300 1139 1276 1138 q 1343 1132 1324 1140 q 1371 1100 1363 1124 q 1381 1042 1382 1074 q 1379 982 1379 1010 q 1378 951 1379 967 q 1375 919 1378 935 q 1304 865 1363 865 m 1235 557 q 1163 615 1174 557 q 1160 642 1160 629 q 1161 669 1161 656 q 1160 728 1161 697 q 1165 785 1158 758 q 1189 819 1172 808 q 1229 831 1206 831 q 1272 824 1253 832 q 1301 792 1292 815 q 1310 734 1313 765 q 1307 675 1307 703 q 1307 643 1307 658 q 1304 613 1307 628 q 1281 571 1299 585 q 1235 557 1263 557 m 2096 288 l 2029 288 l 2029 -10 l 2079 -10 l 2079 121 l 2093 121 l 2113 -10 l 2163 -10 l 2138 133 q 2163 186 2158 151 q 2162 222 2164 204 q 2152 255 2160 240 q 2131 278 2144 269 q 2096 288 2117 288 m 518 144 l 467 288 l 429 288 l 429 -10 l 475 -10 l 475 136 l 526 -10 l 564 -10 l 564 288 l 518 288 l 518 144 m 1665 144 l 1615 288 l 1576 288 l 1576 -10 l 1624 -10 l 1624 136 l 1675 -10 l 1713 -10 l 1713 288 l 1665 288 l 1665 144 m 892 101 l 921 101 q 921 82 921 94 q 919 57 921 69 q 910 37 917 44 q 892 33 904 29 q 881 44 883 36 q 876 61 878 51 q 876 81 875 71 q 876 97 876 90 l 876 168 q 876 200 876 183 q 879 232 875 217 q 901 244 886 247 q 917 226 915 240 q 919 204 919 215 q 918 182 918 193 l 968 182 q 965 236 968 207 q 936 281 961 265 q 903 290 921 289 q 869 286 885 290 q 840 262 849 279 q 826 225 831 244 q 824 183 824 204 q 825 139 825 161 q 824 98 825 118 q 826 57 824 78 q 835 22 829 39 q 857 -4 842 6 q 894 -15 872 -15 q 929 0 915 -14 l 931 -10 l 969 -10 l 969 144 l 892 144 l 892 101 m 1363 288 l 1308 -10 l 1358 -10 l 1369 60 l 1401 60 l 1413 -10 l 1463 -10 l 1410 288 l 1363 288 m 1239 288 l 1174 288 l 1174 -10 l 1224 -10 l 1224 121 q 1249 122 1236 121 q 1274 128 1261 122 q 1296 152 1289 136 q 1306 186 1303 168 q 1306 222 1308 204 q 1297 255 1304 240 q 1274 278 1289 269 q 1239 288 1260 288 m 906 868 l 906 1138 q 959 1138 931 1138 q 1010 1126 988 1139 q 1033 1100 1025 1118 q 1040 1062 1040 1082 q 1032 1025 1040 1042 q 1007 1003 1024 1008 l 1044 868 l 1007 868 l 972 994 l 943 994 l 943 868 l 906 868 m 768 144 l 743 172 q 728 187 736 179 q 717 206 719 194 q 716 231 713 217 q 735 244 719 246 q 747 237 743 243 q 751 222 750 231 q 753 203 753 213 q 754 189 754 194 l 800 192 q 794 245 800 218 q 763 285 788 272 q 730 290 746 292 q 701 281 714 289 q 678 260 688 274 q 668 231 669 247 q 668 195 665 213 q 682 163 671 178 q 693 148 686 154 q 706 135 700 142 q 738 100 721 118 q 754 58 754 82 q 752 43 754 51 q 742 33 750 35 q 722 44 729 29 q 715 69 715 56 q 713 97 714 83 l 667 93 q 669 58 667 75 q 678 22 671 40 q 708 -8 689 1 q 750 -12 728 -17 q 787 9 774 -8 q 803 47 800 26 q 797 100 806 75 q 768 144 788 125 m 610 868 l 610 1138 l 668 1138 q 706 1133 688 1138 q 735 1108 724 1128 q 744 1054 746 1085 q 722 1007 743 1024 q 687 994 707 994 q 647 993 667 993 l 647 868 l 610 868 m 1939 122 l 1986 122 l 1986 164 l 1939 164 l 1939 243 l 1997 243 l 1997 288 l 1889 288 l 1889 -10 l 1997 -10 l 1997 33 l 1939 33 l 1939 122 m 1344 560 l 1344 829 l 1369 829 l 1447 650 l 1447 829 l 1479 829 l 1479 560 l 1454 560 l 1376 743 l 1376 560 l 1344 560 m 1417 868 l 1417 1138 l 1442 1138 l 1518 958 l 1518 1138 l 1549 1138 l 1549 868 l 1525 868 l 1447 1051 l 1447 868 l 1417 868 m 714 561 q 660 560 689 551 q 621 596 632 568 q 613 627 614 611 q 613 661 613 643 l 613 829 l 649 829 l 649 650 q 651 615 649 635 q 672 588 653 594 q 696 586 686 582 q 711 600 706 590 q 719 622 717 610 q 721 644 721 633 q 722 688 722 667 q 721 731 721 708 l 721 829 l 757 829 l 757 706 q 758 667 757 689 q 756 624 760 644 q 744 585 753 603 q 714 561 735 568 m 1576 868 l 1635 1138 l 1669 1138 l 1726 868 l 1692 868 l 1679 935 l 1624 935 l 1611 868 l 1576 868 m 1826 243 l 1868 243 l 1868 288 l 1735 288 l 1735 243 l 1776 243 l 1776 -10 l 1826 -10 l 1826 243 m 860 557 q 808 580 825 557 q 789 636 790 603 l 822 644 q 826 619 824 632 q 838 596 828 606 q 858 587 846 588 q 881 593 871 586 q 890 619 892 603 q 882 646 889 635 q 869 661 876 654 q 853 675 861 668 q 825 700 840 688 q 800 728 810 713 q 791 787 783 754 q 829 829 799 819 q 863 832 844 833 q 894 821 882 831 q 913 794 908 810 q 919 763 918 778 l 889 753 q 883 784 888 768 q 860 803 878 800 q 837 799 847 804 q 824 779 826 793 q 824 759 821 768 q 835 742 828 750 q 851 726 842 733 q 867 714 860 719 q 901 681 885 699 q 922 640 917 664 q 912 583 929 608 q 860 557 894 557 m 1142 865 q 1090 888 1108 865 q 1071 943 1072 911 l 1104 951 q 1108 926 1106 939 q 1119 904 1111 913 q 1140 894 1128 896 q 1163 901 1153 893 q 1172 927 1174 911 q 1164 954 1171 943 q 1151 969 1158 963 q 1135 983 1143 976 q 1107 1007 1122 994 q 1082 1035 1092 1019 q 1072 1065 1074 1049 q 1073 1095 1069 1081 q 1086 1121 1076 1110 q 1111 1136 1096 1132 q 1145 1139 1126 1140 q 1176 1128 1164 1138 q 1195 1101 1190 1118 q 1201 1069 1200 1085 l 1171 1061 q 1165 1092 1169 1076 q 1142 1111 1160 1108 q 1119 1106 1129 1113 q 1106 1088 1108 1100 q 1117 1049 1101 1064 q 1149 1021 1133 1033 q 1183 989 1167 1006 q 1204 949 1199 972 q 1194 891 1211 917 q 1142 865 1176 865 m 992 -47 l 1036 -47 l 1118 325 l 1071 325 l 992 -47 m 771 868 l 771 1138 l 875 1138 l 875 1110 l 808 1110 l 808 1021 l 863 1021 l 863 993 l 808 993 l 808 894 l 876 894 l 876 868 l 771 868 m 1538 288 l 1486 288 l 1486 -10 l 1538 -10 l 1538 288 m 954 560 l 954 829 l 1058 829 l 1058 801 l 992 801 l 992 713 l 1046 713 l 1046 686 l 992 686 l 992 586 l 1058 586 l 1058 560 l 954 560 m 1288 897 q 1324 897 1304 890 q 1336 912 1333 903 q 1340 931 1339 921 l 1340 963 l 1340 1056 q 1340 1079 1340 1067 q 1331 1101 1339 1092 q 1315 1110 1324 1108 q 1297 1110 1306 1113 q 1271 1086 1278 1108 q 1267 1043 1265 1067 q 1269 1000 1269 1019 l 1269 950 q 1271 920 1269 936 q 1288 897 1272 904 m 1215 589 q 1233 586 1222 586 q 1251 589 1244 586 q 1265 604 1261 594 q 1269 624 1268 614 q 1270 639 1271 631 q 1269 654 1269 647 l 1269 749 q 1269 772 1269 760 q 1260 793 1268 785 q 1244 802 1253 800 q 1225 803 1235 804 q 1200 778 1206 799 q 1197 735 1196 758 q 1199 692 1199 713 l 1199 643 q 1200 612 1199 628 q 1215 589 1201 596 m 1693 560 l 1693 617 q 1694 637 1693 626 q 1693 657 1696 647 q 1685 683 1690 671 q 1675 708 1681 696 l 1636 829 l 1671 829 l 1713 700 l 1751 829 l 1788 829 q 1770 774 1779 801 q 1751 718 1761 746 l 1732 661 q 1729 644 1729 653 q 1729 626 1729 635 l 1729 560 l 1693 560 m 1754 868 l 1754 1138 l 1792 1138 l 1792 894 l 1861 894 l 1861 868 l 1754 868 m 1521 560 l 1521 829 l 1558 829 l 1558 586 l 1626 586 l 1626 560 l 1521 560 m 763 -225 q 739 -217 747 -225 q 727 -199 731 -210 q 724 -174 724 -187 q 724 -150 724 -161 q 724 -126 724 -139 q 729 -105 725 -114 q 742 -90 733 -96 q 767 -85 750 -83 q 788 -93 781 -86 q 798 -110 794 -100 q 801 -133 801 -121 q 801 -156 801 -146 q 801 -178 801 -167 q 797 -201 800 -190 q 785 -218 793 -211 q 763 -225 778 -225 m 1726 -224 l 1726 -86 q 1758 -85 1740 -86 q 1786 -94 1775 -85 q 1797 -123 1797 -106 q 1797 -156 1797 -140 q 1797 -188 1797 -169 q 1783 -217 1797 -207 q 1756 -224 1772 -225 q 1726 -224 1739 -224 m 1807 -396 q 1783 -388 1792 -396 q 1772 -369 1775 -381 q 1769 -345 1769 -358 q 1769 -321 1769 -332 q 1770 -297 1769 -308 q 1775 -275 1771 -285 q 1788 -260 1779 -265 q 1813 -256 1796 -254 q 1833 -264 1826 -257 q 1842 -281 1840 -271 q 1844 -304 1844 -292 q 1844 -326 1844 -317 q 1844 -349 1844 -337 q 1841 -372 1844 -361 q 1830 -389 1838 -382 q 1807 -396 1822 -396 m 646 -396 q 622 -388 629 -396 q 611 -369 614 -381 q 608 -345 608 -358 q 608 -321 608 -332 q 609 -297 608 -308 q 614 -275 610 -285 q 626 -260 618 -265 q 650 -256 635 -254 q 671 -264 664 -257 q 681 -281 678 -271 q 683 -304 683 -292 q 683 -326 683 -317 q 683 -349 683 -337 q 680 -372 683 -361 q 669 -389 676 -382 q 646 -396 661 -396 m 996 -394 l 996 -257 q 1023 -256 1008 -257 q 1049 -261 1038 -254 q 1061 -274 1057 -265 q 1065 -294 1065 -283 q 1061 -313 1065 -304 q 1047 -325 1057 -322 l 1068 -394 l 1049 -394 l 1032 -329 l 1017 -329 l 1017 -394 l 996 -394 m 701 -394 l 704 -257 l 724 -257 l 749 -368 l 772 -257 l 790 -257 l 793 -394 l 778 -394 l 776 -294 l 753 -394 l 742 -394 l 719 -294 l 718 -394 l 701 -394 m 814 -394 l 817 -257 l 836 -257 l 860 -368 l 885 -257 l 904 -257 l 906 -394 l 892 -394 l 889 -294 l 865 -394 l 854 -394 l 832 -294 l 829 -394 l 814 -394 m 1561 -394 l 1561 -257 q 1588 -256 1574 -257 q 1613 -261 1601 -254 q 1625 -274 1621 -265 q 1629 -294 1629 -283 q 1625 -313 1629 -304 q 1613 -325 1621 -322 l 1632 -394 l 1613 -394 l 1596 -329 l 1581 -329 l 1581 -394 l 1561 -394 m 819 -224 l 819 -86 q 846 -85 832 -86 q 871 -90 860 -83 q 883 -104 879 -94 q 888 -124 888 -114 q 885 -144 889 -135 q 871 -156 881 -153 l 890 -224 l 872 -224 l 853 -160 l 839 -160 l 839 -224 l 819 -224 m 833 356 l 833 494 q 869 494 849 494 q 897 479 889 494 q 902 452 903 468 q 890 428 901 436 q 872 420 882 421 q 853 419 863 419 l 853 356 l 833 356 m 1636 -224 l 1636 -86 l 1649 -86 l 1688 -178 l 1688 -86 l 1704 -86 l 1704 -224 l 1692 -224 l 1653 -131 l 1653 -224 l 1636 -224 m 1015 -224 l 1015 -86 l 1033 -86 l 1033 -146 l 1071 -146 l 1071 -86 l 1089 -86 l 1089 -224 l 1071 -224 l 1071 -160 l 1033 -160 l 1033 -224 l 1015 -224 m 1865 -394 l 1865 -257 l 1878 -257 l 1917 -349 l 1917 -257 l 1932 -257 l 1932 -394 l 1919 -394 l 1881 -301 l 1881 -394 l 1865 -394 m 1044 356 l 1074 494 l 1093 494 l 1122 356 l 1103 356 l 1097 392 l 1069 392 l 1063 356 l 1044 356 m 1207 -394 l 1238 -257 l 1256 -257 l 1285 -394 l 1267 -394 l 1261 -360 l 1232 -360 l 1225 -394 l 1207 -394 m 1546 -224 l 1574 -86 l 1593 -86 l 1622 -224 l 1604 -224 l 1597 -189 l 1569 -189 l 1563 -224 l 1546 -224 m 1819 618 l 1808 829 l 1844 829 l 1832 618 l 1819 618 m 1336 -224 q 1302 -221 1317 -231 q 1285 -192 1288 -211 q 1284 -175 1283 -183 q 1285 -160 1285 -167 l 1285 -86 l 1303 -86 l 1303 -147 q 1302 -165 1303 -154 q 1302 -185 1301 -175 q 1307 -203 1303 -196 q 1321 -211 1311 -211 q 1335 -203 1331 -211 q 1340 -185 1339 -196 q 1341 -165 1342 -175 q 1340 -147 1340 -154 l 1340 -86 l 1357 -86 l 1357 -149 q 1358 -169 1357 -157 q 1357 -191 1358 -181 q 1351 -210 1356 -201 q 1336 -224 1346 -219 m 647 1021 q 667 1020 657 1021 q 686 1022 676 1019 q 705 1038 701 1026 q 708 1061 708 1049 q 706 1090 710 1076 q 686 1108 703 1104 q 667 1110 676 1111 q 647 1110 657 1110 l 647 1021 m 943 1021 q 963 1021 953 1021 q 982 1024 972 1021 q 1000 1042 996 1031 q 1003 1068 1004 1054 q 999 1091 1003 1081 q 982 1107 996 1101 q 963 1110 972 1110 q 943 1110 953 1110 l 943 1021 m 557 -396 q 531 -386 539 -396 q 521 -362 524 -376 q 519 -331 518 -347 q 519 -301 519 -314 q 529 -267 519 -282 q 561 -256 539 -253 q 588 -274 583 -258 q 592 -306 592 -289 l 574 -306 q 574 -292 574 -299 q 572 -279 575 -286 q 559 -270 569 -271 q 543 -276 549 -269 q 539 -301 538 -285 q 540 -326 540 -317 q 539 -351 540 -336 q 544 -375 538 -367 q 559 -381 549 -382 q 572 -371 569 -379 q 574 -357 575 -364 q 574 -343 574 -350 l 592 -343 q 586 -379 592 -362 q 557 -396 581 -396 m 1119 -396 q 1094 -386 1101 -396 q 1084 -362 1086 -376 q 1083 -331 1082 -347 q 1083 -301 1083 -314 q 1092 -267 1083 -282 q 1124 -256 1101 -253 q 1150 -274 1146 -258 q 1154 -306 1154 -289 l 1136 -306 q 1137 -292 1136 -299 q 1135 -279 1138 -286 q 1122 -270 1132 -271 q 1106 -276 1111 -269 q 1100 -301 1099 -285 q 1101 -326 1101 -317 q 1101 -351 1101 -336 q 1107 -375 1100 -367 q 1122 -381 1111 -382 q 1135 -371 1132 -379 q 1137 -357 1138 -364 q 1136 -343 1136 -350 l 1154 -343 q 1149 -379 1154 -362 q 1119 -396 1143 -396 m 1485 354 q 1458 366 1467 354 q 1449 394 1450 378 l 1467 400 q 1469 383 1467 393 q 1479 371 1472 374 q 1494 373 1489 368 q 1500 386 1500 378 q 1489 411 1501 401 q 1467 431 1476 421 q 1449 459 1454 442 q 1460 489 1444 476 q 1478 495 1467 494 q 1497 493 1489 496 q 1511 479 1507 489 q 1517 460 1515 469 l 1500 456 q 1497 469 1499 463 q 1489 481 1496 476 q 1476 481 1483 483 q 1468 471 1469 478 q 1472 451 1463 460 q 1488 436 1481 443 q 1505 420 1496 429 q 1517 399 1514 411 q 1513 368 1521 382 q 1485 354 1504 354 m 1168 354 q 1142 366 1150 354 q 1132 394 1133 378 l 1149 400 q 1151 383 1149 393 q 1161 371 1154 374 q 1177 373 1171 368 q 1183 386 1183 378 q 1171 411 1183 401 q 1149 431 1158 421 q 1133 459 1138 442 q 1143 489 1128 476 q 1161 495 1150 494 q 1181 493 1172 496 q 1194 479 1190 489 q 1200 460 1199 469 l 1183 456 q 1181 469 1182 463 q 1172 481 1179 476 q 1159 481 1165 483 q 1150 471 1153 478 q 1154 451 1146 460 q 1169 436 1163 443 q 1188 420 1179 429 q 1200 399 1197 411 q 1195 368 1204 382 q 1168 354 1186 354 m 1682 -396 q 1656 -384 1664 -396 q 1646 -356 1647 -372 l 1663 -351 q 1665 -367 1663 -358 q 1675 -379 1668 -376 q 1691 -378 1685 -383 q 1697 -365 1697 -374 q 1685 -340 1697 -350 q 1663 -321 1672 -329 q 1647 -292 1651 -310 q 1657 -262 1642 -274 q 1675 -255 1664 -256 q 1694 -258 1686 -254 q 1708 -271 1704 -261 q 1714 -290 1713 -281 l 1697 -296 q 1694 -281 1696 -289 q 1686 -271 1693 -274 q 1673 -270 1679 -268 q 1664 -279 1667 -272 q 1668 -299 1660 -290 q 1683 -314 1676 -307 q 1702 -331 1693 -322 q 1714 -353 1711 -340 q 1709 -383 1718 -369 q 1682 -396 1700 -396 m 1349 356 l 1318 494 l 1336 494 l 1357 393 l 1379 494 l 1396 494 l 1365 356 l 1349 356 m 1431 -394 l 1399 -257 l 1417 -257 l 1439 -358 l 1458 -257 l 1476 -257 l 1446 -394 l 1431 -394 m 1215 356 l 1215 494 l 1269 494 l 1269 481 l 1236 481 l 1236 435 l 1264 435 l 1264 421 l 1236 421 l 1236 369 l 1271 369 l 1271 356 l 1215 356 m 1110 -224 l 1110 -86 l 1164 -86 l 1164 -100 l 1131 -100 l 1131 -146 l 1158 -146 l 1158 -160 l 1131 -160 l 1131 -211 l 1164 -211 l 1164 -224 l 1110 -224 m 1492 -394 l 1492 -257 l 1546 -257 l 1546 -271 l 1511 -271 l 1511 -315 l 1539 -315 l 1539 -329 l 1511 -329 l 1511 -381 l 1546 -381 l 1546 -394 l 1492 -394 m 928 -394 l 928 -257 l 981 -257 l 981 -271 l 946 -271 l 946 -315 l 975 -315 l 975 -329 l 946 -329 l 946 -381 l 981 -381 l 981 -394 l 928 -394 m 982 356 l 982 494 l 1036 494 l 1036 481 l 1001 481 l 1001 435 l 1029 435 l 1029 421 l 1001 421 l 1001 369 l 1036 369 l 1036 356 l 982 356 m 753 -208 q 771 -210 765 -214 q 778 -197 776 -206 q 781 -178 781 -189 q 781 -161 781 -168 q 782 -128 781 -150 q 772 -101 783 -107 q 751 -103 758 -94 q 744 -124 744 -112 l 744 -146 q 744 -160 744 -150 q 743 -179 743 -169 q 745 -197 743 -189 q 753 -208 747 -206 m 1799 -378 q 1816 -380 1810 -383 q 1824 -368 1822 -376 q 1826 -349 1826 -360 q 1826 -332 1826 -339 q 1827 -317 1826 -326 q 1827 -299 1828 -308 q 1824 -283 1826 -290 q 1817 -272 1822 -275 q 1797 -274 1803 -265 q 1790 -294 1790 -283 l 1790 -315 q 1790 -329 1790 -319 q 1789 -349 1789 -339 q 1791 -368 1789 -360 q 1799 -378 1793 -376 m 636 -378 q 653 -380 647 -383 q 662 -368 660 -376 q 664 -349 664 -360 q 664 -332 664 -339 q 665 -317 664 -326 q 665 -299 665 -308 q 663 -283 665 -290 q 656 -272 661 -275 q 634 -274 640 -265 q 628 -294 628 -283 q 627 -305 626 -300 q 628 -315 628 -310 q 627 -329 628 -319 q 626 -349 626 -339 q 628 -368 626 -360 q 636 -378 631 -376 m 660 -224 l 660 -86 l 714 -86 l 714 -100 l 681 -100 l 681 -146 l 707 -146 l 707 -160 l 681 -160 l 681 -224 l 660 -224 m 1219 -224 l 1219 -86 l 1272 -86 l 1272 -100 l 1238 -100 l 1238 -146 l 1264 -146 l 1264 -160 l 1238 -160 l 1238 -224 l 1219 -224 m 1746 -211 q 1766 -209 1757 -211 q 1778 -192 1775 -207 l 1778 -156 l 1778 -121 q 1767 -103 1776 -106 q 1746 -100 1758 -100 l 1746 -211 m 961 -224 l 961 -100 l 936 -100 l 936 -86 l 1006 -86 l 1006 -100 l 981 -100 l 981 -224 l 961 -224 m 1590 356 l 1590 481 l 1565 481 l 1565 494 l 1633 494 l 1633 481 l 1610 481 l 1610 356 l 1590 356 m 1300 -394 l 1300 -257 l 1318 -257 l 1318 -381 l 1354 -381 l 1354 -394 l 1300 -394 m 1379 -224 l 1379 -86 l 1397 -86 l 1397 -211 l 1432 -211 l 1432 -224 l 1379 -224 m 1446 -224 l 1446 -86 l 1465 -86 l 1465 -211 l 1500 -211 l 1500 -224 l 1446 -224 m 915 356 l 915 494 l 933 494 l 933 369 l 968 369 l 968 356 l 915 356 m 1411 356 l 1411 494 l 1431 494 l 1431 356 l 1411 356 m 1629 963 l 1675 963 l 1651 1085 l 1629 963 m 596 -10 l 646 -10 l 646 46 l 596 46 l 596 -10 m 1224 243 q 1240 244 1231 243 q 1253 239 1249 244 q 1260 205 1261 228 q 1251 171 1260 182 q 1238 164 1246 164 q 1224 164 1231 164 l 1224 243 m 2079 243 q 2095 244 2086 243 q 2110 239 2104 244 q 2116 205 2117 228 q 2108 171 2115 182 q 2094 164 2101 164 q 2079 164 2086 164 l 2079 243 m 1174 -394 l 1174 -257 l 1193 -257 l 1193 -394 l 1174 -394 m 1731 -394 l 1731 -257 l 1750 -257 l 1750 -394 l 1731 -394 m 1533 356 l 1533 494 l 1553 494 l 1553 356 l 1533 356 m 1808 560 l 1808 597 l 1844 597 l 1844 560 l 1808 560 m 853 433 q 863 433 857 433 q 874 436 868 433 q 882 447 881 439 q 883 461 883 454 q 874 478 882 476 q 853 481 865 481 l 853 433 m 839 -146 q 860 -142 851 -146 q 869 -122 869 -137 q 861 -103 869 -107 q 839 -100 853 -100 l 839 -146 m 1581 -315 q 1602 -312 1593 -315 q 1611 -293 1611 -308 q 1602 -274 1611 -278 q 1581 -271 1593 -271 l 1581 -315 m 1017 -315 q 1038 -312 1029 -315 q 1046 -293 1046 -308 q 1038 -274 1046 -278 q 1017 -271 1029 -271 l 1017 -315 m 1235 -346 l 1258 -346 l 1247 -283 l 1235 -346 m 1572 -175 l 1596 -175 l 1585 -112 l 1572 -175 m 1071 406 l 1094 406 l 1083 468 l 1071 406 m 1376 104 l 1386 163 l 1394 104 l 1376 104 z "},"6":{"ha":2375,"x_min":218,"x_max":2164,"o":"m 339 288 l 304 101 l 271 288 l 222 288 l 218 -10 l 263 -10 l 264 111 l 288 -10 l 322 -10 l 346 113 l 347 -10 l 392 -10 l 389 288 l 339 288 m 1304 865 q 1256 881 1275 865 q 1233 924 1238 896 q 1231 950 1231 938 q 1231 976 1231 963 q 1229 1035 1231 1004 q 1236 1093 1228 1065 q 1260 1127 1243 1117 q 1300 1139 1276 1138 q 1343 1132 1324 1140 q 1371 1100 1363 1124 q 1381 1042 1382 1074 q 1379 982 1379 1010 q 1378 951 1379 967 q 1375 919 1378 935 q 1304 865 1363 865 m 1235 557 q 1163 615 1174 557 q 1160 642 1160 629 q 1161 669 1161 656 q 1160 728 1161 697 q 1165 785 1158 758 q 1189 819 1172 808 q 1229 831 1206 831 q 1272 824 1253 832 q 1301 792 1292 815 q 1310 734 1313 765 q 1307 675 1307 703 q 1307 643 1307 658 q 1304 613 1307 628 q 1281 571 1299 585 q 1235 557 1263 557 m 2096 288 l 2029 288 l 2029 -10 l 2079 -10 l 2079 121 l 2093 121 l 2113 -10 l 2163 -10 l 2138 133 q 2163 186 2158 151 q 2162 222 2164 204 q 2152 255 2160 240 q 2131 278 2144 269 q 2096 288 2117 288 m 518 144 l 467 288 l 429 288 l 429 -10 l 475 -10 l 475 136 l 526 -10 l 564 -10 l 564 288 l 518 288 l 518 144 m 1665 144 l 1615 288 l 1576 288 l 1576 -10 l 1624 -10 l 1624 136 l 1675 -10 l 1713 -10 l 1713 288 l 1665 288 l 1665 144 m 892 101 l 921 101 q 921 82 921 94 q 919 57 921 69 q 910 37 917 44 q 892 33 904 29 q 881 44 883 36 q 876 61 878 51 q 876 81 875 71 q 876 97 876 90 l 876 168 q 876 200 876 183 q 879 232 875 217 q 901 244 886 247 q 917 226 915 240 q 919 204 919 215 q 918 182 918 193 l 968 182 q 965 236 968 207 q 936 281 961 265 q 903 290 921 289 q 869 286 885 290 q 840 262 849 279 q 826 225 831 244 q 824 183 824 204 q 825 139 825 161 q 824 98 825 118 q 826 57 824 78 q 835 22 829 39 q 857 -4 842 6 q 894 -15 872 -15 q 929 0 915 -14 l 931 -10 l 969 -10 l 969 144 l 892 144 l 892 101 m 1363 288 l 1308 -10 l 1358 -10 l 1369 60 l 1401 60 l 1413 -10 l 1463 -10 l 1410 288 l 1363 288 m 1239 288 l 1174 288 l 1174 -10 l 1224 -10 l 1224 121 q 1249 122 1236 121 q 1274 128 1261 122 q 1296 152 1289 136 q 1306 186 1303 168 q 1306 222 1308 204 q 1297 255 1304 240 q 1274 278 1289 269 q 1239 288 1260 288 m 906 868 l 906 1138 q 959 1138 931 1138 q 1010 1126 988 1139 q 1033 1100 1025 1118 q 1040 1062 1040 1082 q 1032 1025 1040 1042 q 1007 1003 1024 1008 l 1044 868 l 1007 868 l 972 994 l 943 994 l 943 868 l 906 868 m 768 144 l 743 172 q 728 187 736 179 q 717 206 719 194 q 716 231 713 217 q 735 244 719 246 q 747 237 743 243 q 751 222 750 231 q 753 203 753 213 q 754 189 754 194 l 800 192 q 794 245 800 218 q 763 285 788 272 q 730 290 746 292 q 701 281 714 289 q 678 260 688 274 q 668 231 669 247 q 668 195 665 213 q 682 163 671 178 q 693 148 686 154 q 706 135 700 142 q 738 100 721 118 q 754 58 754 82 q 752 43 754 51 q 742 33 750 35 q 722 44 729 29 q 715 69 715 56 q 713 97 714 83 l 667 93 q 669 58 667 75 q 678 22 671 40 q 708 -8 689 1 q 750 -12 728 -17 q 787 9 774 -8 q 803 47 800 26 q 797 100 806 75 q 768 144 788 125 m 610 868 l 610 1138 l 668 1138 q 706 1133 688 1138 q 735 1108 724 1128 q 744 1054 746 1085 q 722 1007 743 1024 q 687 994 707 994 q 647 993 667 993 l 647 868 l 610 868 m 1939 122 l 1986 122 l 1986 164 l 1939 164 l 1939 243 l 1997 243 l 1997 288 l 1889 288 l 1889 -10 l 1997 -10 l 1997 33 l 1939 33 l 1939 122 m 1344 560 l 1344 829 l 1369 829 l 1447 650 l 1447 829 l 1479 829 l 1479 560 l 1454 560 l 1376 743 l 1376 560 l 1344 560 m 1417 868 l 1417 1138 l 1442 1138 l 1518 958 l 1518 1138 l 1549 1138 l 1549 868 l 1525 868 l 1447 1051 l 1447 868 l 1417 868 m 714 561 q 660 560 689 551 q 621 596 632 568 q 613 627 614 611 q 613 661 613 643 l 613 829 l 649 829 l 649 650 q 651 615 649 635 q 672 588 653 594 q 696 586 686 582 q 711 600 706 590 q 719 622 717 610 q 721 644 721 633 q 722 688 722 667 q 721 731 721 708 l 721 829 l 757 829 l 757 706 q 758 667 757 689 q 756 624 760 644 q 744 585 753 603 q 714 561 735 568 m 1576 868 l 1635 1138 l 1669 1138 l 1726 868 l 1692 868 l 1679 935 l 1624 935 l 1611 868 l 1576 868 m 1826 243 l 1868 243 l 1868 288 l 1735 288 l 1735 243 l 1776 243 l 1776 -10 l 1826 -10 l 1826 243 m 860 557 q 808 580 825 557 q 789 636 790 603 l 822 644 q 826 619 824 632 q 838 596 828 606 q 858 587 846 588 q 881 593 871 586 q 890 619 892 603 q 882 646 889 635 q 869 661 876 654 q 853 675 861 668 q 825 700 840 688 q 800 728 810 713 q 791 787 783 754 q 829 829 799 819 q 863 832 844 833 q 894 821 882 831 q 913 794 908 810 q 919 763 918 778 l 889 753 q 883 784 888 768 q 860 803 878 800 q 837 799 847 804 q 824 779 826 793 q 824 759 821 768 q 835 742 828 750 q 851 726 842 733 q 867 714 860 719 q 901 681 885 699 q 922 640 917 664 q 912 583 929 608 q 860 557 894 557 m 1142 865 q 1090 888 1108 865 q 1071 943 1072 911 l 1104 951 q 1108 926 1106 939 q 1119 904 1111 913 q 1140 894 1128 896 q 1163 901 1153 893 q 1172 927 1174 911 q 1164 954 1171 943 q 1151 969 1158 963 q 1135 983 1143 976 q 1107 1007 1122 994 q 1082 1035 1092 1019 q 1072 1065 1074 1049 q 1073 1095 1069 1081 q 1086 1121 1076 1110 q 1111 1136 1096 1132 q 1145 1139 1126 1140 q 1176 1128 1164 1138 q 1195 1101 1190 1118 q 1201 1069 1200 1085 l 1171 1061 q 1165 1092 1169 1076 q 1142 1111 1160 1108 q 1119 1106 1129 1113 q 1106 1088 1108 1100 q 1117 1049 1101 1064 q 1149 1021 1133 1033 q 1183 989 1167 1006 q 1204 949 1199 972 q 1194 891 1211 917 q 1142 865 1176 865 m 992 -47 l 1036 -47 l 1118 325 l 1071 325 l 992 -47 m 771 868 l 771 1138 l 875 1138 l 875 1110 l 808 1110 l 808 1021 l 863 1021 l 863 993 l 808 993 l 808 894 l 876 894 l 876 868 l 771 868 m 1538 288 l 1486 288 l 1486 -10 l 1538 -10 l 1538 288 m 954 560 l 954 829 l 1058 829 l 1058 801 l 992 801 l 992 713 l 1046 713 l 1046 686 l 992 686 l 992 586 l 1058 586 l 1058 560 l 954 560 m 1288 897 q 1324 897 1304 890 q 1336 912 1333 903 q 1340 931 1339 921 l 1340 963 l 1340 1056 q 1340 1079 1340 1067 q 1331 1101 1339 1092 q 1315 1110 1324 1108 q 1297 1110 1306 1113 q 1271 1086 1278 1108 q 1267 1043 1265 1067 q 1269 1000 1269 1019 l 1269 950 q 1271 920 1269 936 q 1288 897 1272 904 m 1215 589 q 1233 586 1222 586 q 1251 589 1244 586 q 1265 604 1261 594 q 1269 624 1268 614 q 1270 639 1271 631 q 1269 654 1269 647 l 1269 749 q 1269 772 1269 760 q 1260 793 1268 785 q 1244 802 1253 800 q 1225 803 1235 804 q 1200 778 1206 799 q 1197 735 1196 758 q 1199 692 1199 713 l 1199 643 q 1200 612 1199 628 q 1215 589 1201 596 m 1693 560 l 1693 617 q 1694 637 1693 626 q 1693 657 1696 647 q 1685 683 1690 671 q 1675 708 1681 696 l 1636 829 l 1671 829 l 1713 700 l 1751 829 l 1788 829 q 1770 774 1779 801 q 1751 718 1761 746 l 1732 661 q 1729 644 1729 653 q 1729 626 1729 635 l 1729 560 l 1693 560 m 1754 868 l 1754 1138 l 1792 1138 l 1792 894 l 1861 894 l 1861 868 l 1754 868 m 1521 560 l 1521 829 l 1558 829 l 1558 586 l 1626 586 l 1626 560 l 1521 560 m 763 -225 q 739 -217 747 -225 q 727 -199 731 -210 q 724 -174 724 -187 q 724 -150 724 -161 q 724 -126 724 -139 q 729 -105 725 -114 q 742 -90 733 -96 q 767 -85 750 -83 q 788 -93 781 -86 q 798 -110 794 -100 q 801 -133 801 -121 q 801 -156 801 -146 q 801 -178 801 -167 q 797 -201 800 -190 q 785 -218 793 -211 q 763 -225 778 -225 m 1726 -224 l 1726 -86 q 1758 -85 1740 -86 q 1786 -94 1775 -85 q 1797 -123 1797 -106 q 1797 -156 1797 -140 q 1797 -188 1797 -169 q 1783 -217 1797 -207 q 1756 -224 1772 -225 q 1726 -224 1739 -224 m 1807 -396 q 1783 -388 1792 -396 q 1772 -369 1775 -381 q 1769 -345 1769 -358 q 1769 -321 1769 -332 q 1770 -297 1769 -308 q 1775 -275 1771 -285 q 1788 -260 1779 -265 q 1813 -256 1796 -254 q 1833 -264 1826 -257 q 1842 -281 1840 -271 q 1844 -304 1844 -292 q 1844 -326 1844 -317 q 1844 -349 1844 -337 q 1841 -372 1844 -361 q 1830 -389 1838 -382 q 1807 -396 1822 -396 m 646 -396 q 622 -388 629 -396 q 611 -369 614 -381 q 608 -345 608 -358 q 608 -321 608 -332 q 609 -297 608 -308 q 614 -275 610 -285 q 626 -260 618 -265 q 650 -256 635 -254 q 671 -264 664 -257 q 681 -281 678 -271 q 683 -304 683 -292 q 683 -326 683 -317 q 683 -349 683 -337 q 680 -372 683 -361 q 669 -389 676 -382 q 646 -396 661 -396 m 996 -394 l 996 -257 q 1023 -256 1008 -257 q 1049 -261 1038 -254 q 1061 -274 1057 -265 q 1065 -294 1065 -283 q 1061 -313 1065 -304 q 1047 -325 1057 -322 l 1068 -394 l 1049 -394 l 1032 -329 l 1017 -329 l 1017 -394 l 996 -394 m 701 -394 l 704 -257 l 724 -257 l 749 -368 l 772 -257 l 790 -257 l 793 -394 l 778 -394 l 776 -294 l 753 -394 l 742 -394 l 719 -294 l 718 -394 l 701 -394 m 814 -394 l 817 -257 l 836 -257 l 860 -368 l 885 -257 l 904 -257 l 906 -394 l 892 -394 l 889 -294 l 865 -394 l 854 -394 l 832 -294 l 829 -394 l 814 -394 m 1561 -394 l 1561 -257 q 1588 -256 1574 -257 q 1613 -261 1601 -254 q 1625 -274 1621 -265 q 1629 -294 1629 -283 q 1625 -313 1629 -304 q 1613 -325 1621 -322 l 1632 -394 l 1613 -394 l 1596 -329 l 1581 -329 l 1581 -394 l 1561 -394 m 819 -224 l 819 -86 q 846 -85 832 -86 q 871 -90 860 -83 q 883 -104 879 -94 q 888 -124 888 -114 q 885 -144 889 -135 q 871 -156 881 -153 l 890 -224 l 872 -224 l 853 -160 l 839 -160 l 839 -224 l 819 -224 m 833 356 l 833 494 q 869 494 849 494 q 897 479 889 494 q 902 452 903 468 q 890 428 901 436 q 872 420 882 421 q 853 419 863 419 l 853 356 l 833 356 m 1636 -224 l 1636 -86 l 1649 -86 l 1688 -178 l 1688 -86 l 1704 -86 l 1704 -224 l 1692 -224 l 1653 -131 l 1653 -224 l 1636 -224 m 1015 -224 l 1015 -86 l 1033 -86 l 1033 -146 l 1071 -146 l 1071 -86 l 1089 -86 l 1089 -224 l 1071 -224 l 1071 -160 l 1033 -160 l 1033 -224 l 1015 -224 m 1865 -394 l 1865 -257 l 1878 -257 l 1917 -349 l 1917 -257 l 1932 -257 l 1932 -394 l 1919 -394 l 1881 -301 l 1881 -394 l 1865 -394 m 1044 356 l 1074 494 l 1093 494 l 1122 356 l 1103 356 l 1097 392 l 1069 392 l 1063 356 l 1044 356 m 1207 -394 l 1238 -257 l 1256 -257 l 1285 -394 l 1267 -394 l 1261 -360 l 1232 -360 l 1225 -394 l 1207 -394 m 1546 -224 l 1574 -86 l 1593 -86 l 1622 -224 l 1604 -224 l 1597 -189 l 1569 -189 l 1563 -224 l 1546 -224 m 1819 618 l 1808 829 l 1844 829 l 1832 618 l 1819 618 m 1336 -224 q 1302 -221 1317 -231 q 1285 -192 1288 -211 q 1284 -175 1283 -183 q 1285 -160 1285 -167 l 1285 -86 l 1303 -86 l 1303 -147 q 1302 -165 1303 -154 q 1302 -185 1301 -175 q 1307 -203 1303 -196 q 1321 -211 1311 -211 q 1335 -203 1331 -211 q 1340 -185 1339 -196 q 1341 -165 1342 -175 q 1340 -147 1340 -154 l 1340 -86 l 1357 -86 l 1357 -149 q 1358 -169 1357 -157 q 1357 -191 1358 -181 q 1351 -210 1356 -201 q 1336 -224 1346 -219 m 647 1021 q 667 1020 657 1021 q 686 1022 676 1019 q 705 1038 701 1026 q 708 1061 708 1049 q 706 1090 710 1076 q 686 1108 703 1104 q 667 1110 676 1111 q 647 1110 657 1110 l 647 1021 m 943 1021 q 963 1021 953 1021 q 982 1024 972 1021 q 1000 1042 996 1031 q 1003 1068 1004 1054 q 999 1091 1003 1081 q 982 1107 996 1101 q 963 1110 972 1110 q 943 1110 953 1110 l 943 1021 m 557 -396 q 531 -386 539 -396 q 521 -362 524 -376 q 519 -331 518 -347 q 519 -301 519 -314 q 529 -267 519 -282 q 561 -256 539 -253 q 588 -274 583 -258 q 592 -306 592 -289 l 574 -306 q 574 -292 574 -299 q 572 -279 575 -286 q 559 -270 569 -271 q 543 -276 549 -269 q 539 -301 538 -285 q 540 -326 540 -317 q 539 -351 540 -336 q 544 -375 538 -367 q 559 -381 549 -382 q 572 -371 569 -379 q 574 -357 575 -364 q 574 -343 574 -350 l 592 -343 q 586 -379 592 -362 q 557 -396 581 -396 m 1119 -396 q 1094 -386 1101 -396 q 1084 -362 1086 -376 q 1083 -331 1082 -347 q 1083 -301 1083 -314 q 1092 -267 1083 -282 q 1124 -256 1101 -253 q 1150 -274 1146 -258 q 1154 -306 1154 -289 l 1136 -306 q 1137 -292 1136 -299 q 1135 -279 1138 -286 q 1122 -270 1132 -271 q 1106 -276 1111 -269 q 1100 -301 1099 -285 q 1101 -326 1101 -317 q 1101 -351 1101 -336 q 1107 -375 1100 -367 q 1122 -381 1111 -382 q 1135 -371 1132 -379 q 1137 -357 1138 -364 q 1136 -343 1136 -350 l 1154 -343 q 1149 -379 1154 -362 q 1119 -396 1143 -396 m 1485 354 q 1458 366 1467 354 q 1449 394 1450 378 l 1467 400 q 1469 383 1467 393 q 1479 371 1472 374 q 1494 373 1489 368 q 1500 386 1500 378 q 1489 411 1501 401 q 1467 431 1476 421 q 1449 459 1454 442 q 1460 489 1444 476 q 1478 495 1467 494 q 1497 493 1489 496 q 1511 479 1507 489 q 1517 460 1515 469 l 1500 456 q 1497 469 1499 463 q 1489 481 1496 476 q 1476 481 1483 483 q 1468 471 1469 478 q 1472 451 1463 460 q 1488 436 1481 443 q 1505 420 1496 429 q 1517 399 1514 411 q 1513 368 1521 382 q 1485 354 1504 354 m 1168 354 q 1142 366 1150 354 q 1132 394 1133 378 l 1149 400 q 1151 383 1149 393 q 1161 371 1154 374 q 1177 373 1171 368 q 1183 386 1183 378 q 1171 411 1183 401 q 1149 431 1158 421 q 1133 459 1138 442 q 1143 489 1128 476 q 1161 495 1150 494 q 1181 493 1172 496 q 1194 479 1190 489 q 1200 460 1199 469 l 1183 456 q 1181 469 1182 463 q 1172 481 1179 476 q 1159 481 1165 483 q 1150 471 1153 478 q 1154 451 1146 460 q 1169 436 1163 443 q 1188 420 1179 429 q 1200 399 1197 411 q 1195 368 1204 382 q 1168 354 1186 354 m 1682 -396 q 1656 -384 1664 -396 q 1646 -356 1647 -372 l 1663 -351 q 1665 -367 1663 -358 q 1675 -379 1668 -376 q 1691 -378 1685 -383 q 1697 -365 1697 -374 q 1685 -340 1697 -350 q 1663 -321 1672 -329 q 1647 -292 1651 -310 q 1657 -262 1642 -274 q 1675 -255 1664 -256 q 1694 -258 1686 -254 q 1708 -271 1704 -261 q 1714 -290 1713 -281 l 1697 -296 q 1694 -281 1696 -289 q 1686 -271 1693 -274 q 1673 -270 1679 -268 q 1664 -279 1667 -272 q 1668 -299 1660 -290 q 1683 -314 1676 -307 q 1702 -331 1693 -322 q 1714 -353 1711 -340 q 1709 -383 1718 -369 q 1682 -396 1700 -396 m 1349 356 l 1318 494 l 1336 494 l 1357 393 l 1379 494 l 1396 494 l 1365 356 l 1349 356 m 1431 -394 l 1399 -257 l 1417 -257 l 1439 -358 l 1458 -257 l 1476 -257 l 1446 -394 l 1431 -394 m 1215 356 l 1215 494 l 1269 494 l 1269 481 l 1236 481 l 1236 435 l 1264 435 l 1264 421 l 1236 421 l 1236 369 l 1271 369 l 1271 356 l 1215 356 m 1110 -224 l 1110 -86 l 1164 -86 l 1164 -100 l 1131 -100 l 1131 -146 l 1158 -146 l 1158 -160 l 1131 -160 l 1131 -211 l 1164 -211 l 1164 -224 l 1110 -224 m 1492 -394 l 1492 -257 l 1546 -257 l 1546 -271 l 1511 -271 l 1511 -315 l 1539 -315 l 1539 -329 l 1511 -329 l 1511 -381 l 1546 -381 l 1546 -394 l 1492 -394 m 928 -394 l 928 -257 l 981 -257 l 981 -271 l 946 -271 l 946 -315 l 975 -315 l 975 -329 l 946 -329 l 946 -381 l 981 -381 l 981 -394 l 928 -394 m 982 356 l 982 494 l 1036 494 l 1036 481 l 1001 481 l 1001 435 l 1029 435 l 1029 421 l 1001 421 l 1001 369 l 1036 369 l 1036 356 l 982 356 m 753 -208 q 771 -210 765 -214 q 778 -197 776 -206 q 781 -178 781 -189 q 781 -161 781 -168 q 782 -128 781 -150 q 772 -101 783 -107 q 751 -103 758 -94 q 744 -124 744 -112 l 744 -146 q 744 -160 744 -150 q 743 -179 743 -169 q 745 -197 743 -189 q 753 -208 747 -206 m 1799 -378 q 1816 -380 1810 -383 q 1824 -368 1822 -376 q 1826 -349 1826 -360 q 1826 -332 1826 -339 q 1827 -317 1826 -326 q 1827 -299 1828 -308 q 1824 -283 1826 -290 q 1817 -272 1822 -275 q 1797 -274 1803 -265 q 1790 -294 1790 -283 l 1790 -315 q 1790 -329 1790 -319 q 1789 -349 1789 -339 q 1791 -368 1789 -360 q 1799 -378 1793 -376 m 636 -378 q 653 -380 647 -383 q 662 -368 660 -376 q 664 -349 664 -360 q 664 -332 664 -339 q 665 -317 664 -326 q 665 -299 665 -308 q 663 -283 665 -290 q 656 -272 661 -275 q 634 -274 640 -265 q 628 -294 628 -283 q 627 -305 626 -300 q 628 -315 628 -310 q 627 -329 628 -319 q 626 -349 626 -339 q 628 -368 626 -360 q 636 -378 631 -376 m 660 -224 l 660 -86 l 714 -86 l 714 -100 l 681 -100 l 681 -146 l 707 -146 l 707 -160 l 681 -160 l 681 -224 l 660 -224 m 1219 -224 l 1219 -86 l 1272 -86 l 1272 -100 l 1238 -100 l 1238 -146 l 1264 -146 l 1264 -160 l 1238 -160 l 1238 -224 l 1219 -224 m 1746 -211 q 1766 -209 1757 -211 q 1778 -192 1775 -207 l 1778 -156 l 1778 -121 q 1767 -103 1776 -106 q 1746 -100 1758 -100 l 1746 -211 m 961 -224 l 961 -100 l 936 -100 l 936 -86 l 1006 -86 l 1006 -100 l 981 -100 l 981 -224 l 961 -224 m 1590 356 l 1590 481 l 1565 481 l 1565 494 l 1633 494 l 1633 481 l 1610 481 l 1610 356 l 1590 356 m 1300 -394 l 1300 -257 l 1318 -257 l 1318 -381 l 1354 -381 l 1354 -394 l 1300 -394 m 1379 -224 l 1379 -86 l 1397 -86 l 1397 -211 l 1432 -211 l 1432 -224 l 1379 -224 m 1446 -224 l 1446 -86 l 1465 -86 l 1465 -211 l 1500 -211 l 1500 -224 l 1446 -224 m 915 356 l 915 494 l 933 494 l 933 369 l 968 369 l 968 356 l 915 356 m 1411 356 l 1411 494 l 1431 494 l 1431 356 l 1411 356 m 1629 963 l 1675 963 l 1651 1085 l 1629 963 m 596 -10 l 646 -10 l 646 46 l 596 46 l 596 -10 m 1224 243 q 1240 244 1231 243 q 1253 239 1249 244 q 1260 205 1261 228 q 1251 171 1260 182 q 1238 164 1246 164 q 1224 164 1231 164 l 1224 243 m 2079 243 q 2095 244 2086 243 q 2110 239 2104 244 q 2116 205 2117 228 q 2108 171 2115 182 q 2094 164 2101 164 q 2079 164 2086 164 l 2079 243 m 1174 -394 l 1174 -257 l 1193 -257 l 1193 -394 l 1174 -394 m 1731 -394 l 1731 -257 l 1750 -257 l 1750 -394 l 1731 -394 m 1533 356 l 1533 494 l 1553 494 l 1553 356 l 1533 356 m 1808 560 l 1808 597 l 1844 597 l 1844 560 l 1808 560 m 853 433 q 863 433 857 433 q 874 436 868 433 q 882 447 881 439 q 883 461 883 454 q 874 478 882 476 q 853 481 865 481 l 853 433 m 839 -146 q 860 -142 851 -146 q 869 -122 869 -137 q 861 -103 869 -107 q 839 -100 853 -100 l 839 -146 m 1581 -315 q 1602 -312 1593 -315 q 1611 -293 1611 -308 q 1602 -274 1611 -278 q 1581 -271 1593 -271 l 1581 -315 m 1017 -315 q 1038 -312 1029 -315 q 1046 -293 1046 -308 q 1038 -274 1046 -278 q 1017 -271 1029 -271 l 1017 -315 m 1235 -346 l 1258 -346 l 1247 -283 l 1235 -346 m 1572 -175 l 1596 -175 l 1585 -112 l 1572 -175 m 1071 406 l 1094 406 l 1083 468 l 1071 406 m 1376 104 l 1386 163 l 1394 104 l 1376 104 z "},"7":{"ha":2375,"x_min":218,"x_max":2164,"o":"m 339 288 l 304 101 l 271 288 l 222 288 l 218 -10 l 263 -10 l 264 111 l 288 -10 l 322 -10 l 346 113 l 347 -10 l 392 -10 l 389 288 l 339 288 m 1304 865 q 1256 881 1275 865 q 1233 924 1238 896 q 1231 950 1231 938 q 1231 976 1231 963 q 1229 1035 1231 1004 q 1236 1093 1228 1065 q 1260 1127 1243 1117 q 1300 1139 1276 1138 q 1343 1132 1324 1140 q 1371 1100 1363 1124 q 1381 1042 1382 1074 q 1379 982 1379 1010 q 1378 951 1379 967 q 1375 919 1378 935 q 1304 865 1363 865 m 1235 557 q 1163 615 1174 557 q 1160 642 1160 629 q 1161 669 1161 656 q 1160 728 1161 697 q 1165 785 1158 758 q 1189 819 1172 808 q 1229 831 1206 831 q 1272 824 1253 832 q 1301 792 1292 815 q 1310 734 1313 765 q 1307 675 1307 703 q 1307 643 1307 658 q 1304 613 1307 628 q 1281 571 1299 585 q 1235 557 1263 557 m 2096 288 l 2029 288 l 2029 -10 l 2079 -10 l 2079 121 l 2093 121 l 2113 -10 l 2163 -10 l 2138 133 q 2163 186 2158 151 q 2162 222 2164 204 q 2152 255 2160 240 q 2131 278 2144 269 q 2096 288 2117 288 m 518 144 l 467 288 l 429 288 l 429 -10 l 475 -10 l 475 136 l 526 -10 l 564 -10 l 564 288 l 518 288 l 518 144 m 1665 144 l 1615 288 l 1576 288 l 1576 -10 l 1624 -10 l 1624 136 l 1675 -10 l 1713 -10 l 1713 288 l 1665 288 l 1665 144 m 892 101 l 921 101 q 921 82 921 94 q 919 57 921 69 q 910 37 917 44 q 892 33 904 29 q 881 44 883 36 q 876 61 878 51 q 876 81 875 71 q 876 97 876 90 l 876 168 q 876 200 876 183 q 879 232 875 217 q 901 244 886 247 q 917 226 915 240 q 919 204 919 215 q 918 182 918 193 l 968 182 q 965 236 968 207 q 936 281 961 265 q 903 290 921 289 q 869 286 885 290 q 840 262 849 279 q 826 225 831 244 q 824 183 824 204 q 825 139 825 161 q 824 98 825 118 q 826 57 824 78 q 835 22 829 39 q 857 -4 842 6 q 894 -15 872 -15 q 929 0 915 -14 l 931 -10 l 969 -10 l 969 144 l 892 144 l 892 101 m 1363 288 l 1308 -10 l 1358 -10 l 1369 60 l 1401 60 l 1413 -10 l 1463 -10 l 1410 288 l 1363 288 m 1239 288 l 1174 288 l 1174 -10 l 1224 -10 l 1224 121 q 1249 122 1236 121 q 1274 128 1261 122 q 1296 152 1289 136 q 1306 186 1303 168 q 1306 222 1308 204 q 1297 255 1304 240 q 1274 278 1289 269 q 1239 288 1260 288 m 906 868 l 906 1138 q 959 1138 931 1138 q 1010 1126 988 1139 q 1033 1100 1025 1118 q 1040 1062 1040 1082 q 1032 1025 1040 1042 q 1007 1003 1024 1008 l 1044 868 l 1007 868 l 972 994 l 943 994 l 943 868 l 906 868 m 768 144 l 743 172 q 728 187 736 179 q 717 206 719 194 q 716 231 713 217 q 735 244 719 246 q 747 237 743 243 q 751 222 750 231 q 753 203 753 213 q 754 189 754 194 l 800 192 q 794 245 800 218 q 763 285 788 272 q 730 290 746 292 q 701 281 714 289 q 678 260 688 274 q 668 231 669 247 q 668 195 665 213 q 682 163 671 178 q 693 148 686 154 q 706 135 700 142 q 738 100 721 118 q 754 58 754 82 q 752 43 754 51 q 742 33 750 35 q 722 44 729 29 q 715 69 715 56 q 713 97 714 83 l 667 93 q 669 58 667 75 q 678 22 671 40 q 708 -8 689 1 q 750 -12 728 -17 q 787 9 774 -8 q 803 47 800 26 q 797 100 806 75 q 768 144 788 125 m 610 868 l 610 1138 l 668 1138 q 706 1133 688 1138 q 735 1108 724 1128 q 744 1054 746 1085 q 722 1007 743 1024 q 687 994 707 994 q 647 993 667 993 l 647 868 l 610 868 m 1939 122 l 1986 122 l 1986 164 l 1939 164 l 1939 243 l 1997 243 l 1997 288 l 1889 288 l 1889 -10 l 1997 -10 l 1997 33 l 1939 33 l 1939 122 m 1344 560 l 1344 829 l 1369 829 l 1447 650 l 1447 829 l 1479 829 l 1479 560 l 1454 560 l 1376 743 l 1376 560 l 1344 560 m 1417 868 l 1417 1138 l 1442 1138 l 1518 958 l 1518 1138 l 1549 1138 l 1549 868 l 1525 868 l 1447 1051 l 1447 868 l 1417 868 m 714 561 q 660 560 689 551 q 621 596 632 568 q 613 627 614 611 q 613 661 613 643 l 613 829 l 649 829 l 649 650 q 651 615 649 635 q 672 588 653 594 q 696 586 686 582 q 711 600 706 590 q 719 622 717 610 q 721 644 721 633 q 722 688 722 667 q 721 731 721 708 l 721 829 l 757 829 l 757 706 q 758 667 757 689 q 756 624 760 644 q 744 585 753 603 q 714 561 735 568 m 1576 868 l 1635 1138 l 1669 1138 l 1726 868 l 1692 868 l 1679 935 l 1624 935 l 1611 868 l 1576 868 m 1826 243 l 1868 243 l 1868 288 l 1735 288 l 1735 243 l 1776 243 l 1776 -10 l 1826 -10 l 1826 243 m 860 557 q 808 580 825 557 q 789 636 790 603 l 822 644 q 826 619 824 632 q 838 596 828 606 q 858 587 846 588 q 881 593 871 586 q 890 619 892 603 q 882 646 889 635 q 869 661 876 654 q 853 675 861 668 q 825 700 840 688 q 800 728 810 713 q 791 787 783 754 q 829 829 799 819 q 863 832 844 833 q 894 821 882 831 q 913 794 908 810 q 919 763 918 778 l 889 753 q 883 784 888 768 q 860 803 878 800 q 837 799 847 804 q 824 779 826 793 q 824 759 821 768 q 835 742 828 750 q 851 726 842 733 q 867 714 860 719 q 901 681 885 699 q 922 640 917 664 q 912 583 929 608 q 860 557 894 557 m 1142 865 q 1090 888 1108 865 q 1071 943 1072 911 l 1104 951 q 1108 926 1106 939 q 1119 904 1111 913 q 1140 894 1128 896 q 1163 901 1153 893 q 1172 927 1174 911 q 1164 954 1171 943 q 1151 969 1158 963 q 1135 983 1143 976 q 1107 1007 1122 994 q 1082 1035 1092 1019 q 1072 1065 1074 1049 q 1073 1095 1069 1081 q 1086 1121 1076 1110 q 1111 1136 1096 1132 q 1145 1139 1126 1140 q 1176 1128 1164 1138 q 1195 1101 1190 1118 q 1201 1069 1200 1085 l 1171 1061 q 1165 1092 1169 1076 q 1142 1111 1160 1108 q 1119 1106 1129 1113 q 1106 1088 1108 1100 q 1117 1049 1101 1064 q 1149 1021 1133 1033 q 1183 989 1167 1006 q 1204 949 1199 972 q 1194 891 1211 917 q 1142 865 1176 865 m 992 -47 l 1036 -47 l 1118 325 l 1071 325 l 992 -47 m 771 868 l 771 1138 l 875 1138 l 875 1110 l 808 1110 l 808 1021 l 863 1021 l 863 993 l 808 993 l 808 894 l 876 894 l 876 868 l 771 868 m 1538 288 l 1486 288 l 1486 -10 l 1538 -10 l 1538 288 m 954 560 l 954 829 l 1058 829 l 1058 801 l 992 801 l 992 713 l 1046 713 l 1046 686 l 992 686 l 992 586 l 1058 586 l 1058 560 l 954 560 m 1288 897 q 1324 897 1304 890 q 1336 912 1333 903 q 1340 931 1339 921 l 1340 963 l 1340 1056 q 1340 1079 1340 1067 q 1331 1101 1339 1092 q 1315 1110 1324 1108 q 1297 1110 1306 1113 q 1271 1086 1278 1108 q 1267 1043 1265 1067 q 1269 1000 1269 1019 l 1269 950 q 1271 920 1269 936 q 1288 897 1272 904 m 1215 589 q 1233 586 1222 586 q 1251 589 1244 586 q 1265 604 1261 594 q 1269 624 1268 614 q 1270 639 1271 631 q 1269 654 1269 647 l 1269 749 q 1269 772 1269 760 q 1260 793 1268 785 q 1244 802 1253 800 q 1225 803 1235 804 q 1200 778 1206 799 q 1197 735 1196 758 q 1199 692 1199 713 l 1199 643 q 1200 612 1199 628 q 1215 589 1201 596 m 1693 560 l 1693 617 q 1694 637 1693 626 q 1693 657 1696 647 q 1685 683 1690 671 q 1675 708 1681 696 l 1636 829 l 1671 829 l 1713 700 l 1751 829 l 1788 829 q 1770 774 1779 801 q 1751 718 1761 746 l 1732 661 q 1729 644 1729 653 q 1729 626 1729 635 l 1729 560 l 1693 560 m 1754 868 l 1754 1138 l 1792 1138 l 1792 894 l 1861 894 l 1861 868 l 1754 868 m 1521 560 l 1521 829 l 1558 829 l 1558 586 l 1626 586 l 1626 560 l 1521 560 m 763 -225 q 739 -217 747 -225 q 727 -199 731 -210 q 724 -174 724 -187 q 724 -150 724 -161 q 724 -126 724 -139 q 729 -105 725 -114 q 742 -90 733 -96 q 767 -85 750 -83 q 788 -93 781 -86 q 798 -110 794 -100 q 801 -133 801 -121 q 801 -156 801 -146 q 801 -178 801 -167 q 797 -201 800 -190 q 785 -218 793 -211 q 763 -225 778 -225 m 1726 -224 l 1726 -86 q 1758 -85 1740 -86 q 1786 -94 1775 -85 q 1797 -123 1797 -106 q 1797 -156 1797 -140 q 1797 -188 1797 -169 q 1783 -217 1797 -207 q 1756 -224 1772 -225 q 1726 -224 1739 -224 m 1807 -396 q 1783 -388 1792 -396 q 1772 -369 1775 -381 q 1769 -345 1769 -358 q 1769 -321 1769 -332 q 1770 -297 1769 -308 q 1775 -275 1771 -285 q 1788 -260 1779 -265 q 1813 -256 1796 -254 q 1833 -264 1826 -257 q 1842 -281 1840 -271 q 1844 -304 1844 -292 q 1844 -326 1844 -317 q 1844 -349 1844 -337 q 1841 -372 1844 -361 q 1830 -389 1838 -382 q 1807 -396 1822 -396 m 646 -396 q 622 -388 629 -396 q 611 -369 614 -381 q 608 -345 608 -358 q 608 -321 608 -332 q 609 -297 608 -308 q 614 -275 610 -285 q 626 -260 618 -265 q 650 -256 635 -254 q 671 -264 664 -257 q 681 -281 678 -271 q 683 -304 683 -292 q 683 -326 683 -317 q 683 -349 683 -337 q 680 -372 683 -361 q 669 -389 676 -382 q 646 -396 661 -396 m 996 -394 l 996 -257 q 1023 -256 1008 -257 q 1049 -261 1038 -254 q 1061 -274 1057 -265 q 1065 -294 1065 -283 q 1061 -313 1065 -304 q 1047 -325 1057 -322 l 1068 -394 l 1049 -394 l 1032 -329 l 1017 -329 l 1017 -394 l 996 -394 m 701 -394 l 704 -257 l 724 -257 l 749 -368 l 772 -257 l 790 -257 l 793 -394 l 778 -394 l 776 -294 l 753 -394 l 742 -394 l 719 -294 l 718 -394 l 701 -394 m 814 -394 l 817 -257 l 836 -257 l 860 -368 l 885 -257 l 904 -257 l 906 -394 l 892 -394 l 889 -294 l 865 -394 l 854 -394 l 832 -294 l 829 -394 l 814 -394 m 1561 -394 l 1561 -257 q 1588 -256 1574 -257 q 1613 -261 1601 -254 q 1625 -274 1621 -265 q 1629 -294 1629 -283 q 1625 -313 1629 -304 q 1613 -325 1621 -322 l 1632 -394 l 1613 -394 l 1596 -329 l 1581 -329 l 1581 -394 l 1561 -394 m 819 -224 l 819 -86 q 846 -85 832 -86 q 871 -90 860 -83 q 883 -104 879 -94 q 888 -124 888 -114 q 885 -144 889 -135 q 871 -156 881 -153 l 890 -224 l 872 -224 l 853 -160 l 839 -160 l 839 -224 l 819 -224 m 833 356 l 833 494 q 869 494 849 494 q 897 479 889 494 q 902 452 903 468 q 890 428 901 436 q 872 420 882 421 q 853 419 863 419 l 853 356 l 833 356 m 1636 -224 l 1636 -86 l 1649 -86 l 1688 -178 l 1688 -86 l 1704 -86 l 1704 -224 l 1692 -224 l 1653 -131 l 1653 -224 l 1636 -224 m 1015 -224 l 1015 -86 l 1033 -86 l 1033 -146 l 1071 -146 l 1071 -86 l 1089 -86 l 1089 -224 l 1071 -224 l 1071 -160 l 1033 -160 l 1033 -224 l 1015 -224 m 1865 -394 l 1865 -257 l 1878 -257 l 1917 -349 l 1917 -257 l 1932 -257 l 1932 -394 l 1919 -394 l 1881 -301 l 1881 -394 l 1865 -394 m 1044 356 l 1074 494 l 1093 494 l 1122 356 l 1103 356 l 1097 392 l 1069 392 l 1063 356 l 1044 356 m 1207 -394 l 1238 -257 l 1256 -257 l 1285 -394 l 1267 -394 l 1261 -360 l 1232 -360 l 1225 -394 l 1207 -394 m 1546 -224 l 1574 -86 l 1593 -86 l 1622 -224 l 1604 -224 l 1597 -189 l 1569 -189 l 1563 -224 l 1546 -224 m 1819 618 l 1808 829 l 1844 829 l 1832 618 l 1819 618 m 1336 -224 q 1302 -221 1317 -231 q 1285 -192 1288 -211 q 1284 -175 1283 -183 q 1285 -160 1285 -167 l 1285 -86 l 1303 -86 l 1303 -147 q 1302 -165 1303 -154 q 1302 -185 1301 -175 q 1307 -203 1303 -196 q 1321 -211 1311 -211 q 1335 -203 1331 -211 q 1340 -185 1339 -196 q 1341 -165 1342 -175 q 1340 -147 1340 -154 l 1340 -86 l 1357 -86 l 1357 -149 q 1358 -169 1357 -157 q 1357 -191 1358 -181 q 1351 -210 1356 -201 q 1336 -224 1346 -219 m 647 1021 q 667 1020 657 1021 q 686 1022 676 1019 q 705 1038 701 1026 q 708 1061 708 1049 q 706 1090 710 1076 q 686 1108 703 1104 q 667 1110 676 1111 q 647 1110 657 1110 l 647 1021 m 943 1021 q 963 1021 953 1021 q 982 1024 972 1021 q 1000 1042 996 1031 q 1003 1068 1004 1054 q 999 1091 1003 1081 q 982 1107 996 1101 q 963 1110 972 1110 q 943 1110 953 1110 l 943 1021 m 557 -396 q 531 -386 539 -396 q 521 -362 524 -376 q 519 -331 518 -347 q 519 -301 519 -314 q 529 -267 519 -282 q 561 -256 539 -253 q 588 -274 583 -258 q 592 -306 592 -289 l 574 -306 q 574 -292 574 -299 q 572 -279 575 -286 q 559 -270 569 -271 q 543 -276 549 -269 q 539 -301 538 -285 q 540 -326 540 -317 q 539 -351 540 -336 q 544 -375 538 -367 q 559 -381 549 -382 q 572 -371 569 -379 q 574 -357 575 -364 q 574 -343 574 -350 l 592 -343 q 586 -379 592 -362 q 557 -396 581 -396 m 1119 -396 q 1094 -386 1101 -396 q 1084 -362 1086 -376 q 1083 -331 1082 -347 q 1083 -301 1083 -314 q 1092 -267 1083 -282 q 1124 -256 1101 -253 q 1150 -274 1146 -258 q 1154 -306 1154 -289 l 1136 -306 q 1137 -292 1136 -299 q 1135 -279 1138 -286 q 1122 -270 1132 -271 q 1106 -276 1111 -269 q 1100 -301 1099 -285 q 1101 -326 1101 -317 q 1101 -351 1101 -336 q 1107 -375 1100 -367 q 1122 -381 1111 -382 q 1135 -371 1132 -379 q 1137 -357 1138 -364 q 1136 -343 1136 -350 l 1154 -343 q 1149 -379 1154 -362 q 1119 -396 1143 -396 m 1485 354 q 1458 366 1467 354 q 1449 394 1450 378 l 1467 400 q 1469 383 1467 393 q 1479 371 1472 374 q 1494 373 1489 368 q 1500 386 1500 378 q 1489 411 1501 401 q 1467 431 1476 421 q 1449 459 1454 442 q 1460 489 1444 476 q 1478 495 1467 494 q 1497 493 1489 496 q 1511 479 1507 489 q 1517 460 1515 469 l 1500 456 q 1497 469 1499 463 q 1489 481 1496 476 q 1476 481 1483 483 q 1468 471 1469 478 q 1472 451 1463 460 q 1488 436 1481 443 q 1505 420 1496 429 q 1517 399 1514 411 q 1513 368 1521 382 q 1485 354 1504 354 m 1168 354 q 1142 366 1150 354 q 1132 394 1133 378 l 1149 400 q 1151 383 1149 393 q 1161 371 1154 374 q 1177 373 1171 368 q 1183 386 1183 378 q 1171 411 1183 401 q 1149 431 1158 421 q 1133 459 1138 442 q 1143 489 1128 476 q 1161 495 1150 494 q 1181 493 1172 496 q 1194 479 1190 489 q 1200 460 1199 469 l 1183 456 q 1181 469 1182 463 q 1172 481 1179 476 q 1159 481 1165 483 q 1150 471 1153 478 q 1154 451 1146 460 q 1169 436 1163 443 q 1188 420 1179 429 q 1200 399 1197 411 q 1195 368 1204 382 q 1168 354 1186 354 m 1682 -396 q 1656 -384 1664 -396 q 1646 -356 1647 -372 l 1663 -351 q 1665 -367 1663 -358 q 1675 -379 1668 -376 q 1691 -378 1685 -383 q 1697 -365 1697 -374 q 1685 -340 1697 -350 q 1663 -321 1672 -329 q 1647 -292 1651 -310 q 1657 -262 1642 -274 q 1675 -255 1664 -256 q 1694 -258 1686 -254 q 1708 -271 1704 -261 q 1714 -290 1713 -281 l 1697 -296 q 1694 -281 1696 -289 q 1686 -271 1693 -274 q 1673 -270 1679 -268 q 1664 -279 1667 -272 q 1668 -299 1660 -290 q 1683 -314 1676 -307 q 1702 -331 1693 -322 q 1714 -353 1711 -340 q 1709 -383 1718 -369 q 1682 -396 1700 -396 m 1349 356 l 1318 494 l 1336 494 l 1357 393 l 1379 494 l 1396 494 l 1365 356 l 1349 356 m 1431 -394 l 1399 -257 l 1417 -257 l 1439 -358 l 1458 -257 l 1476 -257 l 1446 -394 l 1431 -394 m 1215 356 l 1215 494 l 1269 494 l 1269 481 l 1236 481 l 1236 435 l 1264 435 l 1264 421 l 1236 421 l 1236 369 l 1271 369 l 1271 356 l 1215 356 m 1110 -224 l 1110 -86 l 1164 -86 l 1164 -100 l 1131 -100 l 1131 -146 l 1158 -146 l 1158 -160 l 1131 -160 l 1131 -211 l 1164 -211 l 1164 -224 l 1110 -224 m 1492 -394 l 1492 -257 l 1546 -257 l 1546 -271 l 1511 -271 l 1511 -315 l 1539 -315 l 1539 -329 l 1511 -329 l 1511 -381 l 1546 -381 l 1546 -394 l 1492 -394 m 928 -394 l 928 -257 l 981 -257 l 981 -271 l 946 -271 l 946 -315 l 975 -315 l 975 -329 l 946 -329 l 946 -381 l 981 -381 l 981 -394 l 928 -394 m 982 356 l 982 494 l 1036 494 l 1036 481 l 1001 481 l 1001 435 l 1029 435 l 1029 421 l 1001 421 l 1001 369 l 1036 369 l 1036 356 l 982 356 m 753 -208 q 771 -210 765 -214 q 778 -197 776 -206 q 781 -178 781 -189 q 781 -161 781 -168 q 782 -128 781 -150 q 772 -101 783 -107 q 751 -103 758 -94 q 744 -124 744 -112 l 744 -146 q 744 -160 744 -150 q 743 -179 743 -169 q 745 -197 743 -189 q 753 -208 747 -206 m 1799 -378 q 1816 -380 1810 -383 q 1824 -368 1822 -376 q 1826 -349 1826 -360 q 1826 -332 1826 -339 q 1827 -317 1826 -326 q 1827 -299 1828 -308 q 1824 -283 1826 -290 q 1817 -272 1822 -275 q 1797 -274 1803 -265 q 1790 -294 1790 -283 l 1790 -315 q 1790 -329 1790 -319 q 1789 -349 1789 -339 q 1791 -368 1789 -360 q 1799 -378 1793 -376 m 636 -378 q 653 -380 647 -383 q 662 -368 660 -376 q 664 -349 664 -360 q 664 -332 664 -339 q 665 -317 664 -326 q 665 -299 665 -308 q 663 -283 665 -290 q 656 -272 661 -275 q 634 -274 640 -265 q 628 -294 628 -283 q 627 -305 626 -300 q 628 -315 628 -310 q 627 -329 628 -319 q 626 -349 626 -339 q 628 -368 626 -360 q 636 -378 631 -376 m 660 -224 l 660 -86 l 714 -86 l 714 -100 l 681 -100 l 681 -146 l 707 -146 l 707 -160 l 681 -160 l 681 -224 l 660 -224 m 1219 -224 l 1219 -86 l 1272 -86 l 1272 -100 l 1238 -100 l 1238 -146 l 1264 -146 l 1264 -160 l 1238 -160 l 1238 -224 l 1219 -224 m 1746 -211 q 1766 -209 1757 -211 q 1778 -192 1775 -207 l 1778 -156 l 1778 -121 q 1767 -103 1776 -106 q 1746 -100 1758 -100 l 1746 -211 m 961 -224 l 961 -100 l 936 -100 l 936 -86 l 1006 -86 l 1006 -100 l 981 -100 l 981 -224 l 961 -224 m 1590 356 l 1590 481 l 1565 481 l 1565 494 l 1633 494 l 1633 481 l 1610 481 l 1610 356 l 1590 356 m 1300 -394 l 1300 -257 l 1318 -257 l 1318 -381 l 1354 -381 l 1354 -394 l 1300 -394 m 1379 -224 l 1379 -86 l 1397 -86 l 1397 -211 l 1432 -211 l 1432 -224 l 1379 -224 m 1446 -224 l 1446 -86 l 1465 -86 l 1465 -211 l 1500 -211 l 1500 -224 l 1446 -224 m 915 356 l 915 494 l 933 494 l 933 369 l 968 369 l 968 356 l 915 356 m 1411 356 l 1411 494 l 1431 494 l 1431 356 l 1411 356 m 1629 963 l 1675 963 l 1651 1085 l 1629 963 m 596 -10 l 646 -10 l 646 46 l 596 46 l 596 -10 m 1224 243 q 1240 244 1231 243 q 1253 239 1249 244 q 1260 205 1261 228 q 1251 171 1260 182 q 1238 164 1246 164 q 1224 164 1231 164 l 1224 243 m 2079 243 q 2095 244 2086 243 q 2110 239 2104 244 q 2116 205 2117 228 q 2108 171 2115 182 q 2094 164 2101 164 q 2079 164 2086 164 l 2079 243 m 1174 -394 l 1174 -257 l 1193 -257 l 1193 -394 l 1174 -394 m 1731 -394 l 1731 -257 l 1750 -257 l 1750 -394 l 1731 -394 m 1533 356 l 1533 494 l 1553 494 l 1553 356 l 1533 356 m 1808 560 l 1808 597 l 1844 597 l 1844 560 l 1808 560 m 853 433 q 863 433 857 433 q 874 436 868 433 q 882 447 881 439 q 883 461 883 454 q 874 478 882 476 q 853 481 865 481 l 853 433 m 839 -146 q 860 -142 851 -146 q 869 -122 869 -137 q 861 -103 869 -107 q 839 -100 853 -100 l 839 -146 m 1581 -315 q 1602 -312 1593 -315 q 1611 -293 1611 -308 q 1602 -274 1611 -278 q 1581 -271 1593 -271 l 1581 -315 m 1017 -315 q 1038 -312 1029 -315 q 1046 -293 1046 -308 q 1038 -274 1046 -278 q 1017 -271 1029 -271 l 1017 -315 m 1235 -346 l 1258 -346 l 1247 -283 l 1235 -346 m 1572 -175 l 1596 -175 l 1585 -112 l 1572 -175 m 1071 406 l 1094 406 l 1083 468 l 1071 406 m 1376 104 l 1386 163 l 1394 104 l 1376 104 z "},"8":{"ha":2375,"x_min":218,"x_max":2164,"o":"m 339 288 l 304 101 l 271 288 l 222 288 l 218 -10 l 263 -10 l 264 111 l 288 -10 l 322 -10 l 346 113 l 347 -10 l 392 -10 l 389 288 l 339 288 m 1304 865 q 1256 881 1275 865 q 1233 924 1238 896 q 1231 950 1231 938 q 1231 976 1231 963 q 1229 1035 1231 1004 q 1236 1093 1228 1065 q 1260 1127 1243 1117 q 1300 1139 1276 1138 q 1343 1132 1324 1140 q 1371 1100 1363 1124 q 1381 1042 1382 1074 q 1379 982 1379 1010 q 1378 951 1379 967 q 1375 919 1378 935 q 1304 865 1363 865 m 1235 557 q 1163 615 1174 557 q 1160 642 1160 629 q 1161 669 1161 656 q 1160 728 1161 697 q 1165 785 1158 758 q 1189 819 1172 808 q 1229 831 1206 831 q 1272 824 1253 832 q 1301 792 1292 815 q 1310 734 1313 765 q 1307 675 1307 703 q 1307 643 1307 658 q 1304 613 1307 628 q 1281 571 1299 585 q 1235 557 1263 557 m 2096 288 l 2029 288 l 2029 -10 l 2079 -10 l 2079 121 l 2093 121 l 2113 -10 l 2163 -10 l 2138 133 q 2163 186 2158 151 q 2162 222 2164 204 q 2152 255 2160 240 q 2131 278 2144 269 q 2096 288 2117 288 m 518 144 l 467 288 l 429 288 l 429 -10 l 475 -10 l 475 136 l 526 -10 l 564 -10 l 564 288 l 518 288 l 518 144 m 1665 144 l 1615 288 l 1576 288 l 1576 -10 l 1624 -10 l 1624 136 l 1675 -10 l 1713 -10 l 1713 288 l 1665 288 l 1665 144 m 892 101 l 921 101 q 921 82 921 94 q 919 57 921 69 q 910 37 917 44 q 892 33 904 29 q 881 44 883 36 q 876 61 878 51 q 876 81 875 71 q 876 97 876 90 l 876 168 q 876 200 876 183 q 879 232 875 217 q 901 244 886 247 q 917 226 915 240 q 919 204 919 215 q 918 182 918 193 l 968 182 q 965 236 968 207 q 936 281 961 265 q 903 290 921 289 q 869 286 885 290 q 840 262 849 279 q 826 225 831 244 q 824 183 824 204 q 825 139 825 161 q 824 98 825 118 q 826 57 824 78 q 835 22 829 39 q 857 -4 842 6 q 894 -15 872 -15 q 929 0 915 -14 l 931 -10 l 969 -10 l 969 144 l 892 144 l 892 101 m 1363 288 l 1308 -10 l 1358 -10 l 1369 60 l 1401 60 l 1413 -10 l 1463 -10 l 1410 288 l 1363 288 m 1239 288 l 1174 288 l 1174 -10 l 1224 -10 l 1224 121 q 1249 122 1236 121 q 1274 128 1261 122 q 1296 152 1289 136 q 1306 186 1303 168 q 1306 222 1308 204 q 1297 255 1304 240 q 1274 278 1289 269 q 1239 288 1260 288 m 906 868 l 906 1138 q 959 1138 931 1138 q 1010 1126 988 1139 q 1033 1100 1025 1118 q 1040 1062 1040 1082 q 1032 1025 1040 1042 q 1007 1003 1024 1008 l 1044 868 l 1007 868 l 972 994 l 943 994 l 943 868 l 906 868 m 768 144 l 743 172 q 728 187 736 179 q 717 206 719 194 q 716 231 713 217 q 735 244 719 246 q 747 237 743 243 q 751 222 750 231 q 753 203 753 213 q 754 189 754 194 l 800 192 q 794 245 800 218 q 763 285 788 272 q 730 290 746 292 q 701 281 714 289 q 678 260 688 274 q 668 231 669 247 q 668 195 665 213 q 682 163 671 178 q 693 148 686 154 q 706 135 700 142 q 738 100 721 118 q 754 58 754 82 q 752 43 754 51 q 742 33 750 35 q 722 44 729 29 q 715 69 715 56 q 713 97 714 83 l 667 93 q 669 58 667 75 q 678 22 671 40 q 708 -8 689 1 q 750 -12 728 -17 q 787 9 774 -8 q 803 47 800 26 q 797 100 806 75 q 768 144 788 125 m 610 868 l 610 1138 l 668 1138 q 706 1133 688 1138 q 735 1108 724 1128 q 744 1054 746 1085 q 722 1007 743 1024 q 687 994 707 994 q 647 993 667 993 l 647 868 l 610 868 m 1939 122 l 1986 122 l 1986 164 l 1939 164 l 1939 243 l 1997 243 l 1997 288 l 1889 288 l 1889 -10 l 1997 -10 l 1997 33 l 1939 33 l 1939 122 m 1344 560 l 1344 829 l 1369 829 l 1447 650 l 1447 829 l 1479 829 l 1479 560 l 1454 560 l 1376 743 l 1376 560 l 1344 560 m 1417 868 l 1417 1138 l 1442 1138 l 1518 958 l 1518 1138 l 1549 1138 l 1549 868 l 1525 868 l 1447 1051 l 1447 868 l 1417 868 m 714 561 q 660 560 689 551 q 621 596 632 568 q 613 627 614 611 q 613 661 613 643 l 613 829 l 649 829 l 649 650 q 651 615 649 635 q 672 588 653 594 q 696 586 686 582 q 711 600 706 590 q 719 622 717 610 q 721 644 721 633 q 722 688 722 667 q 721 731 721 708 l 721 829 l 757 829 l 757 706 q 758 667 757 689 q 756 624 760 644 q 744 585 753 603 q 714 561 735 568 m 1576 868 l 1635 1138 l 1669 1138 l 1726 868 l 1692 868 l 1679 935 l 1624 935 l 1611 868 l 1576 868 m 1826 243 l 1868 243 l 1868 288 l 1735 288 l 1735 243 l 1776 243 l 1776 -10 l 1826 -10 l 1826 243 m 860 557 q 808 580 825 557 q 789 636 790 603 l 822 644 q 826 619 824 632 q 838 596 828 606 q 858 587 846 588 q 881 593 871 586 q 890 619 892 603 q 882 646 889 635 q 869 661 876 654 q 853 675 861 668 q 825 700 840 688 q 800 728 810 713 q 791 787 783 754 q 829 829 799 819 q 863 832 844 833 q 894 821 882 831 q 913 794 908 810 q 919 763 918 778 l 889 753 q 883 784 888 768 q 860 803 878 800 q 837 799 847 804 q 824 779 826 793 q 824 759 821 768 q 835 742 828 750 q 851 726 842 733 q 867 714 860 719 q 901 681 885 699 q 922 640 917 664 q 912 583 929 608 q 860 557 894 557 m 1142 865 q 1090 888 1108 865 q 1071 943 1072 911 l 1104 951 q 1108 926 1106 939 q 1119 904 1111 913 q 1140 894 1128 896 q 1163 901 1153 893 q 1172 927 1174 911 q 1164 954 1171 943 q 1151 969 1158 963 q 1135 983 1143 976 q 1107 1007 1122 994 q 1082 1035 1092 1019 q 1072 1065 1074 1049 q 1073 1095 1069 1081 q 1086 1121 1076 1110 q 1111 1136 1096 1132 q 1145 1139 1126 1140 q 1176 1128 1164 1138 q 1195 1101 1190 1118 q 1201 1069 1200 1085 l 1171 1061 q 1165 1092 1169 1076 q 1142 1111 1160 1108 q 1119 1106 1129 1113 q 1106 1088 1108 1100 q 1117 1049 1101 1064 q 1149 1021 1133 1033 q 1183 989 1167 1006 q 1204 949 1199 972 q 1194 891 1211 917 q 1142 865 1176 865 m 992 -47 l 1036 -47 l 1118 325 l 1071 325 l 992 -47 m 771 868 l 771 1138 l 875 1138 l 875 1110 l 808 1110 l 808 1021 l 863 1021 l 863 993 l 808 993 l 808 894 l 876 894 l 876 868 l 771 868 m 1538 288 l 1486 288 l 1486 -10 l 1538 -10 l 1538 288 m 954 560 l 954 829 l 1058 829 l 1058 801 l 992 801 l 992 713 l 1046 713 l 1046 686 l 992 686 l 992 586 l 1058 586 l 1058 560 l 954 560 m 1288 897 q 1324 897 1304 890 q 1336 912 1333 903 q 1340 931 1339 921 l 1340 963 l 1340 1056 q 1340 1079 1340 1067 q 1331 1101 1339 1092 q 1315 1110 1324 1108 q 1297 1110 1306 1113 q 1271 1086 1278 1108 q 1267 1043 1265 1067 q 1269 1000 1269 1019 l 1269 950 q 1271 920 1269 936 q 1288 897 1272 904 m 1215 589 q 1233 586 1222 586 q 1251 589 1244 586 q 1265 604 1261 594 q 1269 624 1268 614 q 1270 639 1271 631 q 1269 654 1269 647 l 1269 749 q 1269 772 1269 760 q 1260 793 1268 785 q 1244 802 1253 800 q 1225 803 1235 804 q 1200 778 1206 799 q 1197 735 1196 758 q 1199 692 1199 713 l 1199 643 q 1200 612 1199 628 q 1215 589 1201 596 m 1693 560 l 1693 617 q 1694 637 1693 626 q 1693 657 1696 647 q 1685 683 1690 671 q 1675 708 1681 696 l 1636 829 l 1671 829 l 1713 700 l 1751 829 l 1788 829 q 1770 774 1779 801 q 1751 718 1761 746 l 1732 661 q 1729 644 1729 653 q 1729 626 1729 635 l 1729 560 l 1693 560 m 1754 868 l 1754 1138 l 1792 1138 l 1792 894 l 1861 894 l 1861 868 l 1754 868 m 1521 560 l 1521 829 l 1558 829 l 1558 586 l 1626 586 l 1626 560 l 1521 560 m 763 -225 q 739 -217 747 -225 q 727 -199 731 -210 q 724 -174 724 -187 q 724 -150 724 -161 q 724 -126 724 -139 q 729 -105 725 -114 q 742 -90 733 -96 q 767 -85 750 -83 q 788 -93 781 -86 q 798 -110 794 -100 q 801 -133 801 -121 q 801 -156 801 -146 q 801 -178 801 -167 q 797 -201 800 -190 q 785 -218 793 -211 q 763 -225 778 -225 m 1726 -224 l 1726 -86 q 1758 -85 1740 -86 q 1786 -94 1775 -85 q 1797 -123 1797 -106 q 1797 -156 1797 -140 q 1797 -188 1797 -169 q 1783 -217 1797 -207 q 1756 -224 1772 -225 q 1726 -224 1739 -224 m 1807 -396 q 1783 -388 1792 -396 q 1772 -369 1775 -381 q 1769 -345 1769 -358 q 1769 -321 1769 -332 q 1770 -297 1769 -308 q 1775 -275 1771 -285 q 1788 -260 1779 -265 q 1813 -256 1796 -254 q 1833 -264 1826 -257 q 1842 -281 1840 -271 q 1844 -304 1844 -292 q 1844 -326 1844 -317 q 1844 -349 1844 -337 q 1841 -372 1844 -361 q 1830 -389 1838 -382 q 1807 -396 1822 -396 m 646 -396 q 622 -388 629 -396 q 611 -369 614 -381 q 608 -345 608 -358 q 608 -321 608 -332 q 609 -297 608 -308 q 614 -275 610 -285 q 626 -260 618 -265 q 650 -256 635 -254 q 671 -264 664 -257 q 681 -281 678 -271 q 683 -304 683 -292 q 683 -326 683 -317 q 683 -349 683 -337 q 680 -372 683 -361 q 669 -389 676 -382 q 646 -396 661 -396 m 996 -394 l 996 -257 q 1023 -256 1008 -257 q 1049 -261 1038 -254 q 1061 -274 1057 -265 q 1065 -294 1065 -283 q 1061 -313 1065 -304 q 1047 -325 1057 -322 l 1068 -394 l 1049 -394 l 1032 -329 l 1017 -329 l 1017 -394 l 996 -394 m 701 -394 l 704 -257 l 724 -257 l 749 -368 l 772 -257 l 790 -257 l 793 -394 l 778 -394 l 776 -294 l 753 -394 l 742 -394 l 719 -294 l 718 -394 l 701 -394 m 814 -394 l 817 -257 l 836 -257 l 860 -368 l 885 -257 l 904 -257 l 906 -394 l 892 -394 l 889 -294 l 865 -394 l 854 -394 l 832 -294 l 829 -394 l 814 -394 m 1561 -394 l 1561 -257 q 1588 -256 1574 -257 q 1613 -261 1601 -254 q 1625 -274 1621 -265 q 1629 -294 1629 -283 q 1625 -313 1629 -304 q 1613 -325 1621 -322 l 1632 -394 l 1613 -394 l 1596 -329 l 1581 -329 l 1581 -394 l 1561 -394 m 819 -224 l 819 -86 q 846 -85 832 -86 q 871 -90 860 -83 q 883 -104 879 -94 q 888 -124 888 -114 q 885 -144 889 -135 q 871 -156 881 -153 l 890 -224 l 872 -224 l 853 -160 l 839 -160 l 839 -224 l 819 -224 m 833 356 l 833 494 q 869 494 849 494 q 897 479 889 494 q 902 452 903 468 q 890 428 901 436 q 872 420 882 421 q 853 419 863 419 l 853 356 l 833 356 m 1636 -224 l 1636 -86 l 1649 -86 l 1688 -178 l 1688 -86 l 1704 -86 l 1704 -224 l 1692 -224 l 1653 -131 l 1653 -224 l 1636 -224 m 1015 -224 l 1015 -86 l 1033 -86 l 1033 -146 l 1071 -146 l 1071 -86 l 1089 -86 l 1089 -224 l 1071 -224 l 1071 -160 l 1033 -160 l 1033 -224 l 1015 -224 m 1865 -394 l 1865 -257 l 1878 -257 l 1917 -349 l 1917 -257 l 1932 -257 l 1932 -394 l 1919 -394 l 1881 -301 l 1881 -394 l 1865 -394 m 1044 356 l 1074 494 l 1093 494 l 1122 356 l 1103 356 l 1097 392 l 1069 392 l 1063 356 l 1044 356 m 1207 -394 l 1238 -257 l 1256 -257 l 1285 -394 l 1267 -394 l 1261 -360 l 1232 -360 l 1225 -394 l 1207 -394 m 1546 -224 l 1574 -86 l 1593 -86 l 1622 -224 l 1604 -224 l 1597 -189 l 1569 -189 l 1563 -224 l 1546 -224 m 1819 618 l 1808 829 l 1844 829 l 1832 618 l 1819 618 m 1336 -224 q 1302 -221 1317 -231 q 1285 -192 1288 -211 q 1284 -175 1283 -183 q 1285 -160 1285 -167 l 1285 -86 l 1303 -86 l 1303 -147 q 1302 -165 1303 -154 q 1302 -185 1301 -175 q 1307 -203 1303 -196 q 1321 -211 1311 -211 q 1335 -203 1331 -211 q 1340 -185 1339 -196 q 1341 -165 1342 -175 q 1340 -147 1340 -154 l 1340 -86 l 1357 -86 l 1357 -149 q 1358 -169 1357 -157 q 1357 -191 1358 -181 q 1351 -210 1356 -201 q 1336 -224 1346 -219 m 647 1021 q 667 1020 657 1021 q 686 1022 676 1019 q 705 1038 701 1026 q 708 1061 708 1049 q 706 1090 710 1076 q 686 1108 703 1104 q 667 1110 676 1111 q 647 1110 657 1110 l 647 1021 m 943 1021 q 963 1021 953 1021 q 982 1024 972 1021 q 1000 1042 996 1031 q 1003 1068 1004 1054 q 999 1091 1003 1081 q 982 1107 996 1101 q 963 1110 972 1110 q 943 1110 953 1110 l 943 1021 m 557 -396 q 531 -386 539 -396 q 521 -362 524 -376 q 519 -331 518 -347 q 519 -301 519 -314 q 529 -267 519 -282 q 561 -256 539 -253 q 588 -274 583 -258 q 592 -306 592 -289 l 574 -306 q 574 -292 574 -299 q 572 -279 575 -286 q 559 -270 569 -271 q 543 -276 549 -269 q 539 -301 538 -285 q 540 -326 540 -317 q 539 -351 540 -336 q 544 -375 538 -367 q 559 -381 549 -382 q 572 -371 569 -379 q 574 -357 575 -364 q 574 -343 574 -350 l 592 -343 q 586 -379 592 -362 q 557 -396 581 -396 m 1119 -396 q 1094 -386 1101 -396 q 1084 -362 1086 -376 q 1083 -331 1082 -347 q 1083 -301 1083 -314 q 1092 -267 1083 -282 q 1124 -256 1101 -253 q 1150 -274 1146 -258 q 1154 -306 1154 -289 l 1136 -306 q 1137 -292 1136 -299 q 1135 -279 1138 -286 q 1122 -270 1132 -271 q 1106 -276 1111 -269 q 1100 -301 1099 -285 q 1101 -326 1101 -317 q 1101 -351 1101 -336 q 1107 -375 1100 -367 q 1122 -381 1111 -382 q 1135 -371 1132 -379 q 1137 -357 1138 -364 q 1136 -343 1136 -350 l 1154 -343 q 1149 -379 1154 -362 q 1119 -396 1143 -396 m 1485 354 q 1458 366 1467 354 q 1449 394 1450 378 l 1467 400 q 1469 383 1467 393 q 1479 371 1472 374 q 1494 373 1489 368 q 1500 386 1500 378 q 1489 411 1501 401 q 1467 431 1476 421 q 1449 459 1454 442 q 1460 489 1444 476 q 1478 495 1467 494 q 1497 493 1489 496 q 1511 479 1507 489 q 1517 460 1515 469 l 1500 456 q 1497 469 1499 463 q 1489 481 1496 476 q 1476 481 1483 483 q 1468 471 1469 478 q 1472 451 1463 460 q 1488 436 1481 443 q 1505 420 1496 429 q 1517 399 1514 411 q 1513 368 1521 382 q 1485 354 1504 354 m 1168 354 q 1142 366 1150 354 q 1132 394 1133 378 l 1149 400 q 1151 383 1149 393 q 1161 371 1154 374 q 1177 373 1171 368 q 1183 386 1183 378 q 1171 411 1183 401 q 1149 431 1158 421 q 1133 459 1138 442 q 1143 489 1128 476 q 1161 495 1150 494 q 1181 493 1172 496 q 1194 479 1190 489 q 1200 460 1199 469 l 1183 456 q 1181 469 1182 463 q 1172 481 1179 476 q 1159 481 1165 483 q 1150 471 1153 478 q 1154 451 1146 460 q 1169 436 1163 443 q 1188 420 1179 429 q 1200 399 1197 411 q 1195 368 1204 382 q 1168 354 1186 354 m 1682 -396 q 1656 -384 1664 -396 q 1646 -356 1647 -372 l 1663 -351 q 1665 -367 1663 -358 q 1675 -379 1668 -376 q 1691 -378 1685 -383 q 1697 -365 1697 -374 q 1685 -340 1697 -350 q 1663 -321 1672 -329 q 1647 -292 1651 -310 q 1657 -262 1642 -274 q 1675 -255 1664 -256 q 1694 -258 1686 -254 q 1708 -271 1704 -261 q 1714 -290 1713 -281 l 1697 -296 q 1694 -281 1696 -289 q 1686 -271 1693 -274 q 1673 -270 1679 -268 q 1664 -279 1667 -272 q 1668 -299 1660 -290 q 1683 -314 1676 -307 q 1702 -331 1693 -322 q 1714 -353 1711 -340 q 1709 -383 1718 -369 q 1682 -396 1700 -396 m 1349 356 l 1318 494 l 1336 494 l 1357 393 l 1379 494 l 1396 494 l 1365 356 l 1349 356 m 1431 -394 l 1399 -257 l 1417 -257 l 1439 -358 l 1458 -257 l 1476 -257 l 1446 -394 l 1431 -394 m 1215 356 l 1215 494 l 1269 494 l 1269 481 l 1236 481 l 1236 435 l 1264 435 l 1264 421 l 1236 421 l 1236 369 l 1271 369 l 1271 356 l 1215 356 m 1110 -224 l 1110 -86 l 1164 -86 l 1164 -100 l 1131 -100 l 1131 -146 l 1158 -146 l 1158 -160 l 1131 -160 l 1131 -211 l 1164 -211 l 1164 -224 l 1110 -224 m 1492 -394 l 1492 -257 l 1546 -257 l 1546 -271 l 1511 -271 l 1511 -315 l 1539 -315 l 1539 -329 l 1511 -329 l 1511 -381 l 1546 -381 l 1546 -394 l 1492 -394 m 928 -394 l 928 -257 l 981 -257 l 981 -271 l 946 -271 l 946 -315 l 975 -315 l 975 -329 l 946 -329 l 946 -381 l 981 -381 l 981 -394 l 928 -394 m 982 356 l 982 494 l 1036 494 l 1036 481 l 1001 481 l 1001 435 l 1029 435 l 1029 421 l 1001 421 l 1001 369 l 1036 369 l 1036 356 l 982 356 m 753 -208 q 771 -210 765 -214 q 778 -197 776 -206 q 781 -178 781 -189 q 781 -161 781 -168 q 782 -128 781 -150 q 772 -101 783 -107 q 751 -103 758 -94 q 744 -124 744 -112 l 744 -146 q 744 -160 744 -150 q 743 -179 743 -169 q 745 -197 743 -189 q 753 -208 747 -206 m 1799 -378 q 1816 -380 1810 -383 q 1824 -368 1822 -376 q 1826 -349 1826 -360 q 1826 -332 1826 -339 q 1827 -317 1826 -326 q 1827 -299 1828 -308 q 1824 -283 1826 -290 q 1817 -272 1822 -275 q 1797 -274 1803 -265 q 1790 -294 1790 -283 l 1790 -315 q 1790 -329 1790 -319 q 1789 -349 1789 -339 q 1791 -368 1789 -360 q 1799 -378 1793 -376 m 636 -378 q 653 -380 647 -383 q 662 -368 660 -376 q 664 -349 664 -360 q 664 -332 664 -339 q 665 -317 664 -326 q 665 -299 665 -308 q 663 -283 665 -290 q 656 -272 661 -275 q 634 -274 640 -265 q 628 -294 628 -283 q 627 -305 626 -300 q 628 -315 628 -310 q 627 -329 628 -319 q 626 -349 626 -339 q 628 -368 626 -360 q 636 -378 631 -376 m 660 -224 l 660 -86 l 714 -86 l 714 -100 l 681 -100 l 681 -146 l 707 -146 l 707 -160 l 681 -160 l 681 -224 l 660 -224 m 1219 -224 l 1219 -86 l 1272 -86 l 1272 -100 l 1238 -100 l 1238 -146 l 1264 -146 l 1264 -160 l 1238 -160 l 1238 -224 l 1219 -224 m 1746 -211 q 1766 -209 1757 -211 q 1778 -192 1775 -207 l 1778 -156 l 1778 -121 q 1767 -103 1776 -106 q 1746 -100 1758 -100 l 1746 -211 m 961 -224 l 961 -100 l 936 -100 l 936 -86 l 1006 -86 l 1006 -100 l 981 -100 l 981 -224 l 961 -224 m 1590 356 l 1590 481 l 1565 481 l 1565 494 l 1633 494 l 1633 481 l 1610 481 l 1610 356 l 1590 356 m 1300 -394 l 1300 -257 l 1318 -257 l 1318 -381 l 1354 -381 l 1354 -394 l 1300 -394 m 1379 -224 l 1379 -86 l 1397 -86 l 1397 -211 l 1432 -211 l 1432 -224 l 1379 -224 m 1446 -224 l 1446 -86 l 1465 -86 l 1465 -211 l 1500 -211 l 1500 -224 l 1446 -224 m 915 356 l 915 494 l 933 494 l 933 369 l 968 369 l 968 356 l 915 356 m 1411 356 l 1411 494 l 1431 494 l 1431 356 l 1411 356 m 1629 963 l 1675 963 l 1651 1085 l 1629 963 m 596 -10 l 646 -10 l 646 46 l 596 46 l 596 -10 m 1224 243 q 1240 244 1231 243 q 1253 239 1249 244 q 1260 205 1261 228 q 1251 171 1260 182 q 1238 164 1246 164 q 1224 164 1231 164 l 1224 243 m 2079 243 q 2095 244 2086 243 q 2110 239 2104 244 q 2116 205 2117 228 q 2108 171 2115 182 q 2094 164 2101 164 q 2079 164 2086 164 l 2079 243 m 1174 -394 l 1174 -257 l 1193 -257 l 1193 -394 l 1174 -394 m 1731 -394 l 1731 -257 l 1750 -257 l 1750 -394 l 1731 -394 m 1533 356 l 1533 494 l 1553 494 l 1553 356 l 1533 356 m 1808 560 l 1808 597 l 1844 597 l 1844 560 l 1808 560 m 853 433 q 863 433 857 433 q 874 436 868 433 q 882 447 881 439 q 883 461 883 454 q 874 478 882 476 q 853 481 865 481 l 853 433 m 839 -146 q 860 -142 851 -146 q 869 -122 869 -137 q 861 -103 869 -107 q 839 -100 853 -100 l 839 -146 m 1581 -315 q 1602 -312 1593 -315 q 1611 -293 1611 -308 q 1602 -274 1611 -278 q 1581 -271 1593 -271 l 1581 -315 m 1017 -315 q 1038 -312 1029 -315 q 1046 -293 1046 -308 q 1038 -274 1046 -278 q 1017 -271 1029 -271 l 1017 -315 m 1235 -346 l 1258 -346 l 1247 -283 l 1235 -346 m 1572 -175 l 1596 -175 l 1585 -112 l 1572 -175 m 1071 406 l 1094 406 l 1083 468 l 1071 406 m 1376 104 l 1386 163 l 1394 104 l 1376 104 z "},"9":{"ha":2375,"x_min":218,"x_max":2164,"o":"m 339 288 l 304 101 l 271 288 l 222 288 l 218 -10 l 263 -10 l 264 111 l 288 -10 l 322 -10 l 346 113 l 347 -10 l 392 -10 l 389 288 l 339 288 m 1304 865 q 1256 881 1275 865 q 1233 924 1238 896 q 1231 950 1231 938 q 1231 976 1231 963 q 1229 1035 1231 1004 q 1236 1093 1228 1065 q 1260 1127 1243 1117 q 1300 1139 1276 1138 q 1343 1132 1324 1140 q 1371 1100 1363 1124 q 1381 1042 1382 1074 q 1379 982 1379 1010 q 1378 951 1379 967 q 1375 919 1378 935 q 1304 865 1363 865 m 1235 557 q 1163 615 1174 557 q 1160 642 1160 629 q 1161 669 1161 656 q 1160 728 1161 697 q 1165 785 1158 758 q 1189 819 1172 808 q 1229 831 1206 831 q 1272 824 1253 832 q 1301 792 1292 815 q 1310 734 1313 765 q 1307 675 1307 703 q 1307 643 1307 658 q 1304 613 1307 628 q 1281 571 1299 585 q 1235 557 1263 557 m 2096 288 l 2029 288 l 2029 -10 l 2079 -10 l 2079 121 l 2093 121 l 2113 -10 l 2163 -10 l 2138 133 q 2163 186 2158 151 q 2162 222 2164 204 q 2152 255 2160 240 q 2131 278 2144 269 q 2096 288 2117 288 m 518 144 l 467 288 l 429 288 l 429 -10 l 475 -10 l 475 136 l 526 -10 l 564 -10 l 564 288 l 518 288 l 518 144 m 1665 144 l 1615 288 l 1576 288 l 1576 -10 l 1624 -10 l 1624 136 l 1675 -10 l 1713 -10 l 1713 288 l 1665 288 l 1665 144 m 892 101 l 921 101 q 921 82 921 94 q 919 57 921 69 q 910 37 917 44 q 892 33 904 29 q 881 44 883 36 q 876 61 878 51 q 876 81 875 71 q 876 97 876 90 l 876 168 q 876 200 876 183 q 879 232 875 217 q 901 244 886 247 q 917 226 915 240 q 919 204 919 215 q 918 182 918 193 l 968 182 q 965 236 968 207 q 936 281 961 265 q 903 290 921 289 q 869 286 885 290 q 840 262 849 279 q 826 225 831 244 q 824 183 824 204 q 825 139 825 161 q 824 98 825 118 q 826 57 824 78 q 835 22 829 39 q 857 -4 842 6 q 894 -15 872 -15 q 929 0 915 -14 l 931 -10 l 969 -10 l 969 144 l 892 144 l 892 101 m 1363 288 l 1308 -10 l 1358 -10 l 1369 60 l 1401 60 l 1413 -10 l 1463 -10 l 1410 288 l 1363 288 m 1239 288 l 1174 288 l 1174 -10 l 1224 -10 l 1224 121 q 1249 122 1236 121 q 1274 128 1261 122 q 1296 152 1289 136 q 1306 186 1303 168 q 1306 222 1308 204 q 1297 255 1304 240 q 1274 278 1289 269 q 1239 288 1260 288 m 906 868 l 906 1138 q 959 1138 931 1138 q 1010 1126 988 1139 q 1033 1100 1025 1118 q 1040 1062 1040 1082 q 1032 1025 1040 1042 q 1007 1003 1024 1008 l 1044 868 l 1007 868 l 972 994 l 943 994 l 943 868 l 906 868 m 768 144 l 743 172 q 728 187 736 179 q 717 206 719 194 q 716 231 713 217 q 735 244 719 246 q 747 237 743 243 q 751 222 750 231 q 753 203 753 213 q 754 189 754 194 l 800 192 q 794 245 800 218 q 763 285 788 272 q 730 290 746 292 q 701 281 714 289 q 678 260 688 274 q 668 231 669 247 q 668 195 665 213 q 682 163 671 178 q 693 148 686 154 q 706 135 700 142 q 738 100 721 118 q 754 58 754 82 q 752 43 754 51 q 742 33 750 35 q 722 44 729 29 q 715 69 715 56 q 713 97 714 83 l 667 93 q 669 58 667 75 q 678 22 671 40 q 708 -8 689 1 q 750 -12 728 -17 q 787 9 774 -8 q 803 47 800 26 q 797 100 806 75 q 768 144 788 125 m 610 868 l 610 1138 l 668 1138 q 706 1133 688 1138 q 735 1108 724 1128 q 744 1054 746 1085 q 722 1007 743 1024 q 687 994 707 994 q 647 993 667 993 l 647 868 l 610 868 m 1939 122 l 1986 122 l 1986 164 l 1939 164 l 1939 243 l 1997 243 l 1997 288 l 1889 288 l 1889 -10 l 1997 -10 l 1997 33 l 1939 33 l 1939 122 m 1344 560 l 1344 829 l 1369 829 l 1447 650 l 1447 829 l 1479 829 l 1479 560 l 1454 560 l 1376 743 l 1376 560 l 1344 560 m 1417 868 l 1417 1138 l 1442 1138 l 1518 958 l 1518 1138 l 1549 1138 l 1549 868 l 1525 868 l 1447 1051 l 1447 868 l 1417 868 m 714 561 q 660 560 689 551 q 621 596 632 568 q 613 627 614 611 q 613 661 613 643 l 613 829 l 649 829 l 649 650 q 651 615 649 635 q 672 588 653 594 q 696 586 686 582 q 711 600 706 590 q 719 622 717 610 q 721 644 721 633 q 722 688 722 667 q 721 731 721 708 l 721 829 l 757 829 l 757 706 q 758 667 757 689 q 756 624 760 644 q 744 585 753 603 q 714 561 735 568 m 1576 868 l 1635 1138 l 1669 1138 l 1726 868 l 1692 868 l 1679 935 l 1624 935 l 1611 868 l 1576 868 m 1826 243 l 1868 243 l 1868 288 l 1735 288 l 1735 243 l 1776 243 l 1776 -10 l 1826 -10 l 1826 243 m 860 557 q 808 580 825 557 q 789 636 790 603 l 822 644 q 826 619 824 632 q 838 596 828 606 q 858 587 846 588 q 881 593 871 586 q 890 619 892 603 q 882 646 889 635 q 869 661 876 654 q 853 675 861 668 q 825 700 840 688 q 800 728 810 713 q 791 787 783 754 q 829 829 799 819 q 863 832 844 833 q 894 821 882 831 q 913 794 908 810 q 919 763 918 778 l 889 753 q 883 784 888 768 q 860 803 878 800 q 837 799 847 804 q 824 779 826 793 q 824 759 821 768 q 835 742 828 750 q 851 726 842 733 q 867 714 860 719 q 901 681 885 699 q 922 640 917 664 q 912 583 929 608 q 860 557 894 557 m 1142 865 q 1090 888 1108 865 q 1071 943 1072 911 l 1104 951 q 1108 926 1106 939 q 1119 904 1111 913 q 1140 894 1128 896 q 1163 901 1153 893 q 1172 927 1174 911 q 1164 954 1171 943 q 1151 969 1158 963 q 1135 983 1143 976 q 1107 1007 1122 994 q 1082 1035 1092 1019 q 1072 1065 1074 1049 q 1073 1095 1069 1081 q 1086 1121 1076 1110 q 1111 1136 1096 1132 q 1145 1139 1126 1140 q 1176 1128 1164 1138 q 1195 1101 1190 1118 q 1201 1069 1200 1085 l 1171 1061 q 1165 1092 1169 1076 q 1142 1111 1160 1108 q 1119 1106 1129 1113 q 1106 1088 1108 1100 q 1117 1049 1101 1064 q 1149 1021 1133 1033 q 1183 989 1167 1006 q 1204 949 1199 972 q 1194 891 1211 917 q 1142 865 1176 865 m 992 -47 l 1036 -47 l 1118 325 l 1071 325 l 992 -47 m 771 868 l 771 1138 l 875 1138 l 875 1110 l 808 1110 l 808 1021 l 863 1021 l 863 993 l 808 993 l 808 894 l 876 894 l 876 868 l 771 868 m 1538 288 l 1486 288 l 1486 -10 l 1538 -10 l 1538 288 m 954 560 l 954 829 l 1058 829 l 1058 801 l 992 801 l 992 713 l 1046 713 l 1046 686 l 992 686 l 992 586 l 1058 586 l 1058 560 l 954 560 m 1288 897 q 1324 897 1304 890 q 1336 912 1333 903 q 1340 931 1339 921 l 1340 963 l 1340 1056 q 1340 1079 1340 1067 q 1331 1101 1339 1092 q 1315 1110 1324 1108 q 1297 1110 1306 1113 q 1271 1086 1278 1108 q 1267 1043 1265 1067 q 1269 1000 1269 1019 l 1269 950 q 1271 920 1269 936 q 1288 897 1272 904 m 1215 589 q 1233 586 1222 586 q 1251 589 1244 586 q 1265 604 1261 594 q 1269 624 1268 614 q 1270 639 1271 631 q 1269 654 1269 647 l 1269 749 q 1269 772 1269 760 q 1260 793 1268 785 q 1244 802 1253 800 q 1225 803 1235 804 q 1200 778 1206 799 q 1197 735 1196 758 q 1199 692 1199 713 l 1199 643 q 1200 612 1199 628 q 1215 589 1201 596 m 1693 560 l 1693 617 q 1694 637 1693 626 q 1693 657 1696 647 q 1685 683 1690 671 q 1675 708 1681 696 l 1636 829 l 1671 829 l 1713 700 l 1751 829 l 1788 829 q 1770 774 1779 801 q 1751 718 1761 746 l 1732 661 q 1729 644 1729 653 q 1729 626 1729 635 l 1729 560 l 1693 560 m 1754 868 l 1754 1138 l 1792 1138 l 1792 894 l 1861 894 l 1861 868 l 1754 868 m 1521 560 l 1521 829 l 1558 829 l 1558 586 l 1626 586 l 1626 560 l 1521 560 m 763 -225 q 739 -217 747 -225 q 727 -199 731 -210 q 724 -174 724 -187 q 724 -150 724 -161 q 724 -126 724 -139 q 729 -105 725 -114 q 742 -90 733 -96 q 767 -85 750 -83 q 788 -93 781 -86 q 798 -110 794 -100 q 801 -133 801 -121 q 801 -156 801 -146 q 801 -178 801 -167 q 797 -201 800 -190 q 785 -218 793 -211 q 763 -225 778 -225 m 1726 -224 l 1726 -86 q 1758 -85 1740 -86 q 1786 -94 1775 -85 q 1797 -123 1797 -106 q 1797 -156 1797 -140 q 1797 -188 1797 -169 q 1783 -217 1797 -207 q 1756 -224 1772 -225 q 1726 -224 1739 -224 m 1807 -396 q 1783 -388 1792 -396 q 1772 -369 1775 -381 q 1769 -345 1769 -358 q 1769 -321 1769 -332 q 1770 -297 1769 -308 q 1775 -275 1771 -285 q 1788 -260 1779 -265 q 1813 -256 1796 -254 q 1833 -264 1826 -257 q 1842 -281 1840 -271 q 1844 -304 1844 -292 q 1844 -326 1844 -317 q 1844 -349 1844 -337 q 1841 -372 1844 -361 q 1830 -389 1838 -382 q 1807 -396 1822 -396 m 646 -396 q 622 -388 629 -396 q 611 -369 614 -381 q 608 -345 608 -358 q 608 -321 608 -332 q 609 -297 608 -308 q 614 -275 610 -285 q 626 -260 618 -265 q 650 -256 635 -254 q 671 -264 664 -257 q 681 -281 678 -271 q 683 -304 683 -292 q 683 -326 683 -317 q 683 -349 683 -337 q 680 -372 683 -361 q 669 -389 676 -382 q 646 -396 661 -396 m 996 -394 l 996 -257 q 1023 -256 1008 -257 q 1049 -261 1038 -254 q 1061 -274 1057 -265 q 1065 -294 1065 -283 q 1061 -313 1065 -304 q 1047 -325 1057 -322 l 1068 -394 l 1049 -394 l 1032 -329 l 1017 -329 l 1017 -394 l 996 -394 m 701 -394 l 704 -257 l 724 -257 l 749 -368 l 772 -257 l 790 -257 l 793 -394 l 778 -394 l 776 -294 l 753 -394 l 742 -394 l 719 -294 l 718 -394 l 701 -394 m 814 -394 l 817 -257 l 836 -257 l 860 -368 l 885 -257 l 904 -257 l 906 -394 l 892 -394 l 889 -294 l 865 -394 l 854 -394 l 832 -294 l 829 -394 l 814 -394 m 1561 -394 l 1561 -257 q 1588 -256 1574 -257 q 1613 -261 1601 -254 q 1625 -274 1621 -265 q 1629 -294 1629 -283 q 1625 -313 1629 -304 q 1613 -325 1621 -322 l 1632 -394 l 1613 -394 l 1596 -329 l 1581 -329 l 1581 -394 l 1561 -394 m 819 -224 l 819 -86 q 846 -85 832 -86 q 871 -90 860 -83 q 883 -104 879 -94 q 888 -124 888 -114 q 885 -144 889 -135 q 871 -156 881 -153 l 890 -224 l 872 -224 l 853 -160 l 839 -160 l 839 -224 l 819 -224 m 833 356 l 833 494 q 869 494 849 494 q 897 479 889 494 q 902 452 903 468 q 890 428 901 436 q 872 420 882 421 q 853 419 863 419 l 853 356 l 833 356 m 1636 -224 l 1636 -86 l 1649 -86 l 1688 -178 l 1688 -86 l 1704 -86 l 1704 -224 l 1692 -224 l 1653 -131 l 1653 -224 l 1636 -224 m 1015 -224 l 1015 -86 l 1033 -86 l 1033 -146 l 1071 -146 l 1071 -86 l 1089 -86 l 1089 -224 l 1071 -224 l 1071 -160 l 1033 -160 l 1033 -224 l 1015 -224 m 1865 -394 l 1865 -257 l 1878 -257 l 1917 -349 l 1917 -257 l 1932 -257 l 1932 -394 l 1919 -394 l 1881 -301 l 1881 -394 l 1865 -394 m 1044 356 l 1074 494 l 1093 494 l 1122 356 l 1103 356 l 1097 392 l 1069 392 l 1063 356 l 1044 356 m 1207 -394 l 1238 -257 l 1256 -257 l 1285 -394 l 1267 -394 l 1261 -360 l 1232 -360 l 1225 -394 l 1207 -394 m 1546 -224 l 1574 -86 l 1593 -86 l 1622 -224 l 1604 -224 l 1597 -189 l 1569 -189 l 1563 -224 l 1546 -224 m 1819 618 l 1808 829 l 1844 829 l 1832 618 l 1819 618 m 1336 -224 q 1302 -221 1317 -231 q 1285 -192 1288 -211 q 1284 -175 1283 -183 q 1285 -160 1285 -167 l 1285 -86 l 1303 -86 l 1303 -147 q 1302 -165 1303 -154 q 1302 -185 1301 -175 q 1307 -203 1303 -196 q 1321 -211 1311 -211 q 1335 -203 1331 -211 q 1340 -185 1339 -196 q 1341 -165 1342 -175 q 1340 -147 1340 -154 l 1340 -86 l 1357 -86 l 1357 -149 q 1358 -169 1357 -157 q 1357 -191 1358 -181 q 1351 -210 1356 -201 q 1336 -224 1346 -219 m 647 1021 q 667 1020 657 1021 q 686 1022 676 1019 q 705 1038 701 1026 q 708 1061 708 1049 q 706 1090 710 1076 q 686 1108 703 1104 q 667 1110 676 1111 q 647 1110 657 1110 l 647 1021 m 943 1021 q 963 1021 953 1021 q 982 1024 972 1021 q 1000 1042 996 1031 q 1003 1068 1004 1054 q 999 1091 1003 1081 q 982 1107 996 1101 q 963 1110 972 1110 q 943 1110 953 1110 l 943 1021 m 557 -396 q 531 -386 539 -396 q 521 -362 524 -376 q 519 -331 518 -347 q 519 -301 519 -314 q 529 -267 519 -282 q 561 -256 539 -253 q 588 -274 583 -258 q 592 -306 592 -289 l 574 -306 q 574 -292 574 -299 q 572 -279 575 -286 q 559 -270 569 -271 q 543 -276 549 -269 q 539 -301 538 -285 q 540 -326 540 -317 q 539 -351 540 -336 q 544 -375 538 -367 q 559 -381 549 -382 q 572 -371 569 -379 q 574 -357 575 -364 q 574 -343 574 -350 l 592 -343 q 586 -379 592 -362 q 557 -396 581 -396 m 1119 -396 q 1094 -386 1101 -396 q 1084 -362 1086 -376 q 1083 -331 1082 -347 q 1083 -301 1083 -314 q 1092 -267 1083 -282 q 1124 -256 1101 -253 q 1150 -274 1146 -258 q 1154 -306 1154 -289 l 1136 -306 q 1137 -292 1136 -299 q 1135 -279 1138 -286 q 1122 -270 1132 -271 q 1106 -276 1111 -269 q 1100 -301 1099 -285 q 1101 -326 1101 -317 q 1101 -351 1101 -336 q 1107 -375 1100 -367 q 1122 -381 1111 -382 q 1135 -371 1132 -379 q 1137 -357 1138 -364 q 1136 -343 1136 -350 l 1154 -343 q 1149 -379 1154 -362 q 1119 -396 1143 -396 m 1485 354 q 1458 366 1467 354 q 1449 394 1450 378 l 1467 400 q 1469 383 1467 393 q 1479 371 1472 374 q 1494 373 1489 368 q 1500 386 1500 378 q 1489 411 1501 401 q 1467 431 1476 421 q 1449 459 1454 442 q 1460 489 1444 476 q 1478 495 1467 494 q 1497 493 1489 496 q 1511 479 1507 489 q 1517 460 1515 469 l 1500 456 q 1497 469 1499 463 q 1489 481 1496 476 q 1476 481 1483 483 q 1468 471 1469 478 q 1472 451 1463 460 q 1488 436 1481 443 q 1505 420 1496 429 q 1517 399 1514 411 q 1513 368 1521 382 q 1485 354 1504 354 m 1168 354 q 1142 366 1150 354 q 1132 394 1133 378 l 1149 400 q 1151 383 1149 393 q 1161 371 1154 374 q 1177 373 1171 368 q 1183 386 1183 378 q 1171 411 1183 401 q 1149 431 1158 421 q 1133 459 1138 442 q 1143 489 1128 476 q 1161 495 1150 494 q 1181 493 1172 496 q 1194 479 1190 489 q 1200 460 1199 469 l 1183 456 q 1181 469 1182 463 q 1172 481 1179 476 q 1159 481 1165 483 q 1150 471 1153 478 q 1154 451 1146 460 q 1169 436 1163 443 q 1188 420 1179 429 q 1200 399 1197 411 q 1195 368 1204 382 q 1168 354 1186 354 m 1682 -396 q 1656 -384 1664 -396 q 1646 -356 1647 -372 l 1663 -351 q 1665 -367 1663 -358 q 1675 -379 1668 -376 q 1691 -378 1685 -383 q 1697 -365 1697 -374 q 1685 -340 1697 -350 q 1663 -321 1672 -329 q 1647 -292 1651 -310 q 1657 -262 1642 -274 q 1675 -255 1664 -256 q 1694 -258 1686 -254 q 1708 -271 1704 -261 q 1714 -290 1713 -281 l 1697 -296 q 1694 -281 1696 -289 q 1686 -271 1693 -274 q 1673 -270 1679 -268 q 1664 -279 1667 -272 q 1668 -299 1660 -290 q 1683 -314 1676 -307 q 1702 -331 1693 -322 q 1714 -353 1711 -340 q 1709 -383 1718 -369 q 1682 -396 1700 -396 m 1349 356 l 1318 494 l 1336 494 l 1357 393 l 1379 494 l 1396 494 l 1365 356 l 1349 356 m 1431 -394 l 1399 -257 l 1417 -257 l 1439 -358 l 1458 -257 l 1476 -257 l 1446 -394 l 1431 -394 m 1215 356 l 1215 494 l 1269 494 l 1269 481 l 1236 481 l 1236 435 l 1264 435 l 1264 421 l 1236 421 l 1236 369 l 1271 369 l 1271 356 l 1215 356 m 1110 -224 l 1110 -86 l 1164 -86 l 1164 -100 l 1131 -100 l 1131 -146 l 1158 -146 l 1158 -160 l 1131 -160 l 1131 -211 l 1164 -211 l 1164 -224 l 1110 -224 m 1492 -394 l 1492 -257 l 1546 -257 l 1546 -271 l 1511 -271 l 1511 -315 l 1539 -315 l 1539 -329 l 1511 -329 l 1511 -381 l 1546 -381 l 1546 -394 l 1492 -394 m 928 -394 l 928 -257 l 981 -257 l 981 -271 l 946 -271 l 946 -315 l 975 -315 l 975 -329 l 946 -329 l 946 -381 l 981 -381 l 981 -394 l 928 -394 m 982 356 l 982 494 l 1036 494 l 1036 481 l 1001 481 l 1001 435 l 1029 435 l 1029 421 l 1001 421 l 1001 369 l 1036 369 l 1036 356 l 982 356 m 753 -208 q 771 -210 765 -214 q 778 -197 776 -206 q 781 -178 781 -189 q 781 -161 781 -168 q 782 -128 781 -150 q 772 -101 783 -107 q 751 -103 758 -94 q 744 -124 744 -112 l 744 -146 q 744 -160 744 -150 q 743 -179 743 -169 q 745 -197 743 -189 q 753 -208 747 -206 m 1799 -378 q 1816 -380 1810 -383 q 1824 -368 1822 -376 q 1826 -349 1826 -360 q 1826 -332 1826 -339 q 1827 -317 1826 -326 q 1827 -299 1828 -308 q 1824 -283 1826 -290 q 1817 -272 1822 -275 q 1797 -274 1803 -265 q 1790 -294 1790 -283 l 1790 -315 q 1790 -329 1790 -319 q 1789 -349 1789 -339 q 1791 -368 1789 -360 q 1799 -378 1793 -376 m 636 -378 q 653 -380 647 -383 q 662 -368 660 -376 q 664 -349 664 -360 q 664 -332 664 -339 q 665 -317 664 -326 q 665 -299 665 -308 q 663 -283 665 -290 q 656 -272 661 -275 q 634 -274 640 -265 q 628 -294 628 -283 q 627 -305 626 -300 q 628 -315 628 -310 q 627 -329 628 -319 q 626 -349 626 -339 q 628 -368 626 -360 q 636 -378 631 -376 m 660 -224 l 660 -86 l 714 -86 l 714 -100 l 681 -100 l 681 -146 l 707 -146 l 707 -160 l 681 -160 l 681 -224 l 660 -224 m 1219 -224 l 1219 -86 l 1272 -86 l 1272 -100 l 1238 -100 l 1238 -146 l 1264 -146 l 1264 -160 l 1238 -160 l 1238 -224 l 1219 -224 m 1746 -211 q 1766 -209 1757 -211 q 1778 -192 1775 -207 l 1778 -156 l 1778 -121 q 1767 -103 1776 -106 q 1746 -100 1758 -100 l 1746 -211 m 961 -224 l 961 -100 l 936 -100 l 936 -86 l 1006 -86 l 1006 -100 l 981 -100 l 981 -224 l 961 -224 m 1590 356 l 1590 481 l 1565 481 l 1565 494 l 1633 494 l 1633 481 l 1610 481 l 1610 356 l 1590 356 m 1300 -394 l 1300 -257 l 1318 -257 l 1318 -381 l 1354 -381 l 1354 -394 l 1300 -394 m 1379 -224 l 1379 -86 l 1397 -86 l 1397 -211 l 1432 -211 l 1432 -224 l 1379 -224 m 1446 -224 l 1446 -86 l 1465 -86 l 1465 -211 l 1500 -211 l 1500 -224 l 1446 -224 m 915 356 l 915 494 l 933 494 l 933 369 l 968 369 l 968 356 l 915 356 m 1411 356 l 1411 494 l 1431 494 l 1431 356 l 1411 356 m 1629 963 l 1675 963 l 1651 1085 l 1629 963 m 596 -10 l 646 -10 l 646 46 l 596 46 l 596 -10 m 1224 243 q 1240 244 1231 243 q 1253 239 1249 244 q 1260 205 1261 228 q 1251 171 1260 182 q 1238 164 1246 164 q 1224 164 1231 164 l 1224 243 m 2079 243 q 2095 244 2086 243 q 2110 239 2104 244 q 2116 205 2117 228 q 2108 171 2115 182 q 2094 164 2101 164 q 2079 164 2086 164 l 2079 243 m 1174 -394 l 1174 -257 l 1193 -257 l 1193 -394 l 1174 -394 m 1731 -394 l 1731 -257 l 1750 -257 l 1750 -394 l 1731 -394 m 1533 356 l 1533 494 l 1553 494 l 1553 356 l 1533 356 m 1808 560 l 1808 597 l 1844 597 l 1844 560 l 1808 560 m 853 433 q 863 433 857 433 q 874 436 868 433 q 882 447 881 439 q 883 461 883 454 q 874 478 882 476 q 853 481 865 481 l 853 433 m 839 -146 q 860 -142 851 -146 q 869 -122 869 -137 q 861 -103 869 -107 q 839 -100 853 -100 l 839 -146 m 1581 -315 q 1602 -312 1593 -315 q 1611 -293 1611 -308 q 1602 -274 1611 -278 q 1581 -271 1593 -271 l 1581 -315 m 1017 -315 q 1038 -312 1029 -315 q 1046 -293 1046 -308 q 1038 -274 1046 -278 q 1017 -271 1029 -271 l 1017 -315 m 1235 -346 l 1258 -346 l 1247 -283 l 1235 -346 m 1572 -175 l 1596 -175 l 1585 -112 l 1572 -175 m 1071 406 l 1094 406 l 1083 468 l 1071 406 m 1376 104 l 1386 163 l 1394 104 l 1376 104 z "},"\u0000":{"ha":0,"x_min":0,"x_max":0,"o":""},"\r":{"ha":467,"x_min":0,"x_max":0,"o":""}," ":{"ha":467,"x_min":0,"x_max":0,"o":""},"o":{"ha":657,"x_min":-26,"x_max":701,"o":"m 389 617 q 433 619 407 624 q 499 578 474 611 q 533 507 524 544 q 535 381 547 446 q 496 258 522 317 q 583 268 540 240 q 657 356 625 296 q 701 333 697 374 q 591 202 657 249 q 429 149 525 156 q 381 91 407 119 q 326 40 356 63 q 263 3 297 18 q 192 -14 229 -11 q 108 -1 146 -17 q 43 45 71 15 q -1 114 15 75 q -22 196 -18 153 q -18 294 -26 244 q 9 390 -10 343 q 56 479 28 438 q 118 554 83 521 q 195 608 153 586 q 285 635 238 631 q 335 634 308 638 q 385 619 363 631 l 389 617 m 322 308 q 373 342 346 329 q 422 343 400 354 q 439 328 432 338 q 452 406 450 365 q 444 486 454 446 q 424 524 438 510 q 392 553 411 539 q 344 549 367 554 q 301 532 322 543 q 236 478 267 514 q 183 399 206 443 q 145 308 160 356 q 128 219 131 261 q 138 144 126 176 q 178 97 149 111 q 258 95 213 79 q 346 160 304 111 q 310 178 326 167 q 286 208 294 190 q 287 259 275 232 q 322 308 299 286 z "},"&":{"ha":936,"x_min":-24,"x_max":1151,"o":"m 643 -15 q 693 91 676 36 q 683 206 710 146 q 658 250 672 229 q 626 290 643 271 l 533 164 q 449 68 497 114 q 346 -6 401 22 q 228 -40 290 -35 q 99 -14 165 -46 q 44 28 67 1 q 6 87 21 54 q -17 156 -10 119 q -24 225 -24 192 q 8 362 -24 297 q 96 471 40 426 q 217 542 150 517 q 353 585 283 567 q 306 712 318 646 q 318 847 294 778 q 394 956 342 913 q 513 1015 446 1000 q 572 1024 540 1022 q 633 1019 603 1025 q 692 1001 664 1014 q 743 968 721 989 q 781 912 769 943 q 791 848 792 881 q 778 783 790 815 q 744 724 765 750 q 678 658 715 686 q 600 607 640 631 l 683 542 q 730 618 707 581 q 779 692 753 656 q 822 749 799 721 q 874 801 846 776 q 933 843 901 825 q 1000 869 964 861 q 1033 874 1014 874 q 1074 871 1053 875 q 1115 856 1094 867 q 1151 824 1135 844 q 1081 792 1119 818 q 1003 732 1042 767 q 927 660 964 697 q 864 593 890 622 q 763 471 811 533 q 830 386 803 431 q 864 285 857 342 q 849 183 869 236 q 794 85 828 129 q 719 12 760 40 q 643 -15 678 -17 m 426 208 q 492 276 458 236 q 557 357 525 315 l 507 401 q 449 458 478 428 q 394 522 419 488 q 291 467 331 494 q 227 411 251 439 q 192 356 203 383 q 175 300 181 328 q 181 217 167 258 q 228 153 194 175 q 312 141 261 132 q 426 208 363 150 m 508 907 q 463 790 456 858 q 550 649 471 721 l 561 656 q 608 690 583 669 q 652 735 632 710 q 684 788 672 760 q 694 847 696 817 q 672 900 693 879 q 621 929 650 921 q 560 932 592 938 q 508 907 529 926 z "},"":{"ha":603,"x_min":-267,"x_max":647,"o":"m 603 356 q 633 358 622 363 q 647 333 644 354 q 556 186 606 251 q 451 76 507 121 q 333 9 394 31 q 203 -8 271 -12 q 92 30 139 -4 q 32 122 46 64 l -56 -54 q -83 -116 -65 -74 q -121 -203 -101 -158 q -168 -314 -143 -254 q -196 -297 -181 -308 q -224 -274 -211 -286 q -248 -247 -237 -261 q -262 -221 -258 -233 q -264 -186 -267 -204 q -255 -149 -261 -168 q -241 -113 -249 -131 q -226 -81 -233 -96 q -74 227 -157 78 q 89 529 10 376 q 173 698 132 614 q 253 869 214 782 q 271 910 263 889 q 288 950 279 931 q 300 982 294 965 q 324 1004 306 999 q 351 1006 336 1008 q 378 997 365 1003 q 400 983 390 990 q 413 971 410 976 q 413 931 424 953 q 396 892 403 910 q 331 733 365 811 q 261 575 297 654 l 251 556 q 351 625 297 599 q 417 637 379 638 q 478 617 454 636 q 515 570 503 597 q 529 511 528 543 q 507 378 533 446 q 449 247 481 310 q 403 167 428 206 q 347 94 379 129 q 426 131 389 104 q 494 192 463 157 q 553 270 526 228 q 603 356 579 313 m 201 450 q 138 326 169 388 q 74 203 106 265 q 86 153 76 175 q 111 120 96 131 q 148 115 126 110 q 194 149 169 119 q 294 290 254 211 q 356 453 333 369 q 362 478 358 461 q 365 513 365 496 q 360 543 365 531 q 342 554 356 556 q 306 542 325 553 q 269 517 288 532 q 233 485 250 503 q 204 454 217 468 l 201 450 z "},"":{"ha":844,"x_min":1,"x_max":843,"o":"m 372 168 q 290 181 331 168 q 218 225 249 194 q 215 221 215 222 q 200 190 207 207 q 185 158 193 174 q 168 129 178 143 q 144 106 158 115 q 115 98 128 94 q 86 111 101 101 q 66 126 75 118 q 47 142 57 133 q 26 166 33 153 q 14 194 19 179 q 6 227 10 210 q 10 257 1 244 q 33 278 18 271 q 64 290 47 286 q 98 294 81 293 q 129 296 115 294 q 171 304 150 297 q 162 372 160 338 q 175 440 164 407 q 206 503 186 474 q 249 557 225 533 l 267 574 q 265 575 265 574 q 242 585 256 581 q 217 595 229 590 q 193 606 204 600 q 176 622 182 613 q 173 642 169 632 q 184 660 176 651 q 201 674 192 668 q 218 686 211 681 q 253 711 236 700 q 292 729 271 722 q 330 739 307 733 q 367 735 353 744 q 381 713 379 726 q 378 684 382 699 q 369 655 375 669 q 361 631 363 640 l 374 635 q 529 644 456 663 q 619 592 585 629 q 629 606 625 597 q 645 635 639 619 q 659 667 651 651 q 676 696 667 682 q 700 719 685 710 q 729 728 715 731 q 758 715 743 725 q 778 700 769 708 q 797 685 788 692 q 818 660 811 674 q 831 631 825 646 q 839 599 835 617 q 835 568 843 582 q 812 546 826 553 q 781 535 797 539 q 747 531 764 532 q 715 529 729 531 q 664 518 692 528 q 674 448 675 485 q 661 375 674 411 q 576 250 636 303 q 623 233 597 239 q 663 208 649 226 q 667 188 669 197 q 659 171 665 179 q 644 156 653 163 q 628 143 635 149 q 592 115 610 128 q 553 96 575 103 q 516 83 539 90 q 478 86 493 76 q 463 107 465 94 q 463 134 461 119 q 469 163 465 149 q 476 188 474 176 q 460 182 468 185 q 443 176 451 179 q 372 168 410 168 m 467 539 q 390 520 428 539 q 328 476 353 501 q 301 443 314 461 q 282 405 289 425 q 274 364 275 385 q 283 325 274 343 q 339 283 300 290 q 414 286 378 275 q 501 333 463 299 q 556 413 540 368 q 551 496 571 458 q 500 535 536 526 q 467 539 485 539 z "},"":{"ha":665,"x_min":-29,"x_max":710,"o":"m 229 678 q 218 730 211 704 q 245 778 225 756 q 292 819 265 801 q 339 849 318 838 l 289 1003 q 389 974 340 1004 q 468 900 438 943 q 497 910 481 904 q 532 921 514 915 q 567 929 550 926 q 600 932 585 932 q 640 922 622 931 q 667 901 657 913 q 678 880 678 890 q 669 867 679 869 q 599 840 642 857 q 515 806 556 822 q 552 632 546 722 q 549 457 558 542 q 534 370 543 414 q 507 286 525 326 q 501 272 504 279 q 493 257 497 264 q 585 269 538 240 q 665 356 633 297 l 710 333 q 592 201 664 249 q 424 149 521 154 l 400 119 q 320 43 364 79 q 224 -7 276 7 q 126 -5 175 -18 q 42 44 78 8 q -15 146 -1 89 q -23 263 -29 203 q 6 382 -17 324 q 60 486 29 440 q 139 574 93 535 q 243 628 185 613 q 360 629 300 644 q 378 621 367 626 q 399 608 389 615 q 371 740 390 672 l 349 731 q 290 701 321 717 q 229 678 260 685 m 317 308 q 360 338 336 326 q 403 347 383 350 q 410 436 408 392 q 408 526 411 481 q 408 531 408 529 q 407 536 407 533 q 372 547 388 546 q 347 549 356 549 q 267 515 303 544 q 208 438 231 483 q 169 349 185 393 q 156 300 163 326 q 147 247 150 274 q 147 194 144 221 q 161 146 150 168 q 192 114 172 122 q 233 108 211 106 q 276 119 254 110 q 313 143 297 129 q 323 153 318 147 q 333 164 328 158 q 302 182 317 171 q 281 208 288 193 q 281 259 269 232 q 317 308 293 286 z "},"p":{"ha":593,"x_min":-287,"x_max":638,"o":"m 593 356 q 624 358 613 363 q 638 333 635 354 q 547 186 596 251 q 441 76 497 121 q 323 9 385 31 q 193 -8 261 -12 q 85 28 131 -4 q 24 117 39 60 l -22 26 l -99 -122 q -115 -156 -103 -131 q -140 -214 -126 -182 q -166 -278 -154 -246 q -181 -332 -178 -311 q -221 -311 -201 -324 q -256 -283 -240 -299 q -279 -249 -271 -267 q -285 -214 -287 -232 q -260 -142 -278 -178 q -228 -75 -243 -107 q -140 97 -186 13 q -49 268 -93 182 q 53 466 4 367 q 146 669 103 565 q 169 675 149 674 q 209 669 189 676 q 241 644 229 663 q 239 589 253 626 l 214 526 q 273 582 242 557 q 342 625 304 607 q 407 637 369 638 q 468 617 444 636 q 501 567 493 597 q 511 506 510 538 q 489 372 515 440 q 431 242 463 304 q 385 162 410 200 q 329 89 361 124 q 409 126 371 99 q 481 190 447 153 q 542 269 514 226 q 593 356 569 313 m 64 197 q 78 150 68 171 q 103 119 88 129 q 139 115 118 110 q 185 149 160 121 q 284 290 244 211 q 346 453 324 369 q 352 478 349 461 q 356 513 356 496 q 351 543 356 531 q 332 554 346 556 q 297 542 315 553 q 259 517 278 532 q 224 485 240 503 q 194 454 207 468 q 185 444 189 449 q 176 433 181 439 l 122 317 l 64 197 z "},"":{"ha":654,"x_min":-181,"x_max":699,"o":"m 378 879 q 447 908 408 901 q 524 907 486 914 q 572 883 550 901 q 609 840 594 865 q 632 787 624 815 q 640 732 640 758 q 601 588 639 656 q 501 475 563 519 q 480 460 490 467 q 458 447 469 454 q 460 447 460 447 q 461 446 460 446 q 503 371 492 414 q 513 283 515 328 q 497 193 511 239 q 585 251 550 206 q 654 356 621 297 q 683 358 672 363 q 699 333 694 354 q 628 213 663 267 q 546 128 594 160 q 449 90 503 99 q 393 35 425 58 q 321 -1 361 11 q 242 -15 285 -12 q 164 0 200 -18 q 106 53 128 17 q 83 129 85 89 q 104 212 81 174 q 168 268 128 250 q 238 279 203 282 q 306 263 272 276 l 331 250 q 338 305 336 278 q 340 358 340 332 q 338 378 340 369 q 332 399 335 388 l 325 414 q 307 414 315 414 q 289 417 299 414 q 270 420 281 418 q 251 425 260 422 q 242 436 243 428 q 249 453 242 444 q 272 469 257 461 q 311 479 288 476 q 344 505 328 492 q 375 533 360 518 q 426 594 403 563 q 469 661 450 625 q 488 702 479 679 q 503 749 496 725 q 513 793 510 772 q 517 829 517 814 q 509 846 515 840 q 488 844 503 851 q 451 812 474 836 q 396 740 429 788 q 326 633 358 686 q 258 522 293 581 q 140 322 199 422 q 32 115 81 221 q -17 6 3 53 q -48 -78 -36 -42 q -66 -141 -60 -114 q -75 -192 -72 -168 q -139 -182 -115 -189 q -174 -151 -162 -175 q -179 -115 -181 -136 q -172 -68 -178 -93 q -159 -18 -167 -43 q -144 28 -151 7 q -69 221 -112 128 q 25 406 -25 314 q 128 583 74 496 q 249 749 182 669 q 310 817 276 781 q 378 879 343 854 m 204 79 q 244 85 228 76 q 274 108 261 93 q 234 135 257 118 q 193 151 211 151 q 175 141 181 151 q 172 117 169 131 q 182 92 174 104 q 204 79 190 81 z "},"":{"ha":1393,"x_min":4,"x_max":1389,"o":"m 1361 893 q 1350 861 1358 888 q 1330 797 1342 835 q 1305 715 1318 760 q 1279 626 1292 669 q 1258 546 1267 583 q 1246 488 1249 508 q 1233 351 1235 411 q 1242 250 1232 290 q 1273 191 1251 210 q 1329 179 1294 172 q 1339 182 1331 179 q 1356 188 1347 185 q 1371 194 1364 192 q 1378 196 1378 196 q 1379 181 1382 190 q 1372 163 1376 172 q 1360 144 1367 153 q 1351 132 1354 136 q 1301 94 1329 107 q 1242 81 1272 82 q 1183 89 1213 79 q 1128 121 1153 99 q 1063 231 1076 168 q 1059 363 1050 294 q 1090 497 1068 431 q 1132 618 1113 564 q 1150 669 1139 639 q 1172 725 1161 699 q 1189 771 1182 751 q 1196 790 1196 790 q 1158 717 1176 754 q 1124 642 1140 679 q 1077 543 1100 592 q 1031 444 1054 494 q 997 366 1011 407 q 960 289 982 325 q 927 247 946 265 q 883 218 908 228 q 862 213 876 215 q 833 213 847 211 q 809 220 819 214 q 799 239 799 226 q 807 274 799 239 q 827 363 815 310 q 853 481 839 417 q 879 601 867 544 q 901 698 892 657 q 913 749 910 739 q 820 544 864 647 q 718 346 776 442 q 672 270 696 310 q 618 203 649 231 q 575 173 599 185 q 525 158 551 161 q 499 159 514 157 q 468 166 483 161 q 441 180 453 171 q 428 201 429 189 q 526 243 481 210 q 606 317 571 276 q 666 397 642 357 q 701 461 690 438 q 792 665 751 561 q 892 863 833 768 q 908 883 896 868 q 933 913 919 897 q 958 940 946 928 q 974 951 969 951 q 999 953 986 951 q 1024 954 1011 954 q 1042 953 1032 954 q 1064 949 1053 951 q 1084 943 1075 947 q 1097 932 1093 939 q 1102 892 1108 914 q 1089 854 1096 871 q 1076 819 1081 836 q 1065 782 1071 801 q 1036 667 1051 724 q 1004 553 1021 610 q 1065 687 1036 619 q 1131 819 1094 754 q 1151 857 1138 832 q 1183 908 1165 882 q 1222 956 1201 935 q 1261 983 1242 976 q 1287 988 1274 989 q 1313 986 1300 986 q 1340 983 1326 985 q 1367 979 1354 982 q 1388 963 1388 972 q 1382 936 1389 954 q 1372 915 1378 925 q 1361 893 1365 904 m 242 697 q 202 726 215 707 q 186 769 189 746 q 190 816 183 792 q 211 858 197 840 q 290 922 242 899 q 386 957 338 946 q 526 972 457 975 q 667 958 596 969 q 755 946 708 951 q 842 956 801 940 q 863 965 853 960 q 883 976 872 971 q 900 985 899 983 q 901 974 901 986 q 899 950 903 963 q 888 926 894 938 q 874 903 882 914 q 858 885 865 892 q 808 847 835 861 q 750 826 781 833 q 687 818 719 819 q 622 818 654 817 q 563 669 583 749 q 519 515 543 590 q 488 424 506 471 q 447 335 471 378 q 391 257 424 293 q 315 199 358 221 q 232 172 276 178 q 147 176 188 167 q 73 213 107 186 q 21 283 39 239 q 5 369 4 324 q 21 456 6 414 q 65 532 36 497 q 135 585 94 567 q 202 604 167 600 q 269 592 238 608 q 328 530 311 571 q 338 446 344 489 q 303 366 331 403 q 233 318 276 329 q 219 315 229 317 q 197 314 208 314 q 177 316 186 314 q 167 324 168 318 q 170 329 167 325 q 178 338 174 333 q 186 347 182 343 q 192 353 190 351 q 210 392 203 371 q 217 432 217 410 q 216 474 218 454 q 210 509 214 493 q 201 532 206 525 q 156 551 185 556 q 108 528 126 547 q 85 491 93 511 q 76 449 78 471 q 78 403 75 426 q 86 361 81 381 q 129 284 99 314 q 213 265 160 254 q 292 313 263 276 q 339 394 321 350 q 374 499 360 446 q 403 606 388 553 q 441 711 418 660 q 501 806 464 763 q 510 815 506 811 q 521 825 515 819 q 416 826 468 828 q 313 813 364 824 q 267 799 290 808 q 233 768 244 789 q 229 728 225 749 q 237 713 232 721 q 242 697 242 704 z "},"q":{"ha":646,"x_min":-51,"x_max":690,"o":"m 74 -249 q 81 -208 74 -228 q 94 -168 88 -187 l 103 -143 q 71 -115 83 -135 q 54 -73 58 -94 q 56 -36 50 -51 q 82 -24 63 -21 q 119 -26 100 -26 q 154 -25 138 -26 q 177 22 165 -1 q 201 68 189 44 q 149 29 178 44 q 83 15 119 14 q 4 45 33 17 q -38 114 -25 74 q -50 199 -51 154 q -37 279 -49 243 q 40 437 -10 363 q 156 567 89 511 q 222 613 182 589 q 306 649 263 638 q 390 653 350 660 q 456 606 431 646 q 471 546 471 579 l 475 554 l 510 615 q 517 630 514 622 q 529 640 521 638 q 559 642 542 644 q 593 633 576 640 q 622 613 610 625 q 633 585 633 600 q 627 565 633 579 q 618 544 621 551 l 456 244 q 428 193 443 221 q 398 137 413 165 q 369 81 383 108 q 342 28 354 53 q 495 153 413 68 q 646 356 578 238 q 676 360 665 363 q 690 333 688 357 q 506 82 608 183 q 282 -92 404 -19 l 163 -361 q 130 -346 146 -356 q 101 -323 114 -336 q 81 -292 89 -310 q 74 -249 74 -274 m 221 150 q 278 213 254 179 q 317 283 297 249 q 358 354 338 318 q 387 426 374 390 q 403 500 400 461 q 403 525 404 511 q 396 550 401 539 q 383 562 393 556 q 356 567 372 568 q 319 555 340 565 q 271 518 297 544 q 194 419 228 474 q 135 307 160 364 q 119 266 129 293 q 103 210 110 239 q 98 155 97 181 q 115 118 99 129 q 142 108 128 107 q 171 115 157 108 q 198 131 185 121 q 221 150 211 142 z "},"r":{"ha":510,"x_min":-172,"x_max":554,"o":"m -172 121 q -19 330 -87 218 q 96 569 49 442 q 82 633 79 601 q 98 689 85 665 q 132 722 111 713 q 174 718 153 732 q 193 674 197 703 q 178 618 189 646 q 201 613 188 613 q 224 613 214 613 q 290 625 260 615 q 326 663 310 653 q 367 654 343 674 q 430 573 422 611 q 406 501 438 535 q 303 356 353 433 q 228 211 253 278 q 213 133 210 163 q 233 94 215 103 q 281 96 251 85 q 347 139 311 107 q 432 233 388 175 q 510 356 476 292 q 541 358 529 367 q 554 333 553 349 q 477 203 517 263 q 383 89 438 143 q 293 23 339 44 q 206 -1 247 1 q 131 13 164 -4 q 78 62 97 29 q 57 142 58 94 q 79 251 56 190 q 149 397 107 325 q 229 519 190 469 q 214 521 218 519 q 182 527 201 522 q 143 540 163 532 q 104 445 128 500 q 49 332 81 390 q -5 240 22 282 q -60 171 -32 199 q -116 129 -87 143 q -172 121 -144 115 z "},"s":{"ha":533,"x_min":-182,"x_max":578,"o":"m 471 765 q 438 696 453 740 q 415 598 422 651 q 400 487 407 544 q 385 370 393 429 q 360 257 376 311 q 416 257 389 250 q 465 278 443 264 q 505 313 488 293 q 533 356 522 333 q 578 333 571 372 q 524 251 554 292 q 446 188 494 210 q 383 167 415 172 q 318 163 351 161 q 236 69 282 107 q 128 11 193 33 q -1 -9 63 -11 q -115 26 -65 -7 q -176 133 -164 58 q -176 197 -182 165 q -156 256 -171 228 q -120 308 -142 285 q -71 349 -99 332 q 39 378 -19 378 q 97 456 67 415 q 158 536 128 496 q 217 615 189 576 q 271 688 246 654 q 292 721 279 704 q 322 749 303 736 q 365 769 342 761 q 416 776 389 776 q 471 765 443 776 m 133 146 q 163 196 150 167 q 94 225 129 207 q 54 242 76 233 q 9 252 32 250 q -35 248 -14 254 q -72 224 -56 242 q -90 191 -83 210 q -93 153 -96 172 q -62 92 -87 113 q -2 72 -36 72 q 69 90 32 71 q 133 146 106 108 m 235 544 q 170 459 204 504 q 103 371 136 414 q 157 354 129 364 l 210 331 q 224 438 221 383 q 235 544 228 492 z "},"t":{"ha":372,"x_min":-68,"x_max":517,"o":"m 419 890 q 419 858 425 871 q 406 828 414 844 l 389 794 q 439 786 418 792 q 487 758 467 778 q 513 710 507 738 q 513 683 517 689 q 492 675 510 678 q 450 668 475 672 q 400 661 425 664 q 354 656 375 658 q 325 651 333 653 l 322 651 l 290 585 l 172 347 q 151 306 167 336 q 119 240 136 276 q 87 131 86 167 q 111 92 88 96 q 175 113 135 88 q 261 189 215 139 q 319 265 293 225 q 372 356 346 304 q 418 333 414 378 q 371 250 396 292 q 316 169 346 208 q 253 95 286 131 q 181 33 219 60 q 105 0 149 10 q 19 1 61 -10 q -32 32 -11 8 q -60 86 -53 56 q -66 151 -68 118 q -55 218 -64 185 q -33 283 -46 251 q -8 343 -21 314 q 63 488 24 418 q 143 629 103 558 q 67 620 100 624 q 22 617 33 617 q 16 649 15 631 q 23 686 17 668 q 40 719 29 704 q 61 743 50 735 q 131 776 92 767 q 207 790 171 786 q 221 791 214 790 q 235 793 228 792 l 275 869 q 292 903 285 886 q 315 933 300 921 q 344 939 326 942 q 377 928 361 936 q 405 910 393 921 q 419 890 417 899 z "},"u":{"ha":719,"x_min":-69,"x_max":764,"o":"m 633 561 q 590 474 614 519 q 540 383 565 429 q 491 288 515 336 q 450 193 467 240 q 443 92 425 119 q 496 82 461 64 q 556 128 525 97 q 617 199 588 160 q 674 278 647 238 q 719 356 700 319 q 750 360 739 364 q 764 333 761 357 q 675 183 719 251 q 572 56 631 115 q 512 7 547 29 q 439 -24 476 -15 q 366 -23 401 -33 q 306 28 331 -12 q 276 117 278 71 q 289 210 275 164 q 221 121 257 165 q 146 45 185 76 q 69 2 107 14 q -4 10 31 -10 q -49 56 -35 28 q -66 115 -62 83 q -64 181 -69 147 q -50 242 -58 214 q 4 380 -29 313 q 81 508 38 447 q 105 542 90 522 q 137 581 119 563 q 172 616 154 600 q 207 638 190 632 q 253 644 232 646 q 292 635 275 643 q 321 618 308 628 q 340 600 333 608 q 296 542 319 575 q 247 472 272 508 q 199 397 222 435 q 154 324 175 358 q 90 190 101 235 q 93 133 79 144 q 139 140 107 122 q 206 196 171 158 q 255 253 232 224 q 301 313 278 282 q 397 460 354 383 q 488 617 439 538 q 513 647 500 636 q 550 650 526 657 q 630 610 614 631 q 633 561 646 589 z "},"v":{"ha":622,"x_min":0,"x_max":771,"o":"m 578 708 q 583 637 592 672 q 561 568 575 601 q 528 494 546 528 q 572 477 546 481 q 626 481 597 474 q 705 510 665 489 q 771 558 744 532 q 726 474 764 514 q 639 419 689 435 q 558 408 597 406 q 488 425 519 410 l 454 375 q 335 211 399 293 q 214 49 272 129 q 202 33 210 43 q 185 11 194 22 q 165 -9 175 0 q 146 -21 156 -18 q 115 -15 131 -25 q 88 12 100 -4 q 66 46 75 28 q 53 75 57 64 q 29 201 29 136 q 40 332 29 267 q 0 356 7 319 q 53 459 28 406 q 99 561 78 513 q 113 601 106 581 q 126 642 119 621 q 138 665 131 653 q 157 679 146 676 q 209 674 172 683 q 276 636 246 665 q 293 613 289 624 q 289 586 297 603 q 241 472 264 531 q 201 353 218 414 q 177 231 185 293 q 174 106 169 169 q 249 233 207 163 q 335 378 290 303 l 414 507 q 411 519 411 515 q 414 622 399 571 q 460 713 429 672 q 481 741 469 728 q 508 765 493 754 q 534 763 518 772 q 561 738 550 754 q 571 721 567 731 q 578 708 575 711 z "},"w":{"ha":846,"x_min":0,"x_max":992,"o":"m 775 768 q 803 756 789 771 q 825 726 818 742 q 834 690 842 707 q 817 650 826 672 q 786 579 801 614 q 754 510 771 544 q 795 481 768 489 q 856 480 822 474 q 926 506 890 486 q 992 558 961 525 q 946 467 983 506 q 857 414 908 428 q 778 408 813 403 q 717 431 743 413 q 649 309 685 368 q 576 192 614 250 q 549 153 569 181 q 506 93 529 125 q 462 33 483 61 q 432 -6 440 4 q 372 -14 403 -39 q 317 49 329 21 q 307 96 306 76 q 334 260 308 179 q 383 422 360 342 q 324 331 353 376 q 268 238 296 285 q 224 158 244 197 q 183 78 203 118 q 169 50 176 64 q 157 21 161 36 q 149 1 153 7 q 128 -6 144 -4 q 102 1 119 -6 q 65 18 85 7 q 29 44 46 29 q 7 76 13 60 q 3 112 1 92 q 7 147 4 132 q 15 238 10 192 q 29 329 21 283 q 0 356 6 328 q 43 439 24 396 q 82 522 63 482 q 126 624 111 582 q 161 676 140 665 q 199 680 174 683 q 239 669 224 676 q 267 649 254 661 q 285 624 281 638 q 283 604 288 615 q 276 585 279 593 q 258 541 274 576 q 223 451 243 506 q 183 322 203 396 q 149 164 163 249 l 186 235 q 397 567 278 407 q 417 590 404 575 q 442 621 429 606 q 464 647 454 636 q 475 660 474 658 q 497 663 482 664 q 528 655 513 661 q 558 640 544 649 q 572 622 571 631 q 572 604 575 615 q 567 586 569 593 q 555 548 563 574 q 538 490 547 522 q 520 421 529 457 q 504 351 511 385 q 493 297 500 331 q 480 232 486 264 q 469 177 474 200 q 464 154 464 154 q 521 228 493 188 q 574 315 549 269 q 621 406 599 360 q 663 497 643 453 q 656 519 657 510 q 658 622 643 571 q 704 713 672 672 q 735 747 715 728 q 775 768 756 765 z "},"x":{"ha":625,"x_min":-58,"x_max":728,"o":"m -4 -92 q -40 -40 -22 -72 q -50 29 -58 -8 q -25 82 -44 53 q 10 131 -6 111 q 88 225 46 179 q 172 315 129 271 l 197 342 q 205 390 200 365 q 214 440 210 415 q 221 472 215 446 q 231 526 226 497 q 237 578 236 554 q 229 606 238 601 q 207 594 221 608 q 175 554 193 579 q 138 497 157 529 q 101 434 118 465 q 68 376 83 403 q 44 333 53 349 q 13 329 22 322 q 0 356 3 336 q 40 432 19 393 q 81 507 61 471 q 117 572 100 543 q 146 619 133 601 q 197 678 167 651 q 268 706 228 706 q 340 680 308 704 q 382 621 371 656 q 390 576 389 600 q 389 529 392 553 q 428 563 408 547 q 469 594 449 579 q 515 626 492 611 q 561 654 538 642 q 619 682 586 668 q 681 689 651 696 q 694 683 688 686 q 708 674 701 681 q 724 654 719 663 l 728 646 q 696 631 711 638 q 669 617 682 624 q 647 607 656 611 q 540 538 590 578 q 442 457 490 497 q 406 426 422 442 q 372 394 389 410 q 363 330 368 363 q 353 265 357 297 q 341 172 346 222 q 344 78 336 121 q 376 47 351 43 q 432 78 401 51 q 514 171 479 121 q 570 258 542 208 q 625 356 599 307 q 656 359 644 361 q 669 333 667 357 q 626 250 649 293 q 576 164 603 207 q 521 81 550 121 q 458 8 492 40 q 426 -21 443 -7 q 389 -44 408 -35 q 349 -58 369 -54 q 306 -57 328 -62 q 260 -37 281 -51 q 224 -3 239 -22 q 199 40 208 17 q 188 88 189 64 q 184 140 185 114 q 185 194 183 167 q 144 146 164 171 q 106 96 125 121 q 86 67 101 89 q 53 18 71 46 q 20 -40 36 -10 q -4 -92 4 -69 z "},"y":{"ha":696,"x_min":-311,"x_max":683,"o":"m 683 632 q 633 540 657 582 q 595 470 614 504 q 569 424 576 436 q 450 165 503 297 q 343 -108 397 32 l 406 -128 q 460 -142 431 -136 q 518 -151 490 -149 q 569 -146 547 -154 q 611 -122 592 -137 q 570 -203 599 -167 q 501 -261 542 -239 q 415 -286 460 -283 q 325 -282 371 -289 l 278 -272 q 224 -384 254 -331 q 149 -482 193 -437 q 50 -551 104 -524 q -67 -578 -4 -578 q -189 -544 -132 -578 q -278 -454 -246 -511 q -310 -340 -308 -401 q -289 -223 -311 -279 q -225 -122 -267 -167 q -126 -57 -183 -78 q 28 -37 -54 -31 q 183 -62 110 -44 l 185 -62 q 222 45 203 -8 q 263 151 242 99 l 246 128 q 206 72 228 101 q 159 22 185 43 q 103 -6 133 1 q 35 6 72 -12 q -45 92 -29 35 q -49 219 -61 149 q 4 370 -33 299 q 88 508 42 442 q 137 572 107 538 q 199 624 167 607 q 258 633 221 635 q 338 603 294 631 q 275 511 313 569 q 201 388 238 453 q 136 260 164 324 q 104 151 108 196 q 109 122 103 135 q 128 107 115 110 q 160 115 140 104 q 207 154 179 125 q 284 251 250 200 q 350 356 318 303 q 394 445 369 399 q 449 532 419 492 q 511 602 478 572 q 581 643 544 632 q 622 648 604 650 q 654 643 640 646 q 683 632 669 638 m 0 -456 q 81 -354 53 -415 q 128 -232 108 -293 l 128 -229 q 48 -207 88 -217 q -32 -194 8 -197 q -121 -206 -76 -192 q -196 -257 -165 -221 q -231 -335 -224 -290 q -215 -418 -237 -381 q -173 -462 -199 -446 q -117 -483 -147 -478 q -56 -481 -86 -487 q 0 -456 -25 -474 z "},"z":{"ha":571,"x_min":-197,"x_max":561,"o":"m 469 501 q 385 447 425 476 q 307 385 344 417 q 240 326 275 358 q 167 260 204 293 q 92 196 129 226 q 19 144 54 165 q 112 161 63 151 q 210 176 161 171 q 304 177 260 181 q 382 156 349 174 q 445 87 433 128 q 449 0 457 46 q 347 10 407 7 q 217 12 286 13 q 74 7 147 11 q -65 -4 1 3 q -102 -10 -83 -7 q -139 -11 -121 -12 q -172 2 -161 -10 q -190 44 -183 14 q -191 90 -197 75 q -174 108 -185 104 q -88 156 -129 128 q -8 215 -47 185 q 62 273 25 242 q 137 338 99 304 q 211 403 175 371 q 279 464 247 436 q 314 493 299 481 q 350 519 329 506 q 297 516 325 519 q 240 510 268 513 q 187 510 213 508 q 142 522 161 511 q 93 579 99 546 q 101 657 88 613 q 141 652 111 653 q 211 651 171 651 q 297 653 251 651 q 385 655 343 654 q 461 657 428 656 q 510 658 494 658 q 549 633 536 657 q 556 540 561 610 q 512 522 533 531 q 469 501 490 513 z "},"@":{"ha":994,"x_min":-21,"x_max":925,"o":"m 919 617 q 910 499 925 563 q 865 371 894 435 q 798 249 836 307 q 721 149 760 192 q 670 101 697 124 q 607 72 643 79 q 544 80 575 67 q 494 121 514 93 q 474 168 479 144 q 437 124 457 144 q 393 88 417 103 q 312 66 356 64 q 232 97 268 68 q 182 172 196 126 q 171 263 168 217 q 190 360 174 311 q 231 453 206 408 q 288 536 256 497 q 358 606 321 575 q 433 649 390 632 q 519 666 476 665 q 598 647 561 667 q 654 581 635 626 q 683 605 668 594 q 713 622 697 615 q 737 630 722 626 q 767 633 751 633 q 795 628 782 633 q 815 613 808 624 q 752 498 786 554 q 688 383 718 442 q 654 315 669 350 q 628 244 639 281 q 624 200 619 215 q 644 187 628 185 q 685 211 660 189 q 746 279 711 233 q 780 331 763 300 q 813 394 797 361 q 839 458 828 426 q 854 515 850 490 q 858 593 860 554 q 845 667 857 632 q 810 733 833 703 q 750 788 786 764 q 643 829 699 821 q 533 829 588 838 q 428 799 478 821 q 336 749 378 778 q 160 569 232 676 q 64 339 88 461 q 69 135 43 228 q 167 -11 96 42 q 269 -62 214 -47 q 378 -73 324 -76 q 483 -50 432 -69 q 575 0 535 -31 q 611 10 593 14 q 639 -8 629 6 q 646 -42 649 -22 q 621 -75 643 -61 q 504 -123 568 -108 q 371 -137 440 -137 q 129 -61 229 -137 q 7 129 39 8 q 3 351 -21 233 q 108 603 29 485 q 301 800 186 721 q 406 858 349 833 q 528 891 464 882 q 657 890 592 900 q 783 840 722 879 q 919 617 903 764 m 401 207 q 443 233 424 218 q 482 267 463 249 l 482 268 q 450 267 465 265 q 428 278 435 268 q 523 379 481 318 q 581 507 565 440 q 580 556 586 531 q 543 583 574 581 q 496 569 517 586 q 458 536 475 553 q 380 419 410 485 q 335 285 350 354 q 344 206 322 225 q 401 207 365 186 z "}}}
